<svg xmlns="http://www.w3.org/2000/svg"  viewBox="0 0 64 64" width="64px" height="64px"><path fill="#cce7fc" d="M49.234,57.043H14.809c-4.418,0-8-3.582-8-8v-34.17c0-4.418,3.582-8,8-8h34.426c4.418,0,8,3.582,8,8	v34.17C57.234,53.461,53.652,57.043,49.234,57.043z"/><polygon fill="#acb7d0" points="7.191,51.426 7.447,44.66 14.66,40.766 13.957,30.681 17.596,22.383 20.596,19.447 20.723,14.021 24.936,10.255 30.298,11.851 33.043,16.447 31.511,19.702 31.128,22.128 27.809,25.128 31.064,29.404 39.681,20.787 43.511,21.617 39.298,28.383 37.319,30.936 35.213,32.021 38.851,38.851 39.043,40.511 43.83,44.66 47.149,45.234 47.787,46.064 56.979,49.319 56.404,53.915 52.574,56.787 11.851,56.723 7.83,54.298"/><path fill="#8d6c9f" d="M47,49c-0.553,0-1,0.447-1,1v2c0,0.553,0.447,1,1,1s1-0.447,1-1v-2C48,49.447,47.553,49,47,49z"/><path fill="#8d6c9f" d="M42,49c-0.553,0-1,0.447-1,1v2c0,0.553,0.447,1,1,1s1-0.447,1-1v-2C43,49.447,42.553,49,42,49z"/><path fill="#8d6c9f" d="M37,49c-0.553,0-1,0.447-1,1v2c0,0.553,0.447,1,1,1s1-0.447,1-1v-2C38,49.447,37.553,49,37,49z"/><path fill="#8d6c9f" d="M32,49c-0.553,0-1,0.447-1,1v2c0,0.553,0.447,1,1,1c0.553,0,1-0.447,1-1v-2 C33,49.447,32.553,49,32,49z"/><path fill="#8d6c9f" d="M27,49c-0.553,0-1,0.447-1,1v2c0,0.553,0.447,1,1,1s1-0.447,1-1v-2C28,49.447,27.553,49,27,49z"/><path fill="#8d6c9f" d="M22,49c-0.553,0-1,0.447-1,1v2c0,0.553,0.447,1,1,1s1-0.447,1-1v-2C23,49.447,22.553,49,22,49z"/><path fill="#8d6c9f" d="M17,49c-0.553,0-1,0.447-1,1v2c0,0.553,0.447,1,1,1s1-0.447,1-1v-2C18,49.447,17.553,49,17,49z"/><path fill="#8d6c9f" d="M51,6H13c-3.86,0-7,3.141-7,7v34v0.897V51c0,3.859,3.14,7,7,7h38c3.86,0,7-3.141,7-7v-0.453V50V13 C58,9.141,54.86,6,51,6z M13,8h38c2.757,0,5,2.243,5,5v34.864c-1.176-0.443-2.242-0.864-3.271-1.272 c-1.755-0.695-3.426-1.358-5.255-1.958c-0.384-0.48-1.005-0.816-1.934-0.829c-0.29-0.004-0.686-0.009-1.53-0.421 c-0.703-0.343-1.738-1.034-2.078-1.261c-1.091-0.729-1.25-1.033-1.72-1.937c-0.1-0.192-0.207-0.396-0.327-0.616 c0.062-0.422,0.01-0.928-0.225-1.531c-0.406-1.036-0.785-1.515-1.266-1.953l-0.005-0.005c-0.019-0.038-0.042-0.084-0.056-0.109 l-1.962-3.616c0.4-0.366,0.601-0.47,1.146-0.628c0.243-0.071,0.471-0.187,0.671-0.342l0.179-0.139l0.344-0.221 c0.916-0.586,1.321-0.933,1.646-2.034c0.031-0.104,0.069-0.233,0.125-0.4c0.029-0.085,0.052-0.146,0.072-0.2 c0.034-0.09,0.064-0.174,0.095-0.27c1.355-1.686,2.924-3.882,3.54-5.347c0.258-0.614,0.194-1.316-0.171-1.873 s-0.984-0.895-1.65-0.902l-2.902-0.032c-0.007,0-0.015,0-0.022,0c-0.602,0-1.172,0.271-1.552,0.739 c-0.425,0.523-0.955,1.119-1.517,1.75c-1.108,1.245-2.254,2.532-2.98,3.689c-0.233,0.372-0.33,0.793-0.301,1.202 c-0.444,0.302-1.037,0.635-1.649,0.916c-0.196-0.279-0.465-0.559-0.823-0.835l-0.003-0.002l-1.536-1.954 c-0.069-0.111-0.135-0.224-0.198-0.337c0.528-0.211,0.975-0.592,1.338-1.138c0.266-0.186,0.488-0.437,0.64-0.741 c0.002-0.006,0.003-0.008,0.002-0.008s-0.003,0.002-0.006,0.005c0.15-0.167,0.269-0.329,0.366-0.494 c0.754-0.312,1.253-1.06,1.235-1.893c-0.006-0.272-0.033-0.52-0.063-0.737c0.189-0.119,0.389-0.287,0.562-0.524 c0.175-0.182,0.314-0.396,0.41-0.631c0.04-0.098,0.08-0.192,0.119-0.283c0.345-0.806,0.818-1.91,0.251-3.49 c-0.212-0.59-0.507-1.051-0.723-1.388c-0.064-0.1-0.15-0.234-0.185-0.3c-0.154-0.516-0.509-0.946-0.982-1.196 c-0.675-1.391-1.767-2.007-3.951-2.217c-0.135-0.07-0.265-0.124-0.381-0.168c-0.387-0.146-0.842-0.217-1.391-0.217 c-0.645,0-1.311,0.095-1.718,0.184c-1.456,0.319-3.364,2.302-3.665,2.753c-0.818,1.231-1.289,2.873-1.293,4.506 c0,0.044,0.001,0.087,0.004,0.131c0.02,0.315,0.027,0.582,0.033,0.814c0.008,0.305,0.017,0.613,0.053,0.925 c-0.14,0.112-0.267,0.244-0.374,0.393c-0.395,0.547-0.576,0.89-0.7,1.16c-0.287,0.261-1.094,0.903-1.551,1.265 c-0.212,0.168-0.387,0.378-0.516,0.616c-0.22,0.407-0.463,0.757-0.72,1.128c-0.72,1.038-1.535,2.213-2.018,4.689l-0.235,0.745 c-0.057,0.183-0.089,0.372-0.092,0.564l-0.062,3.266c-0.001,0.083,0.002,0.167,0.011,0.25l0.532,4.985 c0.011,0.173-0.007,0.409-0.025,0.658c-0.029,0.393-0.062,0.839-0.01,1.32c0.008,0.078,0.021,0.154,0.038,0.228 c-2.864,0.68-4.667,1.76-5.817,2.853V13C8,10.243,10.243,8,13,8z M56,51c0,2.757-2.243,5-5,5H13c-2.757,0-5-2.243-5-5v-2.973V47 c0,0,0.294-4.512,9.83-5.301c-1.273-1.391-0.988-1.446-0.581-1.796l-1.481-0.051c-0.064-0.591,0.092-1.277,0.039-1.942 l-0.535-5.018l0.062-3.266l0.27-0.856c0.567-3.03,1.626-3.636,2.555-5.358c2.834-2.253,1.519-1.284,2.628-2.82 c0.027-0.001,0.053-0.001,0.08-0.001c0.382,0,0.736,0.083,1.016,0.298c0.356-0.288,0.223-0.157,0.501-0.817 c-0.024-0.017-0.063-0.057-0.084-0.057c-0.005,0-0.009,0.002-0.012,0.008l-0.438-0.36c-0.445-0.609-0.315-1.139-0.401-2.5 c0.003-1.258,0.379-2.532,0.958-3.403c0.203-0.305,1.742-1.757,2.426-1.907c0.304-0.066,0.83-0.138,1.291-0.138 c0.269,0,0.516,0.024,0.684,0.088c0.566,0.214,0.046,0.22,0.667,0.268c3.408,0.266,1.947,1.365,3.438,2.014 c0.141,0.535,0.675,1.046,0.942,1.791c0.347,0.968-0.001,1.511-0.34,2.344c-0.265,0.219-0.056,0.19-0.328,0.269 c-0.028,0.009-0.045,0.014-0.061,0.02c-0.01-0.007-0.043-0.014-0.121-0.018c-0.087-0.004-0.144-0.011-0.187-0.019 c-0.903,0.677-0.383,1.376-0.359,2.439l-0.808,0.218c-0.116,0.905-0.234,0.549-0.576,1.23c-0.014-0.002-0.028-0.003-0.042-0.003 c-0.431,0-0.344,0.977-1.23,0.977c-0.341,0-0.827-0.145-1.542-0.547c-0.32-0.18-0.459-0.324-0.593-0.324 c-0.087,0-0.171,0.061-0.301,0.212c-0.037,0.425,0.185,0.129,0.529,0.746c0.312,0.561,0.718,1.907,1.549,3.207l1.749,2.225 c0.633,0.509,0.965,0.607,0.394,1.391c0.525,0.051,0.579,0.239,0.854,0.509c1.468-0.37,4.424-1.754,5.131-3.097 c-0.086-0.24-0.088-0.286-0.099-0.286c-0.007,0-0.018,0.017-0.053,0.017c-0.048,0-0.142-0.031-0.334-0.178 c0.985-1.569,3.071-3.661,4.355-5.241L42.344,22c-0.493,1.172-1.932,3.258-3.51,5.183c-0.098,0.401-0.131,0.421-0.249,0.77 c-0.382,1.134-0.06,0.8-1.378,1.661l-0.248,0.193c-1.458,0.423-1.74,0.91-3.075,2.16l2.69,4.959 c0.401,0.857,0.673,0.439,1.222,1.84c0.231,0.592,0.153,0.58-0.306,0.802l0.453,0.629c0.925,1.601,0.951,2.302,2.878,3.589 c0.683,0.456,1.598,1.047,2.311,1.395c2.358,1.151,2.855,0.159,2.853,1.05c0,0.01-0.007,0.016-0.008,0.026 C49.356,47.293,52.017,48.528,56,50v0.493V51z"/><path fill="#8d6c9f" d="M35.057,41.656c-0.264,0.137-0.456,0.293-0.665,0.293c-0.154,0-0.317-0.083-0.525-0.318 c-0.321-0.361-0.569-0.83-0.716-1.432c-0.264-1.079-1.279-1.252-1.627-2.509c-0.402,0.187-2.967,1.817-3.413,2.264l-2.476,1.876 c3.141,0.303,6.8,0.901,11.07,1.899C36.457,43.326,35.972,42.769,35.057,41.656z"/><path fill="#8d6c9f" d="M25.483,32.417c0.604,0.142,0.48,0.435,0.98,0.899c0.762,0.707,0.515-0.166,1.099,0.309	c-0.387,0.249-2.093,1.409-2.524,1.374C24.897,34.29,25.17,32.978,25.483,32.417z"/></svg>