<svg xmlns="http://www.w3.org/2000/svg"  viewBox="0 0 64 64" width="64px" height="64px"><path fill="#85cbf8" d="M36.832,58.948c0,0.426-0.235,0.688-0.376,0.805c-0.141,0.118-0.435,0.304-0.859,0.231h0.001 l-30.69-5.416C3.901,54.39,3.17,53.519,3.17,52.496V11.504c0-1.023,0.731-1.894,1.738-2.072l30.69-5.416 c0.424-0.071,0.719,0.113,0.859,0.231c0.141,0.117,0.376,0.379,0.376,0.805L36.832,58.948L36.832,58.948z"/><path fill="#6fc6f0" d="M7.031,31c-2.221,0-4.017,1.81-4,4.031l0.137,17.465c0,1.023,0.731,1.894,1.738,2.072l30.69,5.416 l0,0c0.424,0.073,0.719-0.113,0.859-0.231c0.141-0.117,0.376-0.379,0.376-0.805l0.144-23.923c0.013-2.219-1.781-4.024-4-4.024 L7.031,31L7.031,31z"/><path fill="#9fddff" d="M36.456,4.247c-0.141-0.118-0.435-0.302-0.859-0.231L4.907,9.432 c-1.008,0.178-1.739,1.049-1.739,2.072v4c0-1.023,0.731-1.894,1.738-2.072l30.69-5.416c0.424-0.071,0.719,0.113,0.859,0.231 c0.141,0.117,0.376,0.379,0.376,0.805v-4C36.832,4.626,36.596,4.364,36.456,4.247z"/><path fill="#fff" d="M26,21H12c-0.552,0-1,0.448-1,1s0.448,1,1,1h6v19c0,0.552,0.448,1,1,1s1-0.448,1-1V23h6 c0.552,0,1-0.448,1-1S26.552,21,26,21z"/><path fill="#45aedd" d="M55.5 17A4.5 4.5 0 1 0 55.5 26 4.5 4.5 0 1 0 55.5 17zM41.5 14A4.5 4.5 0 1 0 41.5 23 4.5 4.5 0 1 0 41.5 14zM38 28h8c.552 0 1 .448 1 1v16c0 0-1 4-6 4-1.81 0-3.096-.524-4-1.193L37 29C37 28.448 37.448 28 38 28zM51 31v14c.792.367 2.766 1 4 1 5 0 6-4 6-4V31c0-.552-.448-1-1-1h-8C51.448 30 51 30.448 51 31z"/><path fill="#8d6c9f" d="M55.5 27c3.033 0 5.5-2.467 5.5-5.5S58.533 16 55.5 16 50 18.467 50 21.5 52.467 27 55.5 27zM55.5 18c1.93 0 3.5 1.57 3.5 3.5S57.43 25 55.5 25 52 23.43 52 21.5 53.57 18 55.5 18zM46 27h-8c0 0 0 0 0 0v-4.261C38.951 23.526 40.171 24 41.5 24c3.033 0 5.5-2.467 5.5-5.5S44.533 13 41.5 13c-1.329 0-2.549.474-3.5 1.261V6.384c0-.889-.391-1.727-1.071-2.298-.682-.572-1.57-.812-2.45-.657L5.305 8.578C3.39 8.916 2 10.572 2 12.517l0 38.966c0 1.945 1.39 3.602 3.305 3.939l29.174 5.148c.175.031.35.046.523.046.699 0 1.381-.245 1.927-.703.68-.57 1.071-1.408 1.071-2.297v-8.16C38.901 49.803 39.896 50 41 50c4.573 0 6.559-3.112 6.97-4.757C47.99 45.163 48 45.082 48 45V29C48 27.897 47.103 27 46 27zM41.5 15c1.93 0 3.5 1.57 3.5 3.5S43.43 22 41.5 22 38 20.43 38 18.5 39.57 15 41.5 15zM35.643 58.382c-.133.112-.422.29-.816.219L5.652 53.453C4.695 53.284 4 52.456 4 51.483V12.517c0-.973.695-1.801 1.652-1.97l29.174-5.148c.394-.069.683.106.816.219C35.775 5.731 36 5.978 36 6.384l0 51.232C36 58.022 35.776 58.27 35.643 58.382zM46 44.855C45.82 45.396 44.756 48 41 48c-1.167 0-2.174-.245-3-.73V29h8V44.855zM60 29h-8c-1.103 0-2 .897-2 2v14c0 .39.226.744.58.907C51.401 46.288 53.542 47 55 47c4.573 0 6.559-3.112 6.97-4.757C61.99 42.163 62 42.082 62 42V31C62 29.897 61.103 29 60 29zM60 41.855C59.82 42.396 58.756 45 55 45c-.837 0-2.146-.364-3-.674V31h8V41.855z"/></svg>