<svg xmlns="http://www.w3.org/2000/svg"  viewBox="0 0 64 64" width="64px" height="64px"><path fill="#a2a2ea" d="M36.816,57.948c0,0.426-0.235,0.688-0.376,0.805c-0.141,0.118-0.435,0.304-0.859,0.231h0.001 l-30.69-5.416c-1.007-0.178-1.738-1.049-1.738-2.072V10.504c0-1.023,0.731-1.894,1.738-2.072l30.69-5.416 c0.424-0.071,0.719,0.113,0.859,0.231c0.141,0.117,0.376,0.379,0.376,0.805V57.948z"/><path fill="#9393d8" d="M7.016,30c-2.221,0-4.017,1.81-4,4.031l0.137,17.465c0,1.023,0.731,1.894,1.738,2.072l30.69,5.416h0 c0.424,0.073,0.719-0.113,0.859-0.231c0.141-0.117,0.376-0.379,0.376-0.805l0.144-23.923c0.013-2.219-1.781-4.024-4-4.024H7.016z"/><path fill="#b6b6ef" d="M36.44,3.247c-0.141-0.118-0.435-0.302-0.859-0.231L4.891,8.432 C3.884,8.61,3.153,9.481,3.153,10.504v4c0-1.023,0.731-1.894,1.738-2.072l30.69-5.416c0.424-0.071,0.719,0.113,0.859,0.231 c0.141,0.117,0.376,0.379,0.376,0.805v-4C36.816,3.626,36.581,3.364,36.44,3.247z"/><path fill="#85cbf8" d="M55,23h-3.538L51,37h4c1.105,0,2-0.895,2-2V25C57,23.895,56.105,23,55,23z"/><path fill="#72caaf" d="M55,37h-4v14h4c1.105,0,2-0.895,2-2V39C57,37.895,56.105,37,55,37z"/><path fill="#e3f2ff" d="M52,23h5c1.105,0,2-0.895,2-2v-8c0-1.105-0.895-2-2-2H37v40h12c1.105,0,2-0.895,2-2V24 C51,23.448,51.448,23,52,23z"/><path fill="#c5e4fa" d="M37 11H43V51H37z"/><path fill="#8d6c9f" d="M57,10H38V5.384c0-0.889-0.391-1.727-1.072-2.298c-0.681-0.571-1.573-0.813-2.45-0.656L5.305,7.578 C3.39,7.916,2,9.572,2,11.517v38.967c0,1.944,1.39,3.601,3.305,3.938l29.174,5.148h0c0.174,0.031,0.349,0.046,0.523,0.046 c0.7,0,1.381-0.244,1.926-0.702C37.609,58.343,38,57.505,38,56.616V52h11h6c1.654,0,3-1.346,3-3V39c0-0.771-0.301-1.468-0.78-2 c0.48-0.532,0.78-1.229,0.78-2V25c0-0.395-0.081-0.77-0.22-1.116C59.055,23.538,60,22.383,60,21v-8C60,11.346,58.654,10,57,10z M36,56.616c0,0.405-0.224,0.654-0.357,0.766c-0.133,0.112-0.416,0.287-0.817,0.22h0L5.652,52.453C4.695,52.284,4,51.456,4,50.483 V11.517c0-0.973,0.695-1.801,1.652-1.97l29.173-5.148c0.401-0.069,0.684,0.107,0.817,0.22C35.776,4.729,36,4.979,36,5.384V10v42 V56.616z M51.999,24H53h2c0.551,0,1,0.448,1,1v10c0,0.552-0.449,1-1,1h-3.001L51.999,24z M56,49c0,0.552-0.449,1-1,1h-3.184 C51.928,49.686,52,49.352,52,49l-0.001-11H55c0.551,0,1,0.448,1,1V49z M58,21c0,0.552-0.449,1-1,1h-2h-2h-1c-1.103,0-2,0.897-2,2 v25c0,0.552-0.449,1-1,1H38v-6h7c0.552,0,1-0.447,1-1s-0.448-1-1-1h-7v-4h7c0.552,0,1-0.447,1-1s-0.448-1-1-1h-7v-4h7 c0.552,0,1-0.447,1-1s-0.448-1-1-1h-7v-4h7c0.552,0,1-0.447,1-1s-0.448-1-1-1h-7v-4h7c0.552,0,1-0.447,1-1s-0.448-1-1-1h-7v-6h19 c0.551,0,1,0.448,1,1V21z"/><path fill="#faefde" d="M25,20c-0.552,0-1,0.447-1,1v16.39L13.857,20.485c-0.231-0.385-0.688-0.567-1.125-0.449 C12.3,20.156,12,20.551,12,21v20c0,0.553,0.448,1,1,1s1-0.447,1-1V24.61l10.143,16.904C24.327,41.821,24.655,42,25,42 c0.088,0,0.178-0.012,0.267-0.036C25.7,41.844,26,41.449,26,41V21C26,20.447,25.552,20,25,20z"/></svg>