<svg xmlns="http://www.w3.org/2000/svg"  viewBox="0 0 64 64" width="64px" height="64px"><path fill="#85cbf8" d="M51,57H13c-3.314,0-6-2.686-6-6V13c0-3.314,2.686-6,6-6h38c3.314,0,6,2.686,6,6v38 C57,54.314,54.314,57,51,57z"/><path fill="#faefde" d="M53,32c0,0.37-0.01,0.74-0.03,1.1c-0.55,10.72-9.15,19.32-19.87,19.87C32.74,52.99,32.37,53,32,53 c-6.19,0-11.75-2.67-15.6-6.93c-0.69-0.78-1.34-1.61-1.91-2.49c-0.82-1.23-1.51-2.55-2.05-3.94c-0.29-0.73-0.54-1.49-0.74-2.26 c-0.22-0.82-0.39-1.65-0.5-2.5C11.07,33.94,11,32.98,11,32c0-11.6,9.4-21,21-21c0.97,0,1.93,0.07,2.87,0.2 c0.85,0.11,1.69,0.28,2.51,0.5c0.77,0.2,1.53,0.45,2.26,0.74c1.4,0.54,2.72,1.23,3.95,2.05c0.88,0.58,1.71,1.22,2.48,1.91 C50.33,20.25,53,25.81,53,32z"/><path fill="#fff7f0" d="M53 32c0 .37-.01.74-.03 1.1L33.1 52.97C32.74 52.99 32.37 53 32 53c-6.19 0-11.75-2.67-15.6-6.93L46.07 16.4C50.33 20.25 53 25.81 53 32zM43.59 14.49l-29.1 29.09c-.82-1.23-1.51-2.55-2.05-3.94l27.2-27.2C41.04 12.98 42.36 13.67 43.59 14.49zM37.38 11.7L11.7 37.38c-.22-.82-.39-1.65-.5-2.5L34.87 11.2C35.72 11.31 36.56 11.48 37.38 11.7z"/><path fill="#fff" d="M31.5 16L32.737 18.263 35 19.5 32.737 20.737 31.5 23 30.262 20.737 28 19.5 30.262 18.263z"/><path fill="#85cbf8" d="M37 26L38 30 26 30 27 26 15 32 27 38 26 34 38 34 37 38 49 32z"/><path fill="#8d6c9f" d="M51,58H13c-3.859,0-7-3.141-7-7V13c0-3.859,3.141-7,7-7h38c3.859,0,7,3.141,7,7v38 C58,54.859,54.859,58,51,58z M13,8c-2.757,0-5,2.243-5,5v38c0,2.757,2.243,5,5,5h38c2.757,0,5-2.243,5-5V13c0-2.757-2.243-5-5-5H13z"/><path fill="#8d6c9f" d="M32,54c-12.131,0-22-9.869-22-22s9.869-22,22-22s22,9.869,22,22S44.131,54,32,54z M32,12 c-11.028,0-20,8.972-20,20s8.972,20,20,20s20-8.972,20-20S43.028,12,32,12z"/><path fill="#8d6c9f" d="M37 39c-.223 0-.444-.074-.626-.22-.305-.244-.438-.644-.344-1.022L36.719 35h-9.438l.688 2.758c.095.379-.039.778-.344 1.022-.306.245-.725.287-1.073.114l-12-6C14.214 32.725 14 32.379 14 32s.214-.725.553-.895l12-6c.349-.173.768-.131 1.073.114.305.244.438.644.344 1.022L27.281 29h9.438l-.688-2.758c-.095-.379.039-.778.344-1.022.306-.245.725-.287 1.073-.114l12 6C49.786 31.275 50 31.621 50 32s-.214.725-.553.895l-12 6C37.306 38.965 37.152 39 37 39zM26 33h12c.308 0 .599.142.788.385.189.242.257.559.182.857l-.473 1.891L46.764 32l-8.267-4.133.473 1.891c.075.299.008.615-.182.857C38.599 30.858 38.308 31 38 31H26c-.308 0-.599-.142-.788-.385-.189-.242-.257-.559-.182-.857l.473-1.891L17.236 32l8.267 4.133-.473-1.891c-.075-.299-.008-.615.182-.857C25.401 33.142 25.692 33 26 33zM32 49c-.553 0-1-.447-1-1v-2c0-.553.447-1 1-1s1 .447 1 1v2C33 48.553 32.553 49 32 49zM37.209 48.128c-.415 0-.803-.26-.945-.675l-.65-1.891c-.18-.522.098-1.091.62-1.271s1.091.098 1.271.62l.65 1.891c.18.522-.098 1.091-.62 1.271C37.427 48.11 37.316 48.128 37.209 48.128zM41.853 45.608c-.298 0-.592-.132-.789-.385l-1.231-1.576c-.34-.435-.263-1.063.173-1.403.436-.341 1.063-.263 1.403.173l1.231 1.576c.34.435.263 1.063-.173 1.403C42.284 45.539 42.067 45.608 41.853 45.608zM26.791 48.128c-.107 0-.218-.018-.325-.055-.522-.18-.8-.748-.62-1.271l.65-1.891c.18-.522.747-.8 1.271-.62.522.18.8.748.62 1.271l-.65 1.891C27.594 47.868 27.206 48.128 26.791 48.128zM22.147 45.608c-.215 0-.432-.069-.614-.212-.436-.34-.513-.969-.173-1.403l1.231-1.576c.339-.436.967-.514 1.403-.173.436.34.513.969.173 1.403l-1.231 1.576C22.739 45.477 22.445 45.608 22.147 45.608zM42.559 21c-.235 0-.471-.082-.661-.25-.709-.625-1.518-1.203-2.401-1.718-.477-.278-.638-.891-.36-1.368.279-.477.893-.637 1.368-.36.995.581 1.909 1.235 2.716 1.946.414.364.454.997.089 1.411C43.111 20.886 42.835 21 42.559 21zM21.441 21c-.277 0-.553-.114-.75-.339-.365-.415-.325-1.047.089-1.411 4.172-3.675 9.902-5.142 15.471-3.696.535.139.855.685.717 1.219s-.686.86-1.219.717c-4.935-1.278-9.967.021-13.646 3.261C21.912 20.918 21.677 21 21.441 21z"/><path fill="#fff" d="M17.515 23.031L18.04 23.991 19 24.516 18.04 25.041 17.515 26 16.991 25.041 16.031 24.516 16.991 23.991zM45.499 37L46.383 38.616 48 39.5 46.383 40.384 45.499 42 44.616 40.384 43 39.5 44.616 38.616z"/></svg>