<svg xmlns="http://www.w3.org/2000/svg"  viewBox="0 0 64 64" width="64px" height="64px"><path fill="#85cbf8" d="M63,13.211v37.579C63,52.011,62.043,53,60.862,53H3.138C1.957,53,1,52.011,1,50.789V13.211 C1,11.989,1.957,11,3.138,11h57.724C62.043,11,63,11.989,63,13.211z"/><path fill="#96d7f9" d="M30.625 52.9L14.125 52.9 47.362 11 60.862 11 63 12.096zM41.5 11L7.985 53 3.785 53 3.785 52.61 37 11zM32.25 11L.625 50.99.625 49.1 30.75 11z"/><path fill="#8d6c9f" d="M61,10H3c-1.654,0-3,1.346-3,3v38c0,1.654,1.346,3,3,3h58c1.654,0,3-1.346,3-3V13 C64,11.346,62.654,10,61,10z M62,51c0,0.55-0.45,1-1,1H3c-0.552,0-1-0.448-1-1V13c0-0.55,0.45-1,1-1h58c0.55,0,1,0.45,1,1V51z"/><path fill="#faefde" d="M31.963,22.316c5.332-5.584,14.167-5.775,19.734-0.426s5.757,14.211,0.425,19.794 s-14.167,5.775-19.734,0.426c-0.954-0.916-1.773-1.964-2.433-3.111"/><path fill="#f9e3ae" d="M42,41c-4.971,0-9-4.029-9-9s4.029-9,9-9s9,4.029,9,9S46.971,41,42,41z"/><path fill="#ed7899" d="M21.736 17.79A14.211 14.211 0 1 0 21.736 46.211999999999996A14.211 14.211 0 1 0 21.736 17.79Z"/><path fill="#f283a5" d="M22 18A14 14 0 1 0 22 46A14 14 0 1 0 22 18Z"/><path fill="#ed7899" d="M22,41c-4.971,0-9-4.029-9-9s4.029-9,9-9s9,4.029,9,9S26.971,41,22,41z"/><path fill="#8d6c9f" d="M28.609 31.365c.548.067 1.047-.323 1.114-.871.067-.548-.323-1.047-.871-1.114l-1.985-.244c-.548-.067-1.047.323-1.114.871-.067.548.323 1.047.871 1.114L28.609 31.365zM29.143 35.799c.54-.117.883-.649.766-1.189-.117-.54-.649-.883-1.189-.766l-1.955.422c-.54.117-.883.649-.766 1.189.117.54.649.883 1.189.766L29.143 35.799zM29.557 27.009c.496.243 1.095.039 1.338-.457.243-.496.039-1.095-.457-1.338l-1.796-.881c-.496-.243-1.095-.039-1.338.457-.243.496-.039 1.095.457 1.338L29.557 27.009z"/><path fill="none" stroke="#8d6c9f" stroke-linecap="round" stroke-miterlimit="10" stroke-width="2" d="M29.873,39 c2.421,4.185,6.945,7,12.127,7c7.732,0,14-6.268,14-14s-6.268-14-14-14c-3.917,0-7.459,1.609-10,4.202"/><path fill="none" stroke="#8d6c9f" stroke-linecap="round" stroke-miterlimit="10" stroke-width="2" d="M46 23.936C44.795 23.337 43.437 23 42 23c-1.052 0-2.062.18-3 .512M50.064 28c-.362-.728-.819-1.4-1.356-2M22 18A14 14 0 1 0 22 46 14 14 0 1 0 22 18z"/></svg>