<svg xmlns="http://www.w3.org/2000/svg"  viewBox="0 0 64 64" width="64px" height="64px"><path fill="#8b8e98" d="M58,13v38c0,3.85-3.15,7-7,7H13c-3.85,0-7-3.15-7-7V13c0-3.85,3.15-7,7-7h38C54.85,6,58,9.15,58,13z"/><path fill="#836c9b" d="M51,6H13c-3.85,0-7,3.15-7,7v38c0,3.85,3.15,7,7,7h38c3.85,0,7-3.15,7-7V13C58,9.15,54.85,6,51,6z M13,56c-2.77,0-5-2.23-5-5V13c0-2.77,2.23-5,5-5h38c2.77,0,5,2.23,5,5v38c0,2.77-2.23,5-5,5H13z"/><path fill="#efc88e" d="M43.428,21.321l-8.757,2.815l8.757,2.815c0.355,0.114,0.596,0.445,0.596,0.818v8.195	c0,0.373-0.241,0.704-0.596,0.818l-22.331,7.178c-0.554,0.178-1.122-0.235-1.122-0.818v-7.643c0-0.373,0.241-0.704,0.596-0.818	l8.757-2.815l-8.757-2.815c-0.355-0.114-0.596-0.445-0.596-0.818v-8.195c0-0.373,0.241-0.704,0.596-0.818l22.331-7.178	c0.554-0.178,1.122,0.235,1.122,0.818v7.643C44.024,20.876,43.783,21.206,43.428,21.321z"/><path fill="#836c9b" d="M20.837,44.999c-0.39,0-0.775-0.122-1.097-0.356c-0.479-0.349-0.765-0.91-0.765-1.502v-7.644 c0-0.81,0.518-1.521,1.289-1.77l5.796-1.862l-5.795-1.862c-0.772-0.249-1.29-0.96-1.29-1.771v-8.195c0-0.81,0.518-1.521,1.289-1.77 l22.332-7.178c0.562-0.182,1.186-0.081,1.663,0.268c0.479,0.349,0.765,0.91,0.765,1.502v7.644c0,0.81-0.518,1.521-1.289,1.77 h-0.001l-5.795,1.862l5.795,1.862c0.772,0.249,1.29,0.96,1.29,1.771v8.195c0,0.81-0.518,1.521-1.289,1.77L21.403,44.91 C21.219,44.97,21.027,44.999,20.837,44.999z M20.976,35.601v7.347l22.049-7.088V27.87l-11.622-3.735l11.622-3.735v-7.347 l-22.049,7.088v7.989l11.622,3.735L20.976,35.601z M43.122,20.368L43.122,20.368L43.122,20.368z"/><path fill="#8d6c9f" d="M47,48c-0.552,0-1,0.448-1,1v2c0,0.552,0.448,1,1,1s1-0.448,1-1v-2C48,48.448,47.552,48,47,48z M52,52c0.552,0,1-0.448,1-1v-2c0-0.552-0.448-1-1-1s-1,0.448-1,1v2C51,51.552,51.448,52,52,52z M32,48c-0.552,0-1,0.448-1,1v2	c0,0.552,0.448,1,1,1c0.552,0,1-0.448,1-1v-2C33,48.448,32.552,48,32,48z M27,48c-0.552,0-1,0.448-1,1v2c0,0.552,0.448,1,1,1	s1-0.448,1-1v-2C28,48.448,27.552,48,27,48z M22,48c-0.552,0-1,0.448-1,1v2c0,0.552,0.448,1,1,1s1-0.448,1-1v-2	C23,48.448,22.552,48,22,48z M17,48c-0.552,0-1,0.448-1,1v2c0,0.552,0.448,1,1,1s1-0.448,1-1v-2C18,48.448,17.552,48,17,48z M12,52	c0.552,0,1-0.448,1-1v-2c0-0.552-0.448-1-1-1s-1,0.448-1,1v2C11,51.552,11.448,52,12,52z M42,48c-0.552,0-1,0.448-1,1v2	c0,0.552,0.448,1,1,1s1-0.448,1-1v-2C43,48.448,42.552,48,42,48z M37,48c-0.552,0-1,0.448-1,1v2c0,0.552,0.448,1,1,1s1-0.448,1-1v-2	C38,48.448,37.552,48,37,48z"/></svg>