<svg xmlns="http://www.w3.org/2000/svg"  viewBox="0 0 64 64" width="64px" height="64px" baseProfile="basic"><path fill="#a9a7ae" d="M55,11.3v41.4c0,3.465-3.007,6.3-6.682,6.3H19.682C16.007,59,13,56.165,13,52.7V11.3 C13,7.835,16.007,5,19.682,5h28.636C51.993,5,55,7.835,55,11.3z"/><path fill="#7bbeeb" d="M37.34,43.359c-0.134,0.17-0.179,0.394-0.116,0.592l1.219,4.078 c0.269,0.905,0.009,1.855-0.681,2.492c-0.69,0.636-1.658,0.825-2.528,0.493l-3.979-1.515c-0.197-0.081-0.421-0.054-0.6,0.072 l-3.504,2.411c-0.421,0.296-0.896,0.439-1.38,0.439c-0.412,0-0.825-0.108-1.192-0.314c-0.825-0.457-1.3-1.318-1.255-2.259 l0.215-4.248c0.009-0.215-0.09-0.421-0.26-0.547l-3.379-2.59c-0.744-0.565-1.093-1.488-0.914-2.411 c0.188-0.914,0.86-1.64,1.766-1.882l4.105-1.111c0.206-0.054,0.376-0.215,0.448-0.412l1.407-4.015 c0.314-0.878,1.085-1.497,2.017-1.613c0.923-0.108,1.828,0.305,2.339,1.093l2.321,3.558c0.117,0.179,0.314,0.296,0.529,0.296 l4.257,0.108c0.932,0.027,1.757,0.565,2.151,1.416c0.394,0.851,0.278,1.828-0.314,2.563L37.34,43.359z"/><path fill="#7bbeeb" d="M49.61,19.94c-0.13,0.76-0.67,1.36-1.41,1.58l-2.3,0.67l-0.74,2.28c-0.24,0.73-0.86,1.25-1.62,1.36 c-0.1,0.01-0.2,0.02-0.29,0.02c-0.66,0-1.27-0.32-1.65-0.87L40.25,23l-2.4-0.01c-0.76,0-1.45-0.43-1.79-1.12 c-0.33-0.68-0.25-1.49,0.21-2.1l1.47-1.89L37,15.59c-0.23-0.73-0.04-1.51,0.51-2.05c0.56-0.53,1.35-0.7,2.07-0.44l2.25,0.8 l1.95-1.4c0.62-0.45,1.43-0.51,2.1-0.15c0.68,0.36,1.09,1.06,1.07,1.82l-0.07,2.4l1.94,1.41C49.44,18.44,49.74,19.18,49.61,19.94z"/><path fill="#8d6c9f" d="M49,4H19c-3.85,0-7,3.15-7,7v42c0,3.85,3.15,7,7,7h30c3.85,0,7-3.15,7-7V11C56,7.15,52.85,4,49,4z M19,6h30c2.77,0,5,2.23,5,5v25.124c-12.533-8.476-25.652-13.537-40-15.433V11C14,8.23,16.23,6,19,6z M49,58H19 c-2.77,0-5-2.23-5-5V22.708c14.357,1.939,27.466,7.126,40,15.835V53C54,55.77,51.77,58,49,58z"/><path fill="#8d6c9f" d="M38.199,35.072l-4.074-0.104l-2.219-3.401c-0.716-1.106-1.976-1.701-3.304-1.543 c-1.307,0.164-2.393,1.034-2.835,2.274l-1.346,3.84l-3.931,1.064c-1.267,0.339-2.22,1.354-2.488,2.658 c-0.252,1.3,0.243,2.601,1.287,3.395l3.239,2.482l-0.206,4.062c-0.062,1.322,0.616,2.541,1.766,3.179 c0.516,0.288,1.097,0.44,1.681,0.44c0.701,0,1.377-0.215,1.946-0.615l3.354-2.308l3.809,1.45c1.225,0.465,2.59,0.203,3.562-0.692 c0.972-0.895,1.34-2.24,0.961-3.513l-1.165-3.899l2.556-3.165c0.827-1.029,0.996-2.412,0.441-3.609 C40.68,35.874,39.519,35.11,38.199,35.072z M39.233,39.424l-2.678,3.315c-0.342,0.433-0.448,0.999-0.29,1.497l1.219,4.077 c0.161,0.542,0.012,1.092-0.4,1.471c-0.409,0.378-0.981,0.49-1.494,0.294l-3.955-1.505c-0.514-0.211-1.094-0.144-1.547,0.172 l-3.514,2.417c-0.446,0.314-1.025,0.343-1.512,0.069c-0.491-0.271-0.768-0.771-0.741-1.333l0.216-4.258 c0.022-0.549-0.227-1.07-0.65-1.382l-3.384-2.593c-0.437-0.332-0.643-0.878-0.539-1.412c0.112-0.548,0.513-0.977,1.048-1.12 l4.096-1.108c0.523-0.137,0.947-0.523,1.14-1.049l1.405-4.011c0.187-0.521,0.646-0.888,1.19-0.956 C28.901,32.003,28.96,32,29.018,32c0.489,0,0.942,0.241,1.211,0.656l2.321,3.558c0.305,0.47,0.815,0.75,1.341,0.75h0.001 l4.254,0.108c0.553,0.016,1.04,0.336,1.272,0.836C39.654,38.419,39.585,38.986,39.233,39.424z"/><path fill="#8d6c9f" d="M37.846,23.99l1.874,0.008l1.058,1.552c0.564,0.813,1.488,1.3,2.473,1.3 c0.12,0,0.255-0.012,0.434-0.03c1.138-0.165,2.067-0.945,2.428-2.041l0.577-1.776l1.796-0.523 c1.109-0.329,1.918-1.237,2.111-2.369v-0.001c0.192-1.125-0.26-2.249-1.188-2.937l-1.514-1.1l0.056-1.877 c0.029-1.144-0.585-2.189-1.598-2.727c-1.013-0.545-2.223-0.46-3.155,0.219l-1.525,1.096l-1.752-0.624 c-1.074-0.388-2.261-0.136-3.111,0.667c-0.814,0.801-1.106,1.975-0.76,3.071l0.577,1.786l-1.155,1.484 c-0.688,0.912-0.807,2.114-0.308,3.146C35.675,23.348,36.704,23.99,37.846,23.99z M37.059,20.384l1.796-2.308l-0.901-2.787 c-0.118-0.375-0.021-0.762,0.244-1.022c0.198-0.188,0.445-0.287,0.699-0.287c0.116,0,0.233,0.021,0.349,0.062l2.743,0.976 l2.38-1.708c0.31-0.227,0.708-0.256,1.043-0.076c0.343,0.182,0.549,0.53,0.539,0.907l-0.085,2.928l2.359,1.715 c0.321,0.238,0.467,0.599,0.4,0.989c-0.065,0.381-0.331,0.676-0.705,0.787l-2.808,0.819l-0.902,2.778 c-0.122,0.371-0.426,0.627-0.768,0.678c-0.438,0.045-0.795-0.097-1.017-0.418l-1.646-2.415L37.85,21.99 c-0.38,0-0.722-0.216-0.89-0.556C36.793,21.089,36.834,20.682,37.059,20.384z"/><path fill="#8d6c9f" d="M8,46H6c-0.552,0-1,0.448-1,1s0.448,1,1,1h2c0.552,0,1-0.448,1-1S8.552,46,8,46z"/><path fill="#8d6c9f" d="M8,41H6c-0.552,0-1,0.448-1,1s0.448,1,1,1h2c0.552,0,1-0.448,1-1S8.552,41,8,41z"/><path fill="#8d6c9f" d="M8,36H6c-0.552,0-1,0.448-1,1s0.448,1,1,1h2c0.552,0,1-0.448,1-1S8.552,36,8,36z"/><path fill="#8d6c9f" d="M8,51H6c-0.552,0-1,0.448-1,1s0.448,1,1,1h2c0.552,0,1-0.448,1-1S8.552,51,8,51z"/><path fill="#8d6c9f" d="M8,16H6c-0.552,0-1,0.448-1,1s0.448,1,1,1h2c0.552,0,1-0.448,1-1S8.552,16,8,16z"/><path fill="#8d6c9f" d="M8,21H6c-0.552,0-1,0.448-1,1s0.448,1,1,1h2c0.552,0,1-0.448,1-1S8.552,21,8,21z"/><path fill="#8d6c9f" d="M8,31H6c-0.552,0-1,0.448-1,1s0.448,1,1,1h2c0.552,0,1-0.448,1-1S8.552,31,8,31z"/><path fill="#8d6c9f" d="M8,11H6c-0.552,0-1,0.448-1,1s0.448,1,1,1h2c0.552,0,1-0.448,1-1S8.552,11,8,11z"/><path fill="#8d6c9f" d="M8,26H6c-0.552,0-1,0.448-1,1s0.448,1,1,1h2c0.552,0,1-0.448,1-1S8.552,26,8,26z"/></svg>