<svg xmlns="http://www.w3.org/2000/svg"  viewBox="0 0 64 64" width="64px" height="64px"><path fill="#e3f2ff" d="M58,52H40c-1.105,0-2-0.895-2-2V14c0-1.105,0.895-2,2-2h18c1.105,0,2,0.895,2,2v36 C60,51.105,59.105,52,58,52z"/><path fill="#c5e4fa" d="M38 12H44V52H38z"/><path fill="#ffeb9b" d="M44 34h9c.552 0 1 .448 1 1v2c0 .552-.448 1-1 1h-9c-.552 0-1-.448-1-1v-2C43 34.448 43.448 34 44 34zM44 42h9c.552 0 1 .448 1 1v2c0 .552-.448 1-1 1h-9c-.552 0-1-.448-1-1v-2C43 42.448 43.448 42 44 42z"/><path fill="#72caaf" d="M37.832,58.948c0,0.426-0.235,0.688-0.376,0.805c-0.141,0.118-0.435,0.304-0.859,0.231h0.001 l-30.69-5.416C4.901,54.39,4.17,53.519,4.17,52.496V11.504c0-1.023,0.731-1.894,1.738-2.072l30.69-5.416 c0.424-0.071,0.719,0.113,0.859,0.231c0.141,0.117,0.376,0.379,0.376,0.805L37.832,58.948L37.832,58.948z"/><path fill="#5dbc9d" d="M8.031,31c-2.221,0-4.017,1.81-4,4.031l0.137,17.465c0,1.023,0.731,1.894,1.738,2.072l30.69,5.416 l0,0c0.424,0.073,0.719-0.113,0.859-0.231c0.141-0.117,0.376-0.379,0.376-0.805l0.144-23.923c0.013-2.219-1.781-4.024-4-4.024 L8.031,31L8.031,31z"/><path fill="#97e0bb" d="M37.456,4.247c-0.141-0.118-0.435-0.302-0.859-0.231L5.907,9.432 c-1.008,0.178-1.739,1.049-1.739,2.072v4c0-1.023,0.731-1.894,1.738-2.072l30.69-5.416c0.424-0.071,0.719,0.113,0.859,0.231 c0.141,0.117,0.376,0.379,0.376,0.805v-4C37.832,4.626,37.596,4.364,37.456,4.247z"/><path fill="#faefde" d="M23,33h-7V23h10c0.552,0,1-0.448,1-1v0c0-0.552-0.448-1-1-1H15c-0.552,0-1,0.448-1,1v20 c0,0.553,0.448,1,1,1s1-0.447,1-1v-7h7c0.552,0,1-0.448,1-1l0,0C24,33.448,23.552,33,23,33z"/><path fill="#8d6c9f" d="M58,11H39V6.384c0-0.889-0.391-1.727-1.072-2.298c-0.681-0.572-1.573-0.813-2.45-0.656L6.305,8.578 C4.39,8.916,3,10.572,3,12.517v38.967c0,1.944,1.39,3.601,3.305,3.938l29.174,5.148c0.174,0.031,0.349,0.046,0.523,0.046 c0.7,0,1.381-0.244,1.926-0.702C38.609,59.343,39,58.505,39,57.616V53h19c1.654,0,3-1.346,3-3V14C61,12.346,59.654,11,58,11z M37,57.616c0,0.405-0.224,0.654-0.357,0.766s-0.416,0.289-0.817,0.22L6.652,53.453C5.695,53.284,5,52.456,5,51.483V12.517 c0-0.973,0.695-1.801,1.652-1.97l29.173-5.148c0.401-0.067,0.684,0.107,0.817,0.22C36.776,5.729,37,5.979,37,6.384V57.616z M59,50 c0,0.552-0.449,1-1,1H47h-8V13h8h11c0.551,0,1,0.448,1,1V50z"/><path fill="none" stroke="#8d6c9f" stroke-linejoin="round" stroke-miterlimit="10" stroke-width="2" d="M43 42H54V46H43zM43 34H54V38H43z"/><path fill="none" stroke="#8d6c9f" stroke-linecap="round" stroke-linejoin="round" stroke-miterlimit="10" stroke-width="2" d="M54 26L54 30 43 30 43 19 49 19"/><path fill="none" stroke="#8d6c9f" stroke-linecap="round" stroke-linejoin="round" stroke-miterlimit="10" stroke-width="2" d="M47 23L49 25 55 19"/></svg>