<svg xmlns="http://www.w3.org/2000/svg"  viewBox="0 0 64 64" width="64px" height="64px"><polyline fill="#85cbf8" points="17,29.5 21,53 41,53 45,29.5"/><path fill="#8d6c9f" d="M41,54H21c-0.487,0-0.904-0.352-0.986-0.832l-4-23.5c-0.093-0.545,0.273-1.062,0.818-1.153 c0.546-0.095,1.062,0.273,1.154,0.817L21.844,52h18.312l3.858-22.668c0.093-0.544,0.604-0.911,1.154-0.817 c0.544,0.092,0.911,0.608,0.818,1.153l-4,23.5C41.904,53.648,41.487,54,41,54z"/><ellipse cx="31" cy="29.5" fill="#85cbf8" rx="14" ry="6.5"/><path fill="#8d6c9f" d="M31,37c-8.411,0-15-3.294-15-7.5S22.589,22,31,22s15,3.294,15,7.5S39.411,37,31,37z M31,24 c-7.661,0-13,2.898-13,5.5S23.339,35,31,35s13-2.898,13-5.5S38.661,24,31,24z"/><ellipse cx="31" cy="53" fill="#e3f2ff" rx="10" ry="7"/><path fill="#8d6c9f" d="M31,61c-6.065,0-11-3.589-11-8s4.935-8,11-8s11,3.589,11,8S37.065,61,31,61z M31,47 c-4.962,0-9,2.691-9,6s4.038,6,9,6s9-2.691,9-6S35.962,47,31,47z"/><path fill="#f9dd8f" d="M35.5,18.5l-3.26,32.17C32.1,51.99,30.99,53,29.66,53h-2.79c-1.54,0-2.74-1.33-2.58-2.85L27.5,18 l5-8.5L35.5,18.5z"/><path fill="#8d6c9f" d="M29.66,54h-2.79c-1.019,0-1.994-0.434-2.675-1.19c-0.678-0.753-1.005-1.76-0.9-2.764L26.505,17.9 c0.015-0.144,0.06-0.283,0.133-0.407l5-8.5c0.199-0.339,0.579-0.535,0.967-0.487c0.39,0.041,0.72,0.306,0.844,0.678l3,9 c0.045,0.135,0.061,0.276,0.046,0.417l-3.26,32.17C33.04,52.613,31.503,54,29.66,54z M28.473,18.317L25.285,50.25 c-0.048,0.452,0.093,0.885,0.396,1.222C25.988,51.812,26.411,52,26.87,52h2.79c0.817,0,1.499-0.617,1.585-1.436l3.238-31.952 l-2.237-6.71L28.473,18.317z"/><path fill="#fff8ee" d="M35.5,18.5c-2.5,1.5-7,1-8-0.5l2.29-3.89L32.5,9.5L35.5,18.5z"/><path fill="#8d6c9f" d="M31.7,20.4c-2.156,0-4.235-0.649-5.032-1.846c-0.213-0.319-0.224-0.731-0.03-1.062l5-8.5 c0.199-0.339,0.579-0.535,0.966-0.487c0.39,0.041,0.72,0.306,0.844,0.678l3,9c0.148,0.445-0.032,0.933-0.434,1.174 C34.835,20.065,33.248,20.4,31.7,20.4z M28.773,17.809c1.076,0.591,3.612,0.898,5.501,0.177l-2.027-6.082L28.773,17.809z"/><path fill="#f283a5" d="M47.234,23.097l-10.36,29.229c-0.466,1.314-1.893,1.997-3.187,1.523	c-1.191-0.436-1.854-1.698-1.589-2.921l6.539-30.348c0.529-2.457,2.919-4.012,5.338-3.475c2.419,0.538,3.95,2.965,3.421,5.422	C47.355,22.715,47.295,22.921,47.234,23.097z"/><ellipse cx="43.25" cy="20.5" fill="#f7a1c8" rx="4.25" ry="3.5"/><path fill="#8d6c9f" d="M34.532,55.001c-0.4,0-0.802-0.07-1.189-0.212c-1.64-0.601-2.596-2.351-2.223-4.072l6.54-30.347	c0.315-1.462,1.177-2.709,2.426-3.509c1.229-0.787,2.687-1.045,4.107-0.731c2.949,0.655,4.825,3.62,4.181,6.609	c-0.049,0.226-0.121,0.474-0.194,0.686c-0.001,0.002-0.001,0.004-0.002,0.006L37.816,52.66c-0.317,0.896-0.961,1.608-1.813,2.01	C35.534,54.891,35.034,55.001,34.532,55.001z M43.01,18c-0.648,0-1.285,0.186-1.846,0.545c-0.797,0.511-1.348,1.309-1.55,2.247	l-6.54,30.348c-0.163,0.751,0.248,1.512,0.955,1.771c0.369,0.135,0.767,0.118,1.121-0.05c0.366-0.172,0.643-0.48,0.78-0.868	l10.359-29.227c0.048-0.14,0.096-0.302,0.128-0.449c0.413-1.916-0.781-3.816-2.661-4.233C43.509,18.027,43.259,18,43.01,18z M47.234,23.097h0.01H47.234z"/><path fill="#85cbf8" d="M27,28l-4.03,0.5L19,29l-0.5-3L15,15c1.01-0.68,2.37-1.07,3.79-1.27c2.8-0.39,5.88-0.06,7.21,0.27v10	L27,28z"/><path fill="#ace3ff" d="M19,29l-0.5-3L15,15l0,0c1.903-1.271,4.027-0.527,4.721,1.654l2.62,8.233	c0.036,0.151,0.073,0.302,0.109,0.453v0c0.28,1.678-0.869,3.262-2.55,3.522C19.378,28.943,19,29,19,29z"/><path fill="#8d6c9f" d="M18.999,30c-0.482,0-0.904-0.349-0.985-0.836l-0.488-2.929l-3.479-10.933	c-0.135-0.425,0.027-0.888,0.398-1.135c3.402-2.269,9.837-1.628,11.797-1.138C26.688,13.142,27,13.541,27,14v9.877l0.97,3.881	c0.069,0.277,0.017,0.571-0.146,0.808c-0.162,0.236-0.417,0.392-0.701,0.427l-8,1C19.082,29.997,19.04,30,18.999,30z M16.199,15.471	l3.254,10.227c0.014,0.045,0.025,0.092,0.033,0.139l0.342,2.053l5.928-0.741l-0.727-2.905C25.01,24.163,25,24.082,25,24v-9.183	C22.841,14.459,18.695,14.288,16.199,15.471z"/><path fill="#97e0bb" d="M30.802,49.385L27,28l-8,1l5,22l0.05-0.004C24.293,52.692,25.737,54,27.5,54 c1.933,0,3.5-1.567,3.5-3.5C31,50.108,30.921,49.737,30.802,49.385z"/><path fill="#8d6c9f" d="M27.5,55c-2.104,0-3.932-1.497-4.38-3.534c-0.042-0.075-0.075-0.157-0.095-0.244l-5-22 c-0.062-0.275-0.006-0.564,0.156-0.796s0.415-0.383,0.695-0.418l8-1c0.532-0.068,1.016,0.293,1.108,0.817l3.79,21.314 C31.926,49.611,32,50.057,32,50.5C32,52.981,29.981,55,27.5,55z M24.913,50.504c0.064,0.105,0.109,0.224,0.127,0.351 C25.215,52.077,26.273,53,27.5,53c1.378,0,2.5-1.121,2.5-2.5c0-0.245-0.048-0.505-0.146-0.795 c-0.016-0.048-0.028-0.096-0.037-0.146L26.182,29.11l-5.962,0.745L24.913,50.504z"/><g><path fill="#efc88e" d="M15,15L12,5c1-3,11-2,14-1c0,4,0,10,0,10S19,12.5,15,15z"/><path fill="#8d6c9f" d="M15,16c-0.119,0-0.238-0.021-0.353-0.064c-0.292-0.109-0.516-0.35-0.605-0.648l-3-10 c-0.059-0.197-0.056-0.408,0.009-0.604C11.645,2.903,14.067,2,18.25,2c3.19,0,6.537,0.542,8.066,1.052C26.725,3.188,27,3.569,27,4 v10c0,0.302-0.137,0.587-0.371,0.777c-0.235,0.189-0.542,0.261-0.838,0.2c-0.066-0.014-6.655-1.382-10.261,0.87 C15.369,15.948,15.185,16,15,16z M13.075,5.102l2.537,8.457c3.208-1.378,7.363-1.033,9.388-0.744V4.754 C23.407,4.357,20.721,4,18.25,4C15.259,4,13.564,4.524,13.075,5.102z"/></g><g><path fill="#e2e9f7" d="M48,6c-1.5,2-4,3.5-6,4c0,3,0,9,0,9c0,1.5,1.5,2.5,3,1l6-8C48.5,10.5,48,8,48,6z"/><path fill="#8d6c9f" d="M43.486,21.741c-0.307,0-0.61-0.059-0.899-0.179C41.623,21.163,41,20.157,41,19v-9 c0-0.459,0.312-0.858,0.757-0.97C43.37,8.627,45.761,7.319,47.2,5.4c0.258-0.344,0.709-0.486,1.116-0.349 C48.725,5.188,49,5.569,49,6c0,2.445,0.822,4.127,2.515,5.143c0.243,0.146,0.412,0.388,0.467,0.665 c0.054,0.278-0.012,0.565-0.182,0.792l-6,8c-0.028,0.038-0.059,0.074-0.093,0.107C45.03,21.384,44.245,21.741,43.486,21.741z M43,10.744V19c0,0.393,0.177,0.643,0.352,0.715c0.22,0.094,0.551-0.05,0.894-0.376l5.337-7.116 c-1.202-0.991-1.988-2.312-2.351-3.951C45.895,9.438,44.338,10.282,43,10.744z"/></g><path fill="#8d6c9f" d="M45.5,14c-0.112,0-0.225-0.019-0.336-0.059c-0.52-0.186-0.791-0.758-0.605-1.277l2.5-7	c0.186-0.521,0.76-0.791,1.278-0.605c0.52,0.186,0.791,0.758,0.605,1.277l-2.5,7C46.296,13.745,45.911,14,45.5,14z"/><g><path fill="#8d6c9f" d="M47.653,56.291c-0.056,0-0.113-0.005-0.17-0.015l-1.971-0.339c-0.544-0.094-0.91-0.61-0.816-1.154 c0.093-0.544,0.608-0.914,1.155-0.816l1.971,0.339c0.544,0.094,0.91,0.61,0.816,1.154C48.554,55.947,48.131,56.291,47.653,56.291z"/><path fill="#8d6c9f" d="M48.486,51.442c-0.056,0-0.113-0.005-0.17-0.015l-1.971-0.339c-0.544-0.094-0.91-0.61-0.816-1.155 c0.093-0.543,0.61-0.914,1.155-0.815l1.971,0.339c0.544,0.094,0.91,0.61,0.816,1.155C49.387,51.099,48.964,51.442,48.486,51.442z"/><path fill="#8d6c9f" d="M49.32,46.594c-0.056,0-0.113-0.005-0.17-0.015l-1.971-0.339c-0.544-0.094-0.91-0.61-0.816-1.154 c0.093-0.544,0.609-0.915,1.155-0.816l1.971,0.339c0.544,0.094,0.91,0.61,0.816,1.154C50.221,46.25,49.798,46.594,49.32,46.594z"/><path fill="#8d6c9f" d="M50.153,41.745c-0.056,0-0.113-0.005-0.17-0.015l-1.971-0.339c-0.544-0.094-0.91-0.61-0.816-1.154 c0.093-0.545,0.611-0.907,1.155-0.816l1.971,0.339c0.544,0.094,0.91,0.61,0.816,1.154C51.054,41.401,50.631,41.745,50.153,41.745z"/><path fill="#8d6c9f" d="M50.986,36.896c-0.056,0-0.113-0.005-0.17-0.015l-1.971-0.339c-0.544-0.094-0.91-0.61-0.816-1.155 c0.093-0.544,0.609-0.906,1.155-0.815l1.971,0.339c0.544,0.094,0.91,0.61,0.816,1.155C51.887,36.553,51.464,36.896,50.986,36.896z"/><path fill="#8d6c9f" d="M51.82,32.048c-0.056,0-0.113-0.005-0.17-0.015l-1.971-0.339c-0.544-0.094-0.91-0.61-0.816-1.154 c0.093-0.545,0.608-0.908,1.155-0.816l1.971,0.339c0.544,0.094,0.91,0.61,0.816,1.154C52.721,31.704,52.298,32.048,51.82,32.048z"/></g><path fill="#8d6c9f" d="M31,37c-8.411,0-15-3.294-15-7.5c0-0.553,0.448-1,1-1s1,0.447,1,1c0,2.602,5.339,5.5,13,5.5	s13-2.898,13-5.5c0-0.553,0.448-1,1-1s1,0.447,1,1C46,33.706,39.411,37,31,37z"/><g><path fill="#f9dd8f" d="M34.11,14.33c-1.74,0.47-3.22,0.22-4.32-0.22L32.5,9.5L34.11,14.33z"/><path fill="#8d6c9f" d="M32.255,15.581c-1.169,0-2.138-0.264-2.836-0.543c-0.271-0.108-0.48-0.33-0.575-0.605 s-0.063-0.579,0.084-0.83l2.71-4.609c0.199-0.339,0.579-0.535,0.966-0.487c0.39,0.041,0.72,0.306,0.844,0.678l1.61,4.83 c0.087,0.262,0.062,0.547-0.068,0.789c-0.13,0.243-0.354,0.421-0.62,0.493C33.612,15.5,32.903,15.581,32.255,15.581z M31.305,13.505c0.489,0.085,0.987,0.101,1.493,0.053l-0.551-1.654L31.305,13.505z"/></g></svg>