<svg xmlns="http://www.w3.org/2000/svg"  viewBox="0 0 64 64" width="64px" height="64px"><path fill="#e2e9f7" d="M13,7h38c3.314,0,6,2.686,6,6v38c0,3.314-2.686,6-6,6H13c-3.314,0-6-2.686-6-6V13	C7,9.686,9.686,7,13,7z"/><path fill="#ced9ed" d="M11,57h42c2.209,0,4-1.791,4-4l0,0c0-1.657-1.343-3-3-3H10c-1.657,0-3,1.343-3,3l0,0	C7,55.209,8.791,57,11,57z"/><path fill="#8d6c9f" d="M51,58H13c-3.859,0-7-3.141-7-7V13c0-3.859,3.141-7,7-7h38c3.859,0,7,3.141,7,7v38	C58,54.859,54.859,58,51,58z M13,8c-2.757,0-5,2.243-5,5v38c0,2.757,2.243,5,5,5h38c2.757,0,5-2.243,5-5V13c0-2.757-2.243-5-5-5H13z"/><path fill="#8d6c9f" d="M17,52c0.552,0,1-0.448,1-1v-2c0-0.552-0.448-1-1-1s-1,0.448-1,1v2C16,51.552,16.448,52,17,52z M12,48c-0.552,0-1,0.448-1,1v2c0,0.552,0.448,1,1,1s1-0.448,1-1v-2C13,48.448,12.552,48,12,48z M32,52c0.552,0,1-0.448,1-1v-2	c0-0.552-0.448-1-1-1s-1,0.448-1,1v2C31,51.552,31.448,52,32,52z M37,52c0.552,0,1-0.448,1-1v-2c0-0.552-0.448-1-1-1s-1,0.448-1,1v2	C36,51.552,36.448,52,37,52z M42,52c0.552,0,1-0.448,1-1v-2c0-0.552-0.448-1-1-1s-1,0.448-1,1v2C41,51.552,41.448,52,42,52z M47,52	c0.552,0,1-0.448,1-1v-2c0-0.552-0.448-1-1-1s-1,0.448-1,1v2C46,51.552,46.448,52,47,52z M52,48c-0.552,0-1,0.448-1,1v2	c0,0.552,0.448,1,1,1s1-0.448,1-1v-2C53,48.448,52.552,48,52,48z M22,52c0.552,0,1-0.448,1-1v-2c0-0.552-0.448-1-1-1s-1,0.448-1,1v2	C21,51.552,21.448,52,22,52z M27,52c0.552,0,1-0.448,1-1v-2c0-0.552-0.448-1-1-1s-1,0.448-1,1v2C26,51.552,26.448,52,27,52z"/><circle cx="32" cy="30" r="3" fill="#acb7d0"/><path fill="#8d6c9f" d="M32,34c-2.206,0-4-1.794-4-4s1.794-4,4-4s4,1.794,4,4S34.206,34,32,34z M32,28c-1.103,0-2,0.897-2,2	s0.897,2,2,2s2-0.897,2-2S33.103,28,32,28z"/><path fill="#8d6c9f" d="M19.5,18h-4c-0.276,0-0.5-0.224-0.5-0.5v-1c0-0.828,0.672-1.5,1.5-1.5h2c0.828,0,1.5,0.672,1.5,1.5v1	C20,17.776,19.776,18,19.5,18z"/><path fill="#acb7d0" d="M32,37c-3.866,0-7-3.134-7-7s3.134-7,7-7s7,3.134,7,7S35.866,37,32,37z M48,20h-6l-3.477-4.109	C38.152,15.334,37.528,15,36.859,15H27c-0.669,0-1.293,0.334-1.664,0.891L22,20h-6c-1.105,0-2,0.895-2,2v17c0,1.105,0.895,2,2,2h32	c1.105,0,2-0.895,2-2V22C50,20.895,49.105,20,48,20z"/><path fill="#b5c4e0" d="M36.39,18h-8.78c-1.811,0-2.789-2.125-1.61-3.5l0,0h12l0,0C39.179,15.875,38.202,18,36.39,18z"/><path fill="#8d6c9f" d="M48,42H16c-1.654,0-3-1.346-3-3V22c0-1.654,1.346-3,3-3h5.523l3.036-3.739	C25.062,14.499,25.995,14,27,14h9.859c0.984,0,1.899,0.479,2.461,1.284L42.464,19H48c1.654,0,3,1.346,3,3v17	C51,40.654,49.654,42,48,42z M16,21c-0.552,0-1,0.448-1,1v17c0,0.552,0.448,1,1,1h32c0.552,0,1-0.448,1-1V22c0-0.552-0.448-1-1-1h-6	c-0.294,0-0.573-0.13-0.764-0.354l-3.477-4.109c-0.024-0.028-0.047-0.06-0.068-0.091C37.506,16.166,37.194,16,36.859,16H27	c-0.335,0-0.646,0.166-0.832,0.445l-3.392,4.185C22.587,20.864,22.302,21,22,21H16z M32,38c-4.411,0-8-3.589-8-8s3.589-8,8-8	s8,3.589,8,8S36.411,38,32,38z M32,24c-3.309,0-6,2.691-6,6s2.691,6,6,6s6-2.691,6-6S35.309,24,32,24z"/><circle cx="42.5" cy="24.5" r="1.5" fill="#f9e3ae"/></svg>