<svg xmlns="http://www.w3.org/2000/svg"  viewBox="0 0 64 64" width="64px" height="64px"><path fill="#f9e3ae" d="M13,20v7h6V19A12,12,0,0,1,31,7h2A12,12,0,0,1,45,19v2h6V20A19,19,0,0,0,32,1h0A19,19,0,0,0,13,20Z"/><path fill="#f5c872" d="M29 1H35V7H29z"/><rect width="50" height="34" x="7" y="27" fill="#c2cde7" rx="3" ry="3"/><path fill="#acb7d0" d="M11,42H53a4,4,0,0,1,4,4V58a3,3,0,0,1-3,3H10a3,3,0,0,1-3-3V46A4,4,0,0,1,11,42Z"/><path fill="#f5c872" d="M32 33A9 9 0 1 0 32 51A9 9 0 1 0 32 33Z"/><path fill="#ffeb9b" d="M32 37A5 5 0 1 0 32 47A5 5 0 1 0 32 37Z"/><path fill="#8d6c9f" d="M55,26H20V19A11,11,0,0,1,31,8h2A11,11,0,0,1,44,19a3,3,0,0,0,3,3h2a3,3,0,0,0,3-3A19,19,0,0,0,33,0H31A19,19,0,0,0,12,19v7H9a3,3,0,0,0-3,3V59a3,3,0,0,0,3,3H55a3,3,0,0,0,3-3V29A3,3,0,0,0,55,26Zm-5-7a1,1,0,0,1-1,1H47a1,1,0,0,1-1-1A13,13,0,0,0,36,6.36V2.28A17,17,0,0,1,50,19ZM33,2c.34,0,.67,0,1,.05v4C33.67,6,33.34,6,33,6H31c-.34,0-.67,0-1,.05v-4c.33,0,.66-.05,1-.05ZM14,19A17,17,0,0,1,28,2.28V6.36A13,13,0,0,0,18,19v7H14ZM56,59a1,1,0,0,1-1,1H9a1,1,0,0,1-1-1V29a1,1,0,0,1,1-1H55a1,1,0,0,1,1,1Z"/><path fill="#8d6c9f" d="M32,52A10,10,0,1,0,22,42,10,10,0,0,0,32,52Zm0-18a8,8,0,1,1-8,8A8,8,0,0,1,32,34Z"/><path fill="#8d6c9f" d="M32 38.83a1 1 0 0 0 1-1V36a1 1 0 0 0-2 0v1.83A1 1 0 0 0 32 38.83zM32 48.83a1 1 0 0 0 1-1V46a1 1 0 0 0-2 0v1.83A1 1 0 0 0 32 48.83zM28.83 42a1 1 0 0 0-1-1H26a1 1 0 0 0 0 2h1.83A1 1 0 0 0 28.83 42zM35.17 42a1 1 0 0 0 1 1H38a1 1 0 0 0 0-2H36.17A1 1 0 0 0 35.17 42zM28.41 39.74a1 1 0 0 0 1.41-1.41L28.52 37a1 1 0 0 0-1.41 1.41zM35.48 46.81a1 1 0 0 0 1.41-1.41l-1.3-1.3a1 1 0 0 0-1.41 1.41zM28.41 44.21l-1.3 1.3a1 1 0 1 0 1.41 1.41l1.3-1.3a1 1 0 0 0-1.41-1.41zM35 40a1 1 0 0 0 .71-.29l1.3-1.3A1 1 0 0 0 35.59 37l-1.3 1.3A1 1 0 0 0 35 40zM53 56H49a1 1 0 0 0 0 2h4a1 1 0 0 0 0-2zM45 56H11a1 1 0 0 0 0 2H45a1 1 0 0 0 0-2z"/></svg>