<svg xmlns="http://www.w3.org/2000/svg"  viewBox="0 0 64 64" width="64px" height="64px"><path fill="#9fddff" d="M31.56 25.61L30.26 34l-1.43 9.22a2.2 2.2 0 0 1-2.16 1.9H24.09a2.19 2.19 0 0 1-1.64-.76 2.32 2.32 0 0 1-.52-1.84L23.25 34l1-6.56L21.68 34l-3.79 9.61a2.18 2.18 0 0 1-2 1.4H12.4a2.2 2.2 0 0 1-2.12-1.69L8 34 6.49 28a1.47 1.47 0 0 0-.71-1A17.54 17.54 0 0 0 1.9 25.45a1.21 1.21 0 0 1 .37-2.38H9.92a3.17 3.17 0 0 1 3.39 2.69l1.47 8 3.48-10.14a1 1 0 0 1 1-.68h4.65a1 1 0 0 1 1 1.17l0 .24a2.17 2.17 0 0 1 2-1.39h2.57a2.16 2.16 0 0 1 1.65.76A2.31 2.31 0 0 1 31.56 25.61zM63 42.42L61.29 34l-1.83-9.19A2.21 2.21 0 0 0 57.32 23h-3A3.31 3.31 0 0 0 51 25.13L47.51 34l-1.62 4c0-.15 0-.31 0-.47A5.83 5.83 0 0 0 44.74 34a12 12 0 0 0-3.88-3c-.71-.4-1.91-1.08-1.91-1.4s1-.69 2-.69a8.64 8.64 0 0 1 2.47.37 1.93 1.93 0 0 0 .63.1 2.15 2.15 0 0 0 2.12-1.84l.3-1.8a2.2 2.2 0 0 0-1.53-2.5 13.83 13.83 0 0 0-3.77-.58c-3.23 0-9.34 1.6-9.34 7.66A5.53 5.53 0 0 0 33.13 34a11.74 11.74 0 0 0 3.47 2.56c1.08.61 2.11 1.18 2.11 1.74 0 .73-1.49.92-2.36.92a9.15 9.15 0 0 1-3.17-.58 2.1 2.1 0 0 0-.82-.16 2.17 2.17 0 0 0-2.13 1.83l-.31 1.88a2.21 2.21 0 0 0 1.44 2.46 15.2 15.2 0 0 0 5 .82c2.53 0 5.88-.92 7.86-3.2a2.27 2.27 0 0 0 .31 1.89 2.18 2.18 0 0 0 1.8 1h2.57A2.2 2.2 0 0 0 51 43.63l.47-1.35a.2.2 0 0 1 .17-.15h4.53a.22.22 0 0 1 .19.19l.19 1a2.22 2.22 0 0 0 2.15 1.81h2.14a2.13 2.13 0 0 0 1.67-.8A2.28 2.28 0 0 0 63 42.42zM53.62 36l.7-2 .24-.7.14.7.39 2z"/><path fill="#85cbf8" d="M8 34H21.68l-3.79 9.61a2.18 2.18 0 0 1-2 1.4H12.4a2.2 2.2 0 0 1-2.12-1.69zM30.26 34l-1.43 9.22a2.2 2.2 0 0 1-2.16 1.9H24.09a2.19 2.19 0 0 1-1.64-.76 2.32 2.32 0 0 1-.52-1.84L23.25 34zM62.48 44.32a2.13 2.13 0 0 1-1.67.8H58.67a2.22 2.22 0 0 1-2.15-1.81l-.19-1a.22.22 0 0 0-.19-.19H51.61a.2.2 0 0 0-.17.15L51 43.63a2.2 2.2 0 0 1-2.06 1.49H46.34a2.18 2.18 0 0 1-1.8-1 2.27 2.27 0 0 1-.31-1.89c-2 2.28-5.33 3.2-7.86 3.2a15.2 15.2 0 0 1-5-.82 2.21 2.21 0 0 1-1.44-2.46l.31-1.88a2.17 2.17 0 0 1 2.13-1.83 2.1 2.1 0 0 1 .82.16 9.15 9.15 0 0 0 3.17.58c.87 0 2.36-.19 2.36-.92 0-.56-1-1.13-2.11-1.74A11.74 11.74 0 0 1 33.13 34H61.29L63 42.42A2.28 2.28 0 0 1 62.48 44.32z"/><path fill="#8d6c9f" d="M54.67,31.14a.58.58,0,0,0-.56.41l-1.61,4.62a.62.62,0,0,0,.56.84h2.51a.62.62,0,0,0,.58-.75l-.9-4.62A.59.59,0,0,0,54.67,31.14Z"/><path fill="#8d6c9f" d="M63.94 42.23L60.44 24.61A3.22 3.22 0 0 0 57.32 22h-3a4.35 4.35 0 0 0-4.18 2.81l-3.88 9.71c-1.12-2.28-3.36-3.55-4.87-4.4L41 29.9a7.57 7.57 0 0 1 2.15.33 3.13 3.13 0 0 0 .94.14 3.16 3.16 0 0 0 3.11-2.68l.3-1.8a3.21 3.21 0 0 0-2.23-3.62 15 15 0 0 0-4.05-.63c-2.43 0-6.33.83-8.58 3.51a3.28 3.28 0 0 0-.79-2A3.16 3.16 0 0 0 29.39 22H26.82a3.14 3.14 0 0 0-1.66.48 2 2 0 0 0-1.3-.49H19.21a2 2 0 0 0-1.89 1.35l-2.24 6.52-.78-4.3a4.21 4.21 0 0 0-4.37-3.5H2.27a2.21 2.21 0 0 0-.63 4.34 16.92 16.92 0 0 1 3.65 1.52.5.5 0 0 1 .23.32L9.31 43.56A3.19 3.19 0 0 0 12.4 46h3.46a3.17 3.17 0 0 0 3-2l3.09-7.84-1 6.23A3.29 3.29 0 0 0 21.69 45a3.16 3.16 0 0 0 2.4 1.11h2.57a3.17 3.17 0 0 0 2.81-1.7A3.15 3.15 0 0 0 31 45.6a16.51 16.51 0 0 0 5.34.87 12.17 12.17 0 0 0 7.08-2.2 3.29 3.29 0 0 0 .26.46 3.17 3.17 0 0 0 2.62 1.4h2.57a3.2 3.2 0 0 0 3-2.16l.29-.82h3.27l.07.37a3.21 3.21 0 0 0 3.13 2.62h2.14A3.16 3.16 0 0 0 63.26 45 3.28 3.28 0 0 0 63.94 42.23zm-47 1a1.19 1.19 0 0 1-1.09.77H12.4a1.2 1.2 0 0 1-1.15-.93L7.46 27.77a2.49 2.49 0 0 0-1.2-1.59 19 19 0 0 0-4.1-1.7c-.19-.05-.28-.41.11-.41H9.92a2.19 2.19 0 0 1 2.4 1.81l1.75 9.65a.59.59 0 0 0 .58.51.58.58 0 0 0 .55-.41l4-11.63h4.65l0 .13a3.33 3.33 0 0 0-.17.63l-.37 2.4zM30.57 25.46L27.84 43.07a1.21 1.21 0 0 1-1.17 1.05H24.09a1.23 1.23 0 0 1-1.17-1.45l2.34-15.11s0-.1 0-.15l.47-2.71A1.18 1.18 0 0 1 26.82 24h2.57A1.23 1.23 0 0 1 30.57 25.46zm.83 7.68c1 2.24 3.16 3.43 4.71 4.3.36.2.84.47 1.2.7a5 5 0 0 1-1 .08 7.92 7.92 0 0 1-2.8-.52 3.18 3.18 0 0 0-1.19-.23 3.14 3.14 0 0 0-1.71.5zm5 11.33a14.53 14.53 0 0 1-4.69-.76 1.22 1.22 0 0 1-.77-1.36l.31-1.88a1.16 1.16 0 0 1 1.15-1 1.19 1.19 0 0 1 .44.09 10 10 0 0 0 3.54.66c1.81 0 3.37-.56 3.37-1.93 0-2.73-6.89-2.79-6.89-8 0-5.52 5.87-6.66 8.35-6.66a13 13 0 0 1 3.49.55 1.21 1.21 0 0 1 .82 1.37l-.3 1.8a1.17 1.17 0 0 1-1.13 1 1.13 1.13 0 0 1-.34-.05 9.56 9.56 0 0 0-2.77-.43c-1.61 0-3 .48-3 1.7 0 2.27 7 2.76 7 8C44.9 42.62 39.77 44.47 36.37 44.47zm24.44-.35H58.67a1.21 1.21 0 0 1-1.17-1l-.19-1a1.21 1.21 0 0 0-1.17-1H51.61a1.19 1.19 0 0 0-1.12.82L50 43.3a1.19 1.19 0 0 1-1.12.82H46.34a1.25 1.25 0 0 1-1.1-1.73L52 25.5a2.31 2.31 0 0 1 2.3-1.5h3a1.21 1.21 0 0 1 1.17 1L62 42.62A1.24 1.24 0 0 1 60.81 44.12zM9 20.06a1 1 0 0 0 1-1v-2a1 1 0 0 0-2 0v2A1 1 0 0 0 9 20.06zM4 20.06a1 1 0 0 0 1-1v-2a1 1 0 0 0-2 0v2A1 1 0 0 0 4 20.06zM14 20.06a1 1 0 0 0 1-1v-2a1 1 0 0 0-2 0v2A1 1 0 0 0 14 20.06zM19 20.06a1 1 0 0 0 1-1v-2a1 1 0 0 0-2 0v2A1 1 0 0 0 19 20.06zM24 20.06a1 1 0 0 0 1-1v-2a1 1 0 0 0-2 0v2A1 1 0 0 0 24 20.06zM29 20.06a1 1 0 0 0 1-1v-2a1 1 0 0 0-2 0v2A1 1 0 0 0 29 20.06zM34 20.06a1 1 0 0 0 1-1v-2a1 1 0 0 0-2 0v2A1 1 0 0 0 34 20.06zM39 20.06a1 1 0 0 0 1-1v-2a1 1 0 0 0-2 0v2A1 1 0 0 0 39 20.06zM44 20.06a1 1 0 0 0 1-1v-2a1 1 0 0 0-2 0v2A1 1 0 0 0 44 20.06zM49 20.06a1 1 0 0 0 1-1v-2a1 1 0 0 0-2 0v2A1 1 0 0 0 49 20.06zM54 20.06a1 1 0 0 0 1-1v-2a1 1 0 0 0-2 0v2A1 1 0 0 0 54 20.06zM59 20.06a1 1 0 0 0 1-1v-2a1 1 0 0 0-2 0v2A1 1 0 0 0 59 20.06z"/></svg>