<svg xmlns="http://www.w3.org/2000/svg"  viewBox="0 0 64 64" width="64px" height="64px"><rect width="54" height="40" x=".97" y="14.88" fill="#bbdef9" rx="3" ry="3"/><path fill="#def0ff" d="M35.52 54.88L55 35.4 55 17.4 17.52 54.88 35.52 54.88zM6.26 54.88h6.56l39-39a3 3 0 0 0-2.26-1H46.26z"/><path fill="#e3f2ff" d="M37.52,14.88l-37,37c.53.86-.09,3,1,3l40-40Z"/><path fill="#97e0bb" d="M41,55,27.76,41.9a2,2,0,0,0-2.82,0l-13,13Z"/><path fill="#72caaf" d="M56,50.88H55.3v-2L43.55,36.52a1,1,0,0,0-1.38,0L27.84,50.88H1v1a3,3,0,0,0,3,3H54l.15,0,.51.06a3.05,3.05,0,0,0,.53-1,3,3,0,0,0,.8-2Z"/><path fill="#ffeb9b" d="M14.97 24.88A4 4 0 1 0 14.97 32.879999999999995A4 4 0 1 0 14.97 24.88Z"/><path fill="#ed7899" d="M61.51,24a1,1,0,0,1,1,1v1.56C62.5,36.39,56,43,46.25,43A17.11,17.11,0,0,1,29,26.06,17.11,17.11,0,0,1,46.25,9.12a17.44,17.44,0,0,1,10.45,3.46,1,1,0,0,1,.17,1.48L53.8,17.53a1,1,0,0,1-1.3.17,10.68,10.68,0,0,0-6.25-2,10.38,10.38,0,1,0,0,20.75c4.87,0,8.07-2.3,9.16-6.44H48a1,1,0,0,1-1-1V25a1,1,0,0,1,1-1Z"/><path fill="#f9e3ae" d="M61.51,24a1,1,0,0,1,1,1v1.56C62.5,36.39,56,43,46.25,43A17.11,17.11,0,0,1,29,26.06c0-3.76,1.69-7,3.38-10.06.07-.14,4.76,3.77,4.62,4a10.9,10.9,0,0,0-1.32,6.06A10.48,10.48,0,0,0,46.25,36.44c4.87,0,8.07-2.3,9.16-6.44H48a1,1,0,0,1-1-1V25a1,1,0,0,1,1-1Z"/><path fill="#72caaf" d="M61.51,24a1,1,0,0,1,1,1v1.56C62.5,36.39,56,43,46.25,43A17.31,17.31,0,0,1,31,34c-.63-1.16,1.07-1.23,2.5-2.08s2.71-2.51,3-1.89a10.58,10.58,0,0,0,9.77,6.44c4.87,0,8.07-2.3,9.16-6.44H48a1,1,0,0,1-1-1V25a1,1,0,0,1,1-1Z"/><path fill="#85cbf8" d="M61.51,24a1,1,0,0,1,1,1v1.56a16.67,16.67,0,0,1-4.18,11.59c-1.43,1.54-1.8-.31-3-1.52s-3.09-1.79-2.28-2.56A8.47,8.47,0,0,0,55.41,30H48a1,1,0,0,1-1-1V25a1,1,0,0,1,1-1Z"/><path fill="#8d6c9f" d="M20.07 29a5 5 0 1 0-5 5A5 5 0 0 0 20.07 29zm-5 3a3 3 0 1 1 3-3A3 3 0 0 1 15.07 32zM14 37v2a1 1 0 0 0 2 0V37a1 1 0 0 0-2 0zM15 22a1 1 0 0 0 1-1V19a1 1 0 0 0-2 0v2A1 1 0 0 0 15 22zM22 29a1 1 0 0 0 1 1h2a1 1 0 0 0 0-2H23A1 1 0 0 0 22 29zM5 30H7a1 1 0 0 0 0-2H5a1 1 0 1 0 0 2zM19.13 38.16a1 1 0 0 0 .87.5.84.84 0 0 0 .5-.14 1 1 0 0 0 .37-1.37l-1-1.73a1 1 0 0 0-1.73 1zM10.13 22.57a1 1 0 0 0 .87.5.84.84 0 0 0 .5-.14 1 1 0 0 0 .37-1.37l-1-1.73a1 1 0 0 0-1.73 1zM21.06 25.5a1.05 1.05 0 0 0 .88.53.84.84 0 0 0 .48-.16l1.73-1a1 1 0 1 0-1-1.73l-1.73 1A1 1 0 0 0 21.06 25.5zM7.57 32.13l-1.73 1a1 1 0 0 0-.37 1.37 1.05 1.05 0 0 0 .88.53.84.84 0 0 0 .48-.16l1.73-1a1 1 0 1 0-1-1.73zM21.43 33.87l1.73 1a.84.84 0 0 0 .48.16 1.05 1.05 0 0 0 .88-.53 1 1 0 0 0-.37-1.37l-1.73-1a1 1 0 1 0-1 1.73zM5.84 24.87l1.73 1a.84.84 0 0 0 .48.16 1.05 1.05 0 0 0 .88-.53 1 1 0 0 0-.37-1.37l-1.73-1a1 1 0 1 0-1 1.73zM18.5 22.94a.84.84 0 0 0 .5.14 1 1 0 0 0 .87-.5l1-1.73a1 1 0 1 0-1.73-1l-1 1.73A1 1 0 0 0 18.5 22.94zM11.5 35.06a1 1 0 0 0-1.37.37l-1 1.73a1 1 0 0 0 .37 1.37.84.84 0 0 0 .5.14 1 1 0 0 0 .87-.5l1-1.73A1 1 0 0 0 11.5 35.06zM9 50H5a1 1 0 0 0 0 2H9a1 1 0 0 0 0-2z"/><path fill="#8d6c9f" d="M61.51,23H56V16.54l1.61-1.81a2,2,0,0,0,.49-1.52,2,2,0,0,0-.81-1.43,18.54,18.54,0,0,0-11-3.66A18.36,18.36,0,0,0,32.75,14H3a3,3,0,0,0-3,3V53a3,3,0,0,0,3,3H53a3,3,0,0,0,3-3V41.38c4.7-2.94,7.5-8.19,7.5-14.82V25A2,2,0,0,0,61.51,23ZM48,31h6v0c-1.25,2.9-3.9,4.42-7.75,4.42a9.38,9.38,0,1,1,0-18.76,9.62,9.62,0,0,1,5.66,1.82,2,2,0,0,0,2.09.12V23H48a2,2,0,0,0-2,2v4A2,2,0,0,0,48,31ZM30,26.06A15.59,15.59,0,0,1,32.26,18L36,20.8a11.13,11.13,0,0,0-.82,8.56l-3.89,2.92A15.59,15.59,0,0,1,30,26.06ZM46.25,10.12a16.52,16.52,0,0,1,9.86,3.28l-3,3.48a11.67,11.67,0,0,0-16,2.24l-3.7-2.78A16.33,16.33,0,0,1,46.25,10.12ZM54,53a1,1,0,0,1-1,1H3a1,1,0,0,1-1-1V17a1,1,0,0,1,1-1H31.15A17.6,17.6,0,0,0,28,26.06,18.12,18.12,0,0,0,46.25,44,19,19,0,0,0,54,42.45Zm0-12.81a16.7,16.7,0,0,1-21.77-6.12L36,31.26a11.6,11.6,0,0,0,10.28,6.18,11.17,11.17,0,0,0,6.56-1.85l3.51,3c-.11.09-.21.2-.33.29A13.45,13.45,0,0,1,54,40.19Zm7.5-13.63A15.69,15.69,0,0,1,57.77,37.2l-3.45-3A9.19,9.19,0,0,0,56,31.41a10.49,10.49,0,0,0,.38-1.16,1,1,0,0,0-.18-.86,1,1,0,0,0-.2-.2,1,1,0,0,0-.59-.19H48V25H61.51Z"/><path fill="#8d6c9f" d="M36.29,44.12a1,1,0,0,0-1.41-1.41l-2.39,2.39L29.1,41.7a2.9,2.9,0,0,0-4.2,0L16.6,50H13a1,1,0,0,0-1,1,1,1,0,0,0,1,1H51a1,1,0,1,0,0-2H30.41Zm-10-1a1,1,0,0,1,1.4,0l3.39,3.39L27.59,50H19.4Z"/></svg>