<svg xmlns="http://www.w3.org/2000/svg"  viewBox="0 0 64 64" width="64px" height="64px"><path fill="#85cbf8" d="M36.83,57.95a1.05,1.05,0,0,1-1.24,1h0L4.9,53.57A2.1,2.1,0,0,1,3.16,51.5v-41A2.1,2.1,0,0,1,4.9,8.43L35.59,3a1.05,1.05,0,0,1,1.24,1Z"/><path fill="#6fc6f0" d="M7,30a4,4,0,0,0-4,4L3.16,51.5A2.1,2.1,0,0,0,4.9,53.57L35.59,59h0a1.05,1.05,0,0,0,1.24-1L37,34a4,4,0,0,0-4-4Z"/><path fill="#9fddff" d="M36.45,3.25A1,1,0,0,0,35.59,3L4.9,8.43A2.1,2.1,0,0,0,3.16,10.5v4A2.1,2.1,0,0,1,4.9,12.43L35.59,7a1.05,1.05,0,0,1,1.24,1v-4A1,1,0,0,0,36.45,3.25Z"/><path fill="#faefde" d="M37,13H59a2,2,0,0,1,2,2V47a2,2,0,0,1-2,2H37"/><path fill="#fff7f0" d="M37,13H59a2,2,0,0,1,2,2v6a2,2,0,0,1-2,2L42.58,31.58,37,29.17Z"/><path fill="#efd8be" d="M60,49H37V44H57a4,4,0,0,1,4,4v.23C61,48.78,60.55,49,60,49Z"/><path fill="#fff" d="M37.83,13H59a2,2,0,0,1,2,2h0a2,2,0,0,1-2,2H37.83C36.72,17,36.72,13,37.83,13Z"/><path fill="#8d6c9f" d="M43 42a1 1 0 0 0-1 1v2a1 1 0 0 0 2 0V43A1 1 0 0 0 43 42zM48 46a1 1 0 0 0 1-1V43a1 1 0 0 0-2 0v2A1 1 0 0 0 48 46zM53 46a1 1 0 0 0 1-1V43a1 1 0 0 0-2 0v2A1 1 0 0 0 53 46zM58 46a1 1 0 0 0 1-1V43a1 1 0 0 0-2 0v2A1 1 0 0 0 58 46z"/><path fill="#8d6c9f" d="M59,12H38V5.38a3,3,0,0,0-3.52-3L5.3,7.58A4,4,0,0,0,2,11.52v39a4,4,0,0,0,3.3,3.94l29.17,5.15a3,3,0,0,0,3.52-3V50H59a3,3,0,0,0,3-3V15A3,3,0,0,0,59,12ZM36,56.62a1,1,0,0,1-1.17,1L5.65,52.45a2,2,0,0,1-1.65-2v-39a2,2,0,0,1,1.65-2L34.83,4.4a1,1,0,0,1,1.17,1ZM60,47a1,1,0,0,1-1,1H38V46a1,1,0,0,0,1-1V43a1,1,0,0,0-1-1V30.65l2.66,1.47a4,4,0,0,0,3.85,0L60,23.67Zm0-25.61-16.45,9a2,2,0,0,1-1.92,0l-3.63-2V14H59a1,1,0,0,1,1,1Z"/><path fill="#faefde" d="M20,42a6,6,0,0,1-6-6V26a6,6,0,0,1,12,0V36A6,6,0,0,1,20,42Zm0-20a4,4,0,0,0-4,4V36a4,4,0,0,0,8,0V26A4,4,0,0,0,20,22Z"/></svg>