<svg xmlns="http://www.w3.org/2000/svg"  viewBox="0 0 64 64" width="64px" height="64px"><path fill="#72caaf" d="M57,13v38c0,3.31-2.69,6-6,6H13c-3.31,0-6-2.69-6-6V13c0-3.31,2.69-6,6-6h38C54.31,7,57,9.69,57,13z"/><path d="M51,58H13c-3.859,0-7-3.141-7-7V13c0-3.859,3.141-7,7-7h38c3.859,0,7,3.141,7,7v38C58,54.859,54.859,58,51,58z M13,8 c-2.757,0-5,2.243-5,5v38c0,2.757,2.243,5,5,5h38c2.757,0,5-2.243,5-5V13c0-2.757-2.243-5-5-5H13z"/><path fill="#5dbc9d" d="M11,56h42c2-1,2-1,4-3l0,0c0-1.657-1.343-3-3-3H10c-1.657,0-3,1.343-3,3l0,0C9,55,9,55,11,56z"/><path fill="#97e0bb" d="M57,13v19.67C54.04,35.8,49.87,39,46,39c-7,0-12.5-5.5-14-7c-1.5,1.5-7,7-14,7	c-3.87,0-8.04-3.2-11-6.33V13c0-3.31,2.69-6,6-6h38C54.31,7,57,9.69,57,13z"/><path fill="#8d6c9f" d="M51,58H13c-3.859,0-7-3.141-7-7V13c0-3.859,3.141-7,7-7h38c3.859,0,7,3.141,7,7v38	C58,54.859,54.859,58,51,58z M13,8c-2.757,0-5,2.243-5,5v38c0,2.757,2.243,5,5,5h38c2.757,0,5-2.243,5-5V13c0-2.757-2.243-5-5-5H13z"/><path fill="#8d6c9f" d="M47,48c-0.552,0-1,0.448-1,1v2c0,0.552,0.448,1,1,1s1-0.448,1-1v-2C48,48.448,47.552,48,47,48z M52,52c0.552,0,1-0.448,1-1v-2c0-0.552-0.448-1-1-1s-1,0.448-1,1v2C51,51.552,51.448,52,52,52z M32,48c-0.552,0-1,0.448-1,1v2	c0,0.552,0.448,1,1,1s1-0.448,1-1v-2C33,48.448,32.552,48,32,48z M27,48c-0.552,0-1,0.448-1,1v2c0,0.552,0.448,1,1,1s1-0.448,1-1v-2	C28,48.448,27.552,48,27,48z M22,48c-0.552,0-1,0.448-1,1v2c0,0.552,0.448,1,1,1s1-0.448,1-1v-2C23,48.448,22.552,48,22,48z M17,48	c-0.552,0-1,0.448-1,1v2c0,0.552,0.448,1,1,1s1-0.448,1-1v-2C18,48.448,17.552,48,17,48z M12,52c0.552,0,1-0.448,1-1v-2	c0-0.552-0.448-1-1-1s-1,0.448-1,1v2C11,51.552,11.448,52,12,52z M42,48c-0.552,0-1,0.448-1,1v2c0,0.552,0.448,1,1,1s1-0.448,1-1v-2	C43,48.448,42.552,48,42,48z M37,48c-0.552,0-1,0.448-1,1v2c0,0.552,0.448,1,1,1s1-0.448,1-1v-2C38,48.448,37.552,48,37,48z"/><ellipse cx="19" cy="22.5" fill="#fff8ee" rx="7" ry="8.5"/><path fill="#fff8ee" d="M52,22.5c0,4.69-3.13,8.5-7,8.5s-7-3.81-7-8.5c0-1.04,0.15-2.04,0.45-2.96	C39.43,16.31,41.99,14,45,14s5.57,2.31,6.55,5.54C51.85,20.46,52,21.46,52,22.5z"/><path fill="#faefde" d="M26,22.5c0,4.69-3.13,8.5-7,8.5s-7-3.81-7-8.5c0-1.04,0.15-2.04,0.45-2.96	C13.89,19.75,15,20.99,15,22.5c0,2.98,1.83,5.5,4,5.5s4-2.52,4-5.5c0-1.51,1.11-2.75,2.55-2.96C25.85,20.46,26,21.46,26,22.5z"/><path fill="#8d6c9f" d="M19,32c-4.411,0-8-4.262-8-9.5s3.589-9.5,8-9.5s8,4.262,8,9.5S23.411,32,19,32z M19,15	c-3.309,0-6,3.364-6,7.5s2.691,7.5,6,7.5s6-3.364,6-7.5S22.309,15,19,15z"/><path fill="#faefde" d="M52,22.5c0,4.69-3.13,8.5-7,8.5s-7-3.81-7-8.5c0-1.04,0.15-2.04,0.45-2.96	C39.89,19.75,41,20.99,41,22.5c0,2.98,1.83,5.5,4,5.5s4-2.52,4-5.5c0-1.51,1.11-2.75,2.55-2.96C51.85,20.46,52,21.46,52,22.5z"/><path fill="#8d6c9f" d="M45,32c-4.411,0-8-4.262-8-9.5s3.589-9.5,8-9.5s8,4.262,8,9.5S49.411,32,45,32z M45,15	c-3.309,0-6,3.364-6,7.5s2.691,7.5,6,7.5s6-3.364,6-7.5S48.309,15,45,15z"/><path fill="#8d6c9f" d="M18,40c-7.494,0-11.693-7.197-11.868-7.504c-0.273-0.479-0.107-1.089,0.371-1.363	c0.477-0.274,1.09-0.109,1.364,0.37C7.905,31.567,11.68,38,18,38c5.007,0,7.701-2.115,9.293-3.707c0.391-0.391,1.023-0.391,1.414,0	s0.391,1.023,0,1.414C25.818,38.596,22.316,40,18,40z"/><path fill="#efc88e" d="M36,36.4c0-2.43-1.791-4.4-4-4.4s-4,1.97-4,4.4c0,2.43,1.791,6.6,4,6.6S36,38.83,36,36.4z"/><path fill="#8d6c9f" d="M32,44c-3.053,0-5-4.99-5-7.6c0-2.978,2.243-5.4,5-5.4s5,2.423,5,5.4C37,39.01,35.053,44,32,44z M32,33c-1.654,0-3,1.525-3,3.4c0,2.16,1.638,5.6,3,5.6s3-3.439,3-5.6C35,34.525,33.654,33,32,33z"/><path fill="#8d6c9f" d="M46,40c-4.316,0-7.818-1.404-10.707-4.293c-0.391-0.391-0.391-1.023,0-1.414s1.023-0.391,1.414,0	C38.299,35.885,40.993,38,46,38c6.347,0,10.095-6.432,10.132-6.496c0.273-0.479,0.883-0.648,1.364-0.372	c0.479,0.274,0.646,0.885,0.372,1.364C57.693,32.803,53.494,40,46,40z"/><path fill="#8d6c9f" d="M19,19c-0.365,0-0.71,0.1-1.034,0.259C18.58,19.6,19,20.248,19,21c0,1.104-0.895,2-2,2 c-0.358,0-0.689-0.102-0.98-0.266C16.016,22.823,16,22.909,16,23c0,2.209,1.343,4,3,4s3-1.791,3-4C22,20.791,20.657,19,19,19z"/><path fill="#8d6c9f" d="M45,19c-0.365,0-0.71,0.1-1.034,0.259C44.58,19.6,45,20.248,45,21c0,1.104-0.895,2-2,2 c-0.358,0-0.689-0.102-0.98-0.266C42.016,22.823,42,22.909,42,23c0,2.209,1.343,4,3,4s3-1.791,3-4C48,20.791,46.657,19,45,19z"/><path fill="#f9e3ae" d="M36,33c0-2.209-1.791-4-4-4s-4,1.791-4,4s1.791,6,4,6S36,35.209,36,33z"/><path fill="#8d6c9f" d="M32,40c-3.053,0-5-4.597-5-7c0-2.757,2.243-5,5-5s5,2.243,5,5C37,35.403,35.053,40,32,40z M32,30	c-1.654,0-3,1.346-3,3c0,1.975,1.609,5,3,5s3-3.025,3-5C35,31.346,33.654,30,32,30z"/></svg>