<svg xmlns="http://www.w3.org/2000/svg"  viewBox="0 0 64 64" width="64px" height="64px" baseProfile="basic"><path fill="#7bbeeb" d="M29,30H8c-0.552,0-1-0.448-1-1V8c0-0.552,0.448-1,1-1h21c0.552,0,1,0.448,1,1v21	C30,29.552,29.552,30,29,30z"/><path fill="#7bbeeb" d="M56,30H35c-0.552,0-1-0.448-1-1V8c0-0.552,0.448-1,1-1h21c0.552,0,1,0.448,1,1v21	C57,29.552,56.552,30,56,30z"/><path fill="#85cbf8" d="M29,57H8c-0.552,0-1-0.448-1-1V35c0-0.552,0.448-1,1-1h21c0.552,0,1,0.448,1,1v21	C30,56.552,29.552,57,29,57z"/><path fill="#7bbeeb" d="M56,57H35c-0.552,0-1-0.448-1-1V35c0-0.552,0.448-1,1-1h21c0.552,0,1,0.448,1,1v21	C57,56.552,56.552,57,56,57z"/><rect width="23" height="5" x="7" y="34" fill="#ace3ff"/><rect width="23" height="5" x="34" y="34" fill="#ace3ff"/><rect width="23" height="5" x="7" y="7" fill="#ace3ff"/><rect width="23" height="5" x="34" y="7" fill="#ace3ff"/><path fill="#8d6c9f" d="M29,58H8c-1.103,0-2-0.897-2-2V35c0-1.103,0.897-2,2-2h21c1.103,0,2,0.897,2,2v21	C31,57.103,30.103,58,29,58z M8,35v21h21.001L29,35H8z"/><path fill="#8d6c9f" d="M56,58H35c-1.103,0-2-0.897-2-2V35c0-1.103,0.897-2,2-2h21c1.103,0,2,0.897,2,2v21	C58,57.103,57.103,58,56,58z M35,35v21h21.001L56,35H35z"/><path fill="#8d6c9f" d="M11,41c-0.553,0-1-0.448-1-1v-2c0-0.552,0.447-1,1-1s1,0.448,1,1v2C12,40.552,11.553,41,11,41z"/><path fill="#8d6c9f" d="M16,41c-0.553,0-1-0.448-1-1v-2c0-0.552,0.447-1,1-1s1,0.448,1,1v2C17,40.552,16.553,41,16,41z"/><path fill="#8d6c9f" d="M21,41c-0.553,0-1-0.448-1-1v-2c0-0.552,0.447-1,1-1s1,0.448,1,1v2C22,40.552,21.553,41,21,41z"/><path fill="#8d6c9f" d="M26,41c-0.553,0-1-0.448-1-1v-2c0-0.552,0.447-1,1-1s1,0.448,1,1v2C27,40.552,26.553,41,26,41z"/><path fill="#8d6c9f" d="M38,41c-0.553,0-1-0.448-1-1v-2c0-0.552,0.447-1,1-1s1,0.448,1,1v2C39,40.552,38.553,41,38,41z"/><path fill="#8d6c9f" d="M43,41c-0.553,0-1-0.448-1-1v-2c0-0.552,0.447-1,1-1s1,0.448,1,1v2C44,40.552,43.553,41,43,41z"/><path fill="#8d6c9f" d="M48,41c-0.553,0-1-0.448-1-1v-2c0-0.552,0.447-1,1-1s1,0.448,1,1v2C49,40.552,48.553,41,48,41z"/><path fill="#8d6c9f" d="M53,41c-0.553,0-1-0.448-1-1v-2c0-0.552,0.447-1,1-1s1,0.448,1,1v2C54,40.552,53.553,41,53,41z"/><path fill="#8d6c9f" d="M29,31H8c-1.103,0-2-0.897-2-2V8c0-1.103,0.897-2,2-2h21c1.103,0,2,0.897,2,2v21	C31,30.103,30.103,31,29,31z M8,8v21h21.001L29,8H8z"/><path fill="#8d6c9f" d="M56,31H35c-1.103,0-2-0.897-2-2V8c0-1.103,0.897-2,2-2h21c1.103,0,2,0.897,2,2v21	C58,30.103,57.103,31,56,31z M35,8v21h21.001L56,8H35z"/></svg>