<svg xmlns="http://www.w3.org/2000/svg"  viewBox="0 0 64 64" width="64px" height="64px"><path fill="#b5c4e0" d="M50.866,5C42.375,5,21.631,5,13.14,5c-1.489,0-2.695,1.206-2.695,2.695c0,4.105,0,6.042,0,6.042 H53.56c0,0,0-1.937,0-6.042C53.561,6.206,52.355,5,50.866,5z"/><path fill="#7bbeeb" d="M58.951,16.084c0.139-0.784-1.898-2.695-2.695-2.695c-9.581,0-38.924,0-48.505,0 c-1.347,0-2.833,1.911-2.695,2.695c1.109,6.284,4.042,20.21,4.042,20.21h45.81C54.909,36.294,57.842,22.368,58.951,16.084z"/><path fill="#85cbf8" d="M55,36H9c0,0-2.834,14.221-3.943,20.505c0,1.544,1.067,2.695,2.695,2.695 c9.581,0,38.924,0,48.505,0c0.796,0,2.695-0.674,2.695-2.695C57.842,50.221,55,36,55,36z"/><path fill="#fff8ee" d="M27.334 36c1.326.438 2.273 1.145 2.836 2.098.583.986.876 2.088.876 3.31 0 2.132-.699 3.808-2.096 5.03-1.397 1.221-3.184 1.832-5.358 1.832-2.132 0-3.897-.575-5.295-1.727-1.399-1.152-2.07-2.714-2.017-4.683l.049-.097h3.021c0 1.231.377 2.212 1.133 2.94.755.729 1.792 1.093 3.11 1.093 1.339 0 2.389-.364 3.149-1.093s1.141-1.805 1.141-3.23c0-1.446-.337-2.511-1.012-3.197-.675-.686-1.741-1.028-3.197-1.028h-2.763V36H27.334zM42 36H45V48H42z"/><path fill="#faefde" d="M19.51 30.659h-3.037l-.032-.097c-.054-1.768.586-3.27 1.92-4.507s3.077-1.855 5.23-1.855c2.164 0 3.888.575 5.174 1.727 1.285 1.152 1.928 2.793 1.928 4.925 0 .965-.292 1.925-.876 2.885s-1.459 1.69-2.627 2.193L27.334 36h-6.427v-1.227h2.763c1.404 0 2.397-.35 2.98-1.052s.876-1.679.876-2.932c0-1.339-.331-2.357-.996-3.053-.664-.697-1.644-1.044-2.94-1.044-1.231 0-2.22.361-2.964 1.085C19.907 28.474 19.535 29.395 19.51 30.659zM45 36L42 36 42 28 37 28 37 26 45 24z"/><path fill="#7bbeeb" d="M7.751 13.389c-1.937 0-2.833 1.911-2.695 2.695 1.109 6.284 4.042 20.21 4.042 20.21M54.909 36.294c0 0 2.933-13.926 4.042-20.21 0-2.189-1.898-2.695-2.695-2.695"/><path fill="#8d6c9f" d="M56.253,60H7.749c-2.279,0-3.695-1.416-3.695-3.694l0.015-0.174 c1.026-5.814,3.558-18.386,3.91-20.129c-0.356-1.717-2.882-13.934-3.908-19.745l-0.015-0.174C4.057,13.45,5.457,12,8,12h48 c1.275,0,2.269,0.354,2.952,1.055c0.694,0.71,1.029,1.737,0.998,3.053l-0.015,0.15c-1.025,5.807-3.554,18.01-3.914,19.741 c0.365,1.738,2.938,14.019,3.963,19.827L60,56C60,58.505,58.6,60,56.253,60z M6.055,56.389C6.08,57.502,6.605,58,7.749,58h48.504 c0.85,0,1.718-0.23,1.746-1.916c-1.105-6.237-3.949-19.741-3.978-19.878l-0.043-0.205l0.043-0.205 c0.028-0.136,2.828-13.576,3.931-19.809c0.007-0.719-0.138-1.235-0.431-1.535S56.717,14,56,14H8c-1.408,0-1.924,0.525-1.943,1.999 c1.104,6.237,3.894,19.662,3.922,19.798l0.042,0.2L9.98,36.198C9.952,36.338,7.161,50.144,6.055,56.389z"/><path fill="#8d6c9f" d="M54,13h-2V6H12v7h-2V6c0-1.103,0.897-2,2-2h40c1.103,0,2,0.897,2,2V13z"/><path fill="#fff" d="M18 8A1 1 0 1 0 18 10 1 1 0 1 0 18 8zM46 8A1 1 0 1 0 46 10 1 1 0 1 0 46 8z"/><path fill="#8d6c9f" d="M12 56c-.552 0-1-.447-1-1v-2c0-.553.448-1 1-1s1 .447 1 1v2C13 55.553 12.552 56 12 56zM17 56c-.552 0-1-.447-1-1v-2c0-.553.448-1 1-1s1 .447 1 1v2C18 55.553 17.552 56 17 56zM22 56c-.552 0-1-.447-1-1v-2c0-.553.448-1 1-1s1 .447 1 1v2C23 55.553 22.552 56 22 56zM27 56c-.552 0-1-.447-1-1v-2c0-.553.448-1 1-1s1 .447 1 1v2C28 55.553 27.552 56 27 56zM32 56c-.552 0-1-.447-1-1v-2c0-.553.448-1 1-1 .553 0 1 .447 1 1v2C33 55.553 32.553 56 32 56zM37 56c-.553 0-1-.447-1-1v-2c0-.553.447-1 1-1s1 .447 1 1v2C38 55.553 37.553 56 37 56zM42 56c-.553 0-1-.447-1-1v-2c0-.553.447-1 1-1s1 .447 1 1v2C43 55.553 42.553 56 42 56zM47 56c-.553 0-1-.447-1-1v-2c0-.553.447-1 1-1s1 .447 1 1v2C48 55.553 47.553 56 47 56zM52 56c-.553 0-1-.447-1-1v-2c0-.553.447-1 1-1s1 .447 1 1v2C53 55.553 52.553 56 52 56z"/></svg>