<svg xmlns="http://www.w3.org/2000/svg"  viewBox="0 0 64 64" width="64px" height="64px"><path fill="#f6d397" d="M63,34c0,4.42-3.58,8-8,8H39c-3.42,0-6,0-6,0V15.47c1.8-0.93,3.83-1.47,6-1.47 c4.36,0,8.21,2.15,10.56,5.44c0.43,0.59,0.8,1.22,1.12,1.88c0.34,0.69,0.61,1.42,0.83,2.17c0.27,0.99,0.44,2.03,0.47,3.1 C52.91,26.21,53.93,26,55,26c1.28,0,2.49,0.3,3.56,0.84C61.19,28.14,63,30.86,63,34z"/><path fill="#f9e3ae" d="M63 34c0 4.42-3.58 8-8 8H43.39l15.17-15.16C61.19 28.14 63 30.86 63 34zM55 26L39 42c-3.42 0-6 0-6 0l18.51-18.51c.27.99.44 2.03.47 3.1C52.91 26.21 53.93 26 55 26zM49.56 19.44L33 36v3l17.68-17.68C50.36 20.66 49.99 20.03 49.56 19.44z"/><path fill="#fff8f8" d="M40.502 18l-1.238 2.26L37 21.498l2.264 1.238L40.502 25l1.238-2.264L44 21.498l-2.26-1.238L40.502 18zM52 36.5L51.143 36.965 50.378 37.378 49.965 38.143 49.5 39 49.366 38.742 48.612 37.378 47.981 37.027 47 36.5 48.612 35.612 49.5 34 50.027 34.981 50.378 35.612 51.742 36.366zM57.96 32.48L57 33 56.48 33.96 55.96 33 55 32.48 55.96 31.96 56.48 31 57 31.96z"/><path fill="#8d6c9f" d="M55 43H33c-.552 0-1-.448-1-1V15.47c0-.374.208-.717.541-.889C34.572 13.532 36.746 13 39 13c4.501 0 8.753 2.19 11.374 5.859.44.604.848 1.288 1.206 2.024.345.701.637 1.463.89 2.326.188.686.324 1.367.409 2.042 2.043-.496 4.252-.253 6.132.696C62.085 27.467 64 30.554 64 34 64 38.962 59.962 43 55 43zM34 41h21c3.86 0 7-3.14 7-7 0-2.679-1.488-5.08-3.883-6.264-1.778-.897-3.914-.975-5.759-.221-.303.125-.648.092-.924-.088-.275-.179-.445-.482-.454-.81-.026-.939-.173-1.903-.436-2.864-.215-.734-.466-1.392-.762-1.992-.309-.635-.654-1.216-1.031-1.732C46.5 16.877 42.857 15 39 15c-1.734 0-3.413.368-5 1.095V41zM29 43c-.552 0-1-.448-1-1V17c0-.552.448-1 1-1s1 .448 1 1v25C30 42.552 29.552 43 29 43zM25 43c-.552 0-1-.448-1-1V21c0-.552.448-1 1-1s1 .448 1 1v21C26 42.552 25.552 43 25 43zM21 43c-.552 0-1-.448-1-1V20c0-.552.448-1 1-1s1 .448 1 1v22C22 42.552 21.552 43 21 43zM17 43c-.552 0-1-.448-1-1V21c0-.552.448-1 1-1s1 .448 1 1v21C18 42.552 17.552 43 17 43zM13 43c-.552 0-1-.448-1-1V24c0-.552.448-1 1-1s1 .448 1 1v18C14 42.552 13.552 43 13 43zM9 43c-.552 0-1-.448-1-1V28c0-.552.448-1 1-1s1 .448 1 1v14C10 42.552 9.552 43 9 43zM5 42c-.552 0-1-.448-1-1V28c0-.552.448-1 1-1s1 .448 1 1v13C6 41.552 5.552 42 5 42zM1 40c-.552 0-1-.448-1-1v-8c0-.552.448-1 1-1s1 .448 1 1v8C2 39.552 1.552 40 1 40zM53 48v2c0 .55-.45 1-1 1s-1-.45-1-1v-2c0-.55.45-1 1-1S53 47.45 53 48zM12 47c-.552 0-1 .447-1 1v2c0 .553.448 1 1 1s1-.447 1-1v-2C13 47.447 12.552 47 12 47zM17 47c-.552 0-1 .447-1 1v2c0 .553.448 1 1 1s1-.447 1-1v-2C18 47.447 17.552 47 17 47zM22 47c-.552 0-1 .447-1 1v2c0 .553.448 1 1 1s1-.447 1-1v-2C23 47.447 22.552 47 22 47zM27 47c-.552 0-1 .447-1 1v2c0 .553.448 1 1 1s1-.447 1-1v-2C28 47.447 27.552 47 27 47zM32 47c-.552 0-1 .447-1 1v2c0 .553.448 1 1 1 .552 0 1-.447 1-1v-2C33 47.447 32.552 47 32 47zM37 47c-.552 0-1 .447-1 1v2c0 .553.448 1 1 1s1-.447 1-1v-2C38 47.447 37.552 47 37 47zM42 47c-.552 0-1 .447-1 1v2c0 .553.448 1 1 1s1-.447 1-1v-2C43 47.447 42.552 47 42 47zM47 47c-.552 0-1 .447-1 1v2c0 .553.448 1 1 1s1-.447 1-1v-2C48 47.447 47.552 47 47 47z"/></svg>