<svg xmlns="http://www.w3.org/2000/svg"  viewBox="0 0 64 64" width="64px" height="64px"><path fill="#ed7899" d="M40.651 3L5 7.828 10.073 38.156 17.721 61 55.291 50.185 59 17.124z"/><path fill="#faefde" d="M27.182 37.375L17.375 39.529 19.281 45 30 42.37zM36.298 26.09L32.997 22 14 25.428 15.788 30.404 26.154 28.224 26.154 28.224 28.962 33 40 30.416zM53 18.666L43.852 11.747 38.968 7.994 10.5 11.875 12.125 16.341 33.154 13.296 40.75 21z"/><path fill="#8d6c9f" d="M17.72,62c-0.419,0-0.808-0.266-0.948-0.683L9.125,38.474c-0.017-0.05-0.029-0.101-0.038-0.152 L4.014,7.993C3.969,7.727,4.035,7.452,4.195,7.234c0.16-0.218,0.402-0.361,0.67-0.397l35.651-4.828 c0.268-0.034,0.533,0.036,0.744,0.199L59.61,16.332c0.277,0.213,0.423,0.556,0.384,0.903l-3.709,33.061 c-0.045,0.402-0.328,0.737-0.717,0.85l-37.57,10.815C17.905,61.987,17.812,62,17.72,62z M11.046,37.913l7.319,21.861l36.007-10.366 l3.572-31.836L40.372,4.047L6.156,8.681L11.046,37.913z"/><path fill="#8d6c9f" d="M50.739 47.625c-.038 0-.075-.002-.113-.006l-1.988-.223c-.549-.062-.944-.557-.882-1.105.061-.549.564-.937 1.105-.883l1.988.223c.549.062.944.557.882 1.105C51.674 47.247 51.241 47.625 50.739 47.625zM51.259 42.979c-.038 0-.075-.002-.113-.006l-1.988-.223c-.549-.062-.944-.557-.882-1.105.061-.549.563-.937 1.105-.883l1.988.223c.549.062.944.557.882 1.105C52.194 42.602 51.761 42.979 51.259 42.979zM51.778 38.334c-.038 0-.075-.002-.113-.006l-1.987-.223c-.549-.062-.944-.557-.882-1.105s.568-.937 1.105-.883l1.987.223c.549.062.944.557.882 1.105C52.713 37.956 52.28 38.334 51.778 38.334zM52.298 33.688c-.038 0-.075-.002-.113-.006l-1.988-.223c-.549-.062-.944-.557-.882-1.105s.567-.938 1.105-.883l1.988.223c.549.062.944.557.882 1.105C53.233 33.311 52.8 33.688 52.298 33.688zM52.818 29.043c-.038 0-.075-.002-.113-.006l-1.988-.223c-.549-.062-.944-.557-.882-1.105s.566-.938 1.105-.883l1.988.223c.549.062.944.557.882 1.105C53.753 28.665 53.32 29.043 52.818 29.043zM53.337 24.397c-.038 0-.075-.002-.113-.006l-1.987-.223c-.549-.062-.944-.557-.882-1.105s.565-.938 1.105-.883l1.987.223c.549.062.944.557.882 1.105C54.272 24.02 53.839 24.397 53.337 24.397zM19.28 46c-.417 0-.801-.262-.944-.671l-1.906-5.471c-.094-.271-.068-.567.071-.817.14-.249.379-.427.659-.488l9.807-2.154c.429-.093.87.103 1.085.485l2.818 4.995c.154.272.171.601.047.889-.125.287-.376.499-.68.574l-10.719 2.63C19.439 45.991 19.359 46 19.28 46zM18.69 40.265l1.236 3.548 8.555-2.1-1.807-3.202L18.69 40.265zM28.962 34c-.349 0-.68-.183-.862-.493l-2.444-4.156-1.448.304c-.542.116-1.07-.232-1.184-.772-.114-.541.232-1.071.773-1.185l2.151-.452c.421-.09.851.102 1.067.472l2.435 4.142 8.745-2.047-5.595-6.724-17.26 3.114 1.094 3.044 3.371-.709c.541-.114 1.071.232 1.185.772.114.541-.232 1.071-.772 1.185l-4.223.889c-.491.102-.979-.171-1.147-.641l-1.788-4.977c-.1-.276-.072-.583.075-.838.147-.255.399-.432.688-.484l18.997-3.428c.356-.064.716.068.946.345l7.003 8.416c.222.267.29.629.18.957-.11.329-.383.577-.72.656L29.19 33.974C29.114 33.991 29.038 34 28.962 34zM40.749 22c-.471 0-.89-.334-.981-.813-.104-.543.253-1.066.795-1.17l10.038-1.912L38.689 9.041l-26.826 3.657.923 2.537 20.224-2.929c.551-.086 1.054.299 1.133.846s-.3 1.054-.846 1.133l-21.029 3.046c-.469.079-.921-.202-1.083-.647L9.56 12.217c-.103-.284-.072-.6.084-.858s.421-.434.721-.475l28.468-3.881c.268-.035.533.035.745.198l4.885 3.753 9.141 6.914c.315.238.461.641.371 1.025-.09.385-.398.681-.787.755l-12.25 2.334C40.874 21.994 40.811 22 40.749 22z"/><path fill="#8d6c9f" d="M37.792,19c-0.258,0-0.517-0.1-0.712-0.298l-1.971-2c-0.388-0.394-0.383-1.026,0.01-1.414 s1.026-0.384,1.414,0.01l1.972,2c0.388,0.394,0.383,1.026-0.011,1.414C38.299,18.904,38.045,19,37.792,19z"/></svg>