<svg xmlns="http://www.w3.org/2000/svg"  viewBox="0 0 64 64" width="64px" height="64px"><path fill="#fff8ee" d="M51,7H13c-3.314,0-6,2.686-6,6v38c0,3.314,2.686,6,6,6h38c3.314,0,6-2.686,6-6V13	C57,9.686,54.314,7,51,7z"/><path fill="#faefde" d="M54,50H10c-1.657,0-3,1.343-3,3v0c0,2.209,1.791,4,4,4h42c2.209,0,4-1.791,4-4v0	C57,51.343,55.657,50,54,50z"/><path fill="#8d6c9f" d="M51,6H13c-3.859,0-7,3.14-7,7v38c0,3.86,3.141,7,7,7h38c3.859,0,7-3.14,7-7V13C58,9.14,54.859,6,51,6	z M56,51c0,2.757-2.243,5-5,5H13c-2.757,0-5-2.243-5-5V13c0-2.757,2.243-5,5-5h38c2.757,0,5,2.243,5,5V51z"/><path fill="#8d6c9f" d="M17,48c-0.553,0-1,0.448-1,1v2c0,0.552,0.447,1,1,1s1-0.448,1-1v-2C18,48.448,17.553,48,17,48z"/><path fill="#8d6c9f" d="M12,48c-0.553,0-1,0.448-1,1v2c0,0.552,0.447,1,1,1s1-0.448,1-1v-2C13,48.448,12.553,48,12,48z"/><path fill="#8d6c9f" d="M32,48c-0.553,0-1,0.448-1,1v2c0,0.552,0.447,1,1,1s1-0.448,1-1v-2C33,48.448,32.553,48,32,48z"/><path fill="#8d6c9f" d="M37,48c-0.553,0-1,0.448-1,1v2c0,0.552,0.447,1,1,1s1-0.448,1-1v-2C38,48.448,37.553,48,37,48z"/><path fill="#8d6c9f" d="M42,48c-0.553,0-1,0.448-1,1v2c0,0.552,0.447,1,1,1s1-0.448,1-1v-2C43,48.448,42.553,48,42,48z"/><path fill="#8d6c9f" d="M47,48c-0.553,0-1,0.448-1,1v2c0,0.552,0.447,1,1,1s1-0.448,1-1v-2C48,48.448,47.553,48,47,48z"/><path fill="#8d6c9f" d="M52,48c-0.553,0-1,0.448-1,1v2c0,0.552,0.447,1,1,1s1-0.448,1-1v-2C53,48.448,52.553,48,52,48z"/><path fill="#8d6c9f" d="M22,48c-0.553,0-1,0.448-1,1v2c0,0.552,0.447,1,1,1s1-0.448,1-1v-2C23,48.448,22.553,48,22,48z"/><path fill="#8d6c9f" d="M27,48c-0.553,0-1,0.448-1,1v2c0,0.552,0.447,1,1,1s1-0.448,1-1v-2C28,48.448,27.553,48,27,48z"/><path fill="#f283a5" d="M15.449,34.235c-1.792,0-3.188-0.515-4.147-1.528c-1.348-1.425-1.26-3.298-1.255-3.377 c-0.053-1.857,0.667-3.014,1.279-3.643c0.936-0.961,2.308-1.448,4.077-1.448c1.802,0,3.196,0.536,4.145,1.592 c1.438,1.602,1.223,3.784,1.213,3.876c-0.025,0.236-0.132,0.446-0.289,0.603c0.104,0.177,0.153,0.384,0.137,0.592 C20.515,32.055,19.316,34.235,15.449,34.235z M14.218,30.601c0.243,0.281,0.633,0.507,1.258,0.518h0.001 c0.921,0,1.228-0.35,1.322-0.518H14.218z M16.366,27.521c-0.211-0.096-0.488-0.156-0.853-0.156c-0.36,0-0.642,0.062-0.861,0.156 H16.366z"/><path fill="#8d6c9f" d="M15.404,25.239c0,0,0.001,0,0.001,0c4.829,0.001,4.362,4.361,4.362,4.362H12.82 c0,0,0.099,2.471,2.637,2.517c0.027,0,0.053,0.001,0.079,0.001c1.905,0,2.251-1.295,2.251-1.295l1.825-0.004 c0,0-0.195,2.416-4.162,2.416c-4.617,0-4.404-3.85-4.404-3.85C11.023,28.532,11.042,25.239,15.404,25.239 M12.878,28.521h5.135 c0,0,0-2.156-2.499-2.156c0,0-0.001,0-0.001,0C13.003,26.366,12.878,28.521,12.878,28.521 M15.406,23.239 C15.406,23.239,15.405,23.239,15.406,23.239h-0.002c-2.05,0-3.663,0.589-4.794,1.751C9.869,25.75,9,27.128,9.045,29.381 c-0.009,0.513,0.06,2.458,1.531,4.013c0.795,0.84,2.285,1.841,4.873,1.841c4.598,0,6.037-2.783,6.156-4.255 c0.014-0.178,0.005-0.356-0.028-0.529c0.094-0.199,0.156-0.417,0.179-0.647c0.029-0.278,0.23-2.766-1.472-4.652 C19.496,24.281,18.011,23.24,15.406,23.239L15.406,23.239z"/><path fill="#85cbf8" d="M26.935,34.235c-1.012,0-1.799-0.198-2.397-0.461c-0.179,0.278-0.49,0.461-0.843,0.461h-1.684 c-0.553,0-1-0.447-1-1V22.332c0-0.553,0.447-1,1-1h1.781c0.553,0,1,0.447,1,1v2.3c0.591-0.232,1.31-0.393,2.149-0.393 c1.538,0.008,2.956,0.582,3.925,1.574c0.903,0.926,1.368,2.138,1.342,3.505C32.149,32.26,30.03,34.235,26.935,34.235z M26.584,27.383c-0.582,0.014-1.005,0.17-1.294,0.478c-0.496,0.527-0.488,1.363-0.488,1.372c0.001,0.05,0.004,0.58,0.249,1.066 c0.273,0.543,0.738,0.796,1.464,0.796c1.771-0.021,1.861-1.478,1.862-1.769c0-0.011-0.003-0.578-0.255-1.101 c-0.281-0.584-0.733-0.844-1.465-0.844v-1L26.584,27.383z"/><path fill="#8d6c9f" d="M23.792,22.332v4.157c0,0,0.947-1.25,3.147-1.25c0.011,0,0.022,0,0.032,0 c2.224,0.012,4.285,1.5,4.236,4.059c-0.05,2.557-1.913,3.937-4.273,3.937c-2.359,0-3.166-1.261-3.166-1.261l-0.074,1.261h-1.684 V22.332H23.792 M26.516,32.095c0.016,0,0.032,0,0.049,0c2.807-0.034,2.812-2.767,2.812-2.767s0.041-2.946-2.719-2.946 c-0.032,0-0.065,0-0.098,0.001c-2.86,0.071-2.757,2.886-2.757,2.886S23.757,32.095,26.516,32.095 M23.792,20.332h-1.782 c-1.105,0-2,0.895-2,2v10.904c0,1.105,0.895,2,2,2h1.684c0.395,0,0.764-0.115,1.075-0.313c0.603,0.189,1.321,0.313,2.166,0.313 c3.625,0,6.204-2.425,6.273-5.898c0.031-1.641-0.531-3.101-1.626-4.223c-1.154-1.183-2.83-1.866-4.599-1.875 c-0.427,0-0.824,0.034-1.19,0.093v-1C25.792,21.227,24.897,20.332,23.792,20.332L23.792,20.332z"/><g><path fill="#5dbc9d" d="M45.586,37.144c-0.344,0-0.664-0.177-0.847-0.468s-0.203-0.656-0.055-0.966l1.344-2.79l-3.813-7.213 c-0.164-0.311-0.153-0.684,0.027-0.983c0.181-0.301,0.506-0.484,0.856-0.484h2.039c0.378,0,0.725,0.214,0.894,0.552l2.093,4.17 l2.096-4.171c0.17-0.338,0.516-0.551,0.894-0.551h1.844c0.346,0,0.667,0.179,0.85,0.473s0.2,0.661,0.047,0.971l-5.398,10.904 c-0.169,0.341-0.517,0.557-0.896,0.557H45.586z"/><path fill="#8d6c9f" d="M52.957,25.239h0.005 M52.957,25.239l-5.399,10.904h-1.973l1.563-3.244l-4.05-7.66h2.04l2.985,5.95 l2.991-5.95H52.957 M52.962,23.239h-0.005h-1.844c-0.756,0-1.447,0.426-1.787,1.102l-1.202,2.391l-1.199-2.39 c-0.339-0.676-1.031-1.103-1.788-1.103h-2.04c-0.701,0-1.351,0.367-1.713,0.968c-0.362,0.601-0.383,1.347-0.055,1.967l3.578,6.767 l-1.125,2.334c-0.299,0.62-0.258,1.349,0.108,1.932c0.366,0.582,1.006,0.936,1.694,0.936h1.973c0.76,0,1.455-0.431,1.792-1.113 l5.359-10.823c0.159-0.287,0.25-0.617,0.25-0.968C54.96,24.135,54.067,23.239,52.962,23.239L52.962,23.239z M52.957,27.239h0.005 H52.957L52.957,27.239z"/></g><g><path fill="#efc88e" d="M40.219,34.243c-0.364,0-0.685-0.195-0.859-0.488c-0.698,0.319-1.521,0.476-2.496,0.48l0,0 c-0.781,0-2.628-0.138-3.712-1.409c-0.424-0.498-0.885-1.369-0.673-2.69c0.128-0.791,0.551-1.373,1.11-1.801 c-0.141-0.062-0.268-0.157-0.368-0.279c-0.19-0.23-0.268-0.533-0.21-0.826c0.364-1.872,2.102-2.989,4.648-2.989 c0.277,0,0.447,0.016,0.447,0.016c4.563,0.178,4.7,2.969,4.745,3.887c0,0.016,0.006,0.13,0.006,0.146v4.946 c0,0.551-0.444,0.997-0.995,1C41.862,34.235,40.221,34.243,40.219,34.243z M38.022,30.285c-0.783,0.02-1.632,0.274-1.763,0.468 c0.044,0.369,0.904,0.4,0.913,0.4c0,0,0.001,0,0.002,0c0.724,0,1.205-0.159,1.49-0.473c0.109-0.119,0.188-0.257,0.244-0.396 L38.022,30.285z"/><path fill="#8d6c9f" d="M37.661,25.24c0.224,0,0.361,0.012,0.361,0.012c3.835,0.151,3.789,2.192,3.835,3.037v4.947 l-1.638,0.008l-0.075-1.33c-0.699,0.843-1.638,1.313-3.286,1.322c-0.011,0-0.022,0-0.033,0c-1.643,0-3.719-0.707-3.359-2.94 c0.304-1.89,3.561-2.136,4.492-2.141c0.517-0.002,2.064-0.007,2.064-0.007c0.01-1.038-0.319-1.735-2.125-1.767 c-0.027,0-0.054-0.001-0.08-0.001c-1.468,0-1.85,0.745-1.944,1.041h-1.881C34.378,25.435,36.745,25.24,37.661,25.24 M37.166,32.153 C37.166,32.153,37.166,32.153,37.166,32.153c0.022,0,0.044,0,0.066,0c3.131,0,2.809-2.87,2.81-2.87l-2.019,0.002 c0,0-2.858,0.06-2.746,1.511C35.38,32.151,37.154,32.153,37.166,32.153 M37.661,23.24c-3.018,0-5.176,1.455-5.632,3.798 c-0.085,0.437-0.021,0.885,0.174,1.275c-0.357,0.466-0.607,1.017-0.711,1.663c-0.273,1.698,0.338,2.839,0.899,3.498 c0.953,1.119,2.569,1.76,4.435,1.76c0.862-0.005,1.622-0.109,2.297-0.318c0.316,0.207,0.693,0.327,1.096,0.327 c0.003,0,0.007,0,0.01,0l1.638-0.008c1.101-0.005,1.99-0.899,1.99-2v-4.947c0-0.037-0.001-0.073-0.003-0.11l-0.004-0.084 c-0.184-3.802-3.198-4.733-5.711-4.84C38.059,23.249,37.891,23.24,37.661,23.24L37.661,23.24z"/></g></svg>