<svg xmlns="http://www.w3.org/2000/svg"  viewBox="0 0 64 64" width="64px" height="64px" baseProfile="basic"><path fill="#ace3ff" d="M23.312,51.252l3.698-2.376V14.809c0-2.222-1.084-4.305-2.905-5.578l-7.891-4.858 C14.86,3.425,13,4.393,13,6.047V45.02c0,0.3,0.027,0.756,0.045,1.051C13.503,50.967,18.967,53.858,23.312,51.252z"/><path fill="#ace3ff" d="M43.434,39.034L26.618,49.106l0,0l-3.306,1.984c-4.346,2.608-9.809-0.285-10.268-5.18 C13.507,53.766,20.576,60,28.55,60c2.673,0,5.295-0.73,7.583-2.112c0,0,11.379-7.083,12.234-7.943l1.536-5.487l-2.986-3.798 L43.434,39.034z"/><path fill="#b0edcc" d="M45.872,27.409L34.963,22.23c-1.68-0.84-3.508,0.842-2.811,2.586l2.39,8.016 c0.68,1.7,2.014,3.053,3.703,3.756l5.396,2.304c5.009,2.158,8.693,5.508,4.726,11.052C56.617,44.5,55.833,32.3,45.872,27.409z"/><path fill="#7bbeeb" d="M38.868,41.768c0,0,6.598,1.299,7.185,9.807c1.28,0.077,3.509-3.744,3.509-3.744v-4.865l-4.07-3.181	h-3.314L38.868,41.768z"/><path fill="#7bbeeb" d="M13,41.267c0.633,0.545,3.167,2.598,7,2.6c3.839,0.002,6.378-2.056,7.01-2.6c0,2.333,0,4.667,0,7	l-5.81,3.31l-5.619-1.002l-3.048-4.894L13,41.267z"/><g><path fill="none" stroke="#8d6c9f" stroke-linecap="round" stroke-linejoin="round" stroke-miterlimit="10" stroke-width="2" d="M23.312,51.252l3.698-2.376V14.809c0-2.222-1.084-4.305-2.905-5.578l-7.891-4.858C14.86,3.425,13,4.393,13,6.047V45.02 c0,0.3,0.027,0.756,0.045,1.051C13.503,50.967,18.967,53.858,23.312,51.252z"/><path fill="none" stroke="#8d6c9f" stroke-linecap="round" stroke-linejoin="round" stroke-miterlimit="10" stroke-width="2" d="M43.434,39.034L26.618,49.106l0,0l-3.306,1.984c-4.346,2.608-9.809-0.285-10.268-5.18C13.507,53.766,20.576,60,28.55,60 c2.673,0,5.295-0.73,7.583-2.112c0,0,11.379-7.083,12.234-7.943"/><path fill="none" stroke="#8d6c9f" stroke-linecap="round" stroke-linejoin="round" stroke-miterlimit="10" stroke-width="2" d="M45.872,27.409L34.963,22.23c-1.68-0.84-3.508,0.842-2.811,2.586l2.39,8.016c0.68,1.7,2.014,3.053,3.703,3.756l5.396,2.304 c5.009,2.158,8.693,5.508,4.726,11.052C56.617,44.5,55.833,32.3,45.872,27.409z"/></g><g><path fill="#8d6c9f" d="M34.064,15.971c-0.16,0-0.322-0.039-0.473-0.12c-0.486-0.262-0.668-0.868-0.406-1.354l0.948-1.761 c0.262-0.486,0.868-0.667,1.354-0.406c0.486,0.262,0.668,0.868,0.406,1.354l-0.948,1.761 C34.764,15.78,34.42,15.971,34.064,15.971z"/><path fill="#8d6c9f" d="M38.393,18.302c-0.16,0-0.322-0.039-0.473-0.12c-0.486-0.262-0.668-0.868-0.406-1.354l0.948-1.761 c0.262-0.486,0.869-0.667,1.354-0.406c0.486,0.262,0.668,0.868,0.406,1.354l-0.948,1.761 C39.094,18.112,38.749,18.302,38.393,18.302z"/><path fill="#8d6c9f" d="M42.723,20.634c-0.16,0-0.322-0.039-0.473-0.12c-0.486-0.262-0.668-0.868-0.406-1.354l0.948-1.761 c0.262-0.487,0.868-0.667,1.354-0.406c0.486,0.262,0.668,0.868,0.406,1.354l-0.948,1.761 C43.424,20.443,43.079,20.634,42.723,20.634z"/><path fill="#8d6c9f" d="M47.053,22.965c-0.16,0-0.322-0.039-0.473-0.12c-0.486-0.262-0.668-0.868-0.406-1.354l0.948-1.761 c0.262-0.486,0.868-0.668,1.354-0.406s0.668,0.868,0.406,1.354l-0.948,1.761C47.754,22.775,47.409,22.965,47.053,22.965z"/></g></svg>