<svg xmlns="http://www.w3.org/2000/svg"  viewBox="0 0 64 64" width="64px" height="64px"><path fill="#85cbf8" d="M62.933,31.966c0,0.982-0.377,1.965-1.104,2.707l-9.842,9.923C51.731,44.853,51.395,45,51.032,45 c-0.35,0-0.7-0.148-0.956-0.404l-9.64-9.735c-0.525-0.525-0.525-1.374,0-1.899l11.566-11.687c0.511-0.511,1.413-0.511,1.911,0 l7.916,7.984C62.556,30,62.933,30.984,62.933,31.966z M14,20.927v22.08c0,0.525-0.312,1.009-0.78,1.225 c-0.169,0.08-0.338,0.121-0.52,0.121c-0.325,0-0.637-0.135-0.884-0.363L2.17,34.7C1.416,33.972,1,33.002,1,31.966 c0-1.05,0.416-2.02,1.17-2.746l9.646-9.276c0.377-0.363,0.936-0.457,1.404-0.242C13.688,19.904,14,20.388,14,20.927z M46.854,16.188L23.319,39.856c-0.258,0.256-0.611,0.404-0.963,0.404c-0.177,0-0.352-0.041-0.515-0.108 C21.34,39.95,21,39.452,21,38.914V11.057c0-0.35,0.135-0.7,0.394-0.943L29.33,2.13C30.048,1.404,31.011,1,32.041,1 c1.018,0,1.981,0.404,2.699,1.13l12.113,12.171C47.369,14.827,47.369,15.663,46.854,16.188z M45.031,51.584L34.676,61.817 c-0.728,0.712-1.703,1.116-2.746,1.116c-1.03,0-2.004-0.404-2.746-1.118l-8.075-7.998c-0.535-0.525-0.535-1.36,0-1.885 l12.128-11.997c0.508-0.511,1.429-0.511,1.949,0l9.847,9.747C45.568,50.21,45.568,51.057,45.031,51.584z"/><rect width="5.414" height="20.506" x="35.629" y="-1.089" fill="#ace3ff" transform="rotate(-45.001 38.336 9.165)"/><path fill="#8d6c9f" d="M41.086,18c-0.256,0-0.513-0.098-0.708-0.294c-0.39-0.391-0.39-1.023,0.002-1.414l1.416-1.413 c0.391-0.389,1.023-0.391,1.414,0.002c0.39,0.391,0.39,1.023-0.002,1.414l-1.416,1.413C41.597,17.902,41.342,18,41.086,18z"/><path fill="#8d6c9f" d="M37.395,14.3c-0.256,0-0.513-0.098-0.708-0.294c-0.39-0.391-0.39-1.023,0.002-1.414l1.416-1.413 c0.391-0.389,1.023-0.391,1.414,0.002c0.39,0.391,0.39,1.023-0.002,1.414l-1.416,1.413C37.905,14.202,37.65,14.3,37.395,14.3z"/><path fill="#8d6c9f" d="M33.703,10.6c-0.256,0-0.513-0.098-0.708-0.294c-0.39-0.391-0.39-1.023,0.002-1.414l1.416-1.413 c0.391-0.389,1.023-0.391,1.414,0.002c0.39,0.391,0.39,1.023-0.002,1.414l-1.416,1.413C34.214,10.502,33.959,10.6,33.703,10.6z"/><path fill="#8d6c9f" d="M30.013,6.899c-0.256,0-0.513-0.098-0.708-0.293c-0.39-0.392-0.39-1.024,0.001-1.415l1.415-1.413 c0.391-0.389,1.024-0.39,1.415,0.001c0.39,0.392,0.39,1.024-0.001,1.415L30.72,6.607C30.524,6.802,30.269,6.899,30.013,6.899z"/><path fill="#7bbeeb" d="M30.063,62.063l-0.521-0.521L43.184,47.9l2.958,2.958L34.937,62.063 C33.591,63.409,31.409,63.409,30.063,62.063z"/><path fill="#8d6c9f" d="M32,59.838c-0.258,0-0.516-0.1-0.711-0.297c-0.389-0.393-0.385-1.026,0.008-1.414l3-2.965 c0.394-0.39,1.026-0.384,1.414,0.008c0.389,0.393,0.385,1.026-0.008,1.414l-3,2.965C32.508,59.742,32.254,59.838,32,59.838z M38,53.908c-0.258,0-0.516-0.1-0.711-0.297c-0.389-0.393-0.385-1.026,0.008-1.414l2-1.977c0.394-0.391,1.026-0.384,1.414,0.008 c0.389,0.393,0.385,1.026-0.008,1.414l-2,1.977C38.508,53.812,38.254,53.908,38,53.908z"/><path fill="#8d6c9f" d="M31.93,63.933c-1.281,0-2.503-0.496-3.439-1.396l-8.086-8.008c-0.448-0.441-0.697-1.029-0.697-1.653 s0.249-1.212,0.701-1.656l12.125-11.993c0.896-0.902,2.435-0.905,3.354-0.002l9.85,9.749c0.45,0.443,0.698,1.034,0.697,1.662 s-0.249,1.217-0.699,1.66L35.379,62.527C34.453,63.435,33.229,63.933,31.93,63.933z M34.205,40.553c-0.101,0-0.2,0.029-0.259,0.088 L21.812,52.644c-0.087,0.085-0.104,0.173-0.104,0.231s0.018,0.146,0.102,0.229l8.079,8.001c1.11,1.068,3.004,1.061,4.088-0.002 L44.331,50.87c0.085-0.083,0.103-0.175,0.103-0.237c0-0.062-0.018-0.153-0.103-0.237l-9.849-9.748 C34.419,40.585,34.312,40.553,34.205,40.553z M51.032,46c-0.614,0-1.221-0.254-1.663-0.696l-9.645-9.738 c-0.908-0.909-0.909-2.396,0.003-3.309l11.563-11.684c0.434-0.435,1.041-0.681,1.672-0.681c0.005,0,0.01,0,0.015,0 c0.63,0.004,1.231,0.254,1.652,0.687l7.909,7.977c0.887,0.903,1.394,2.146,1.394,3.411c0,1.282-0.493,2.492-1.39,3.406 l-9.846,9.928C52.245,45.753,51.655,46,51.032,46z M52.962,21.893c-0.102,0-0.195,0.033-0.252,0.09L41.146,33.666 c-0.137,0.138-0.138,0.354-0.004,0.488l9.645,9.738c0.134,0.136,0.352,0.14,0.493-0.003l9.839-9.921 c0.516-0.526,0.813-1.257,0.813-2.002c0-0.746-0.298-1.478-0.817-2.007l-7.912-7.979C53.146,21.923,53.04,21.896,52.962,21.893z M12.7,45.353c-0.568,0-1.122-0.223-1.562-0.627l-9.662-9.305C0.524,34.502,0,33.275,0,31.967c0-1.319,0.524-2.55,1.477-3.467 l9.646-9.276c0.667-0.641,1.679-0.812,2.514-0.431C14.456,19.145,15,19.986,15,20.927v22.081c0,0.916-0.535,1.753-1.363,2.133 C13.349,45.278,13.028,45.353,12.7,45.353z M12.693,20.591c-0.07,0-0.134,0.026-0.183,0.073l-9.647,9.277 C2.307,30.477,2,31.196,2,31.967c0,0.761,0.307,1.476,0.864,2.014l9.646,9.289c0.052,0.047,0.127,0.083,0.19,0.083l0.103-0.03 C12.919,43.27,13,43.14,13,43.008V20.927c0-0.136-0.072-0.262-0.175-0.306C12.78,20.601,12.735,20.591,12.693,20.591z M22.355,41.26c-0.299,0-0.601-0.062-0.896-0.185C20.59,40.727,20,39.856,20,38.914V11.057c0-0.639,0.259-1.248,0.709-1.671 l7.911-7.961C29.529,0.507,30.745,0,32.041,0c1.288,0,2.499,0.507,3.409,1.426l12.111,12.171c0.895,0.908,0.896,2.383,0.008,3.291 l-0.006,0.005L24.028,40.561C23.581,41.006,22.973,41.26,22.355,41.26z M32.041,2c-0.758,0-1.469,0.296-2.002,0.834l-7.937,7.985 C22.03,10.888,22,10.972,22,11.057v27.857c0,0.13,0.09,0.26,0.214,0.31c0.212,0.088,0.304,0.02,0.399-0.076l23.528-23.661 c0.132-0.137,0.131-0.348-0.001-0.482L34.031,2.835C33.497,2.296,32.791,2,32.041,2z"/></svg>