<svg xmlns="http://www.w3.org/2000/svg"  viewBox="0 0 64 64" width="64px" height="64px"><path fill="#a183b5" d="M59,36c-4.333,5-8.667,10-13,15c-3.333,0-6.667,0-10,0c-3.576,2.994-7.152,5.988-10.727,8.982	C23.515,59.988,21.758,59.994,20,60c0-3,0-6,0-9c-4.667,0-9.333,0-14,0c0-10.818,0-21.636,0-32.455	c1.927-4.176,3.855-8.352,5.782-12.527c15.739,0,31.479,0,47.218,0C59,16.012,59,26.006,59,36z"/><path fill="#faefde" d="M15,20c0-3,0-6,0-9c13,0,26,0,39,0c0,7.678,0,15.356,0,23.034c-2.333,2.655-4.667,5.311-7,7.966	c-3.333,0-6.667,0-10,0c-3.667,3-7.333,6-11,9c0-3,0-6,0-9c-3.667,0-7.333,0-11,0c0-3,0-6,0-9"/><path fill="#8d6c9f" d="M15,29c-0.553,0-1-0.448-1-1v-3c0-0.552,0.447-1,1-1s1,0.448,1,1v3C16,28.552,15.553,29,15,29z"/><path fill="#8d6c9f" d="M6,59c-0.553,0-1-0.448-1-1v-2c0-0.552,0.447-1,1-1s1,0.448,1,1v2C7,58.552,6.553,59,6,59z"/><path fill="#8d6c9f" d="M11,59c-0.553,0-1-0.448-1-1v-2c0-0.552,0.447-1,1-1s1,0.448,1,1v2C12,58.552,11.553,59,11,59z"/><path fill="#8d6c9f" d="M16,59c-0.553,0-1-0.448-1-1v-2c0-0.552,0.447-1,1-1s1,0.448,1,1v2C17,58.552,16.553,59,16,59z"/><path fill="#8d6c9f" d="M36,59c-0.553,0-1-0.448-1-1v-2c0-0.552,0.447-1,1-1s1,0.448,1,1v2C37,58.552,36.553,59,36,59z"/><path fill="#8d6c9f" d="M41,59c-0.553,0-1-0.448-1-1v-2c0-0.552,0.447-1,1-1s1,0.448,1,1v2C42,58.552,41.553,59,41,59z"/><path fill="#8d6c9f" d="M46,59c-0.553,0-1-0.448-1-1v-2c0-0.552,0.447-1,1-1s1,0.448,1,1v2C47,58.552,46.553,59,46,59z"/><path fill="#fff8ee" d="M48,16H21c-2.761,0-5-2.239-5-5v0h37v0C53,13.761,50.761,16,48,16z"/><path fill="#8d6c9f" d="M20,61c-0.265,0-0.519-0.105-0.706-0.292C19.105,60.521,19,60.266,19,60v-8H6c-0.553,0-1-0.448-1-1	V18.545c0-0.145,0.031-0.288,0.092-0.419l5.782-12.527c0.164-0.354,0.519-0.581,0.908-0.581H59c0.553,0,1,0.448,1,1V36	c0,0.241-0.087,0.473-0.244,0.655l-13,15C46.565,51.874,46.29,52,46,52h-9.637l-10.449,8.749c-0.179,0.15-0.404,0.232-0.639,0.233	L20.003,61C20.002,61,20.001,61,20,61z M7,50h13c0.553,0,1,0.448,1,1v7.997l3.907-0.013l10.451-8.75C35.538,50.083,35.766,50,36,50	h9.543L58,35.627V7.018H12.422L7,18.765V50z M59,36h0.01H59z"/><path fill="#8d6c9f" d="M26,52c-0.146,0-0.292-0.032-0.429-0.096C25.223,51.738,25,51.386,25,51v-8H15c-0.553,0-1-0.448-1-1	v-9c0-0.552,0.447-1,1-1s1,0.448,1,1v8h10c0.553,0,1,0.448,1,1v6.89l9.367-7.664C36.546,41.08,36.77,41,37,41h9.548L53,33.657V12H16	v8c0,0.552-0.447,1-1,1s-1-0.448-1-1v-9c0-0.552,0.447-1,1-1h39c0.553,0,1,0.448,1,1v23.034c0,0.243-0.089,0.478-0.249,0.66	l-7,7.966C47.562,42.876,47.288,43,47,43h-9.643l-10.725,8.774C26.451,51.923,26.227,52,26,52z"/><rect width="5" height="14" x="28" y="19" fill="#a183b5"/><rect width="5" height="14" x="41" y="19" fill="#a183b5"/><path fill="#8d6c9f" d="M33,34h-5c-0.553,0-1-0.448-1-1V19c0-0.552,0.447-1,1-1h5c0.553,0,1,0.448,1,1v14	C34,33.552,33.553,34,33,34z M29,32h3V20h-3V32z"/><path fill="#8d6c9f" d="M46,34h-5c-0.553,0-1-0.448-1-1V19c0-0.552,0.447-1,1-1h5c0.553,0,1,0.448,1,1v14	C47,33.552,46.553,34,46,34z M42,32h3V20h-3V32z"/></svg>