<svg xmlns="http://www.w3.org/2000/svg"  viewBox="0 0 64 64" width="64px" height="64px" baseProfile="basic"><path fill="#c2cde7" d="M59,37H33c-1.105,0-2-0.895-2-2v-6c0-1.105,0.895-2,2-2h26c1.105,0,2,0.895,2,2v6 C61,36.105,60.105,37,59,37z"/><circle cx="55" cy="32" r="1.5" fill="#5dbc9d"/><path fill="#8d6c9f" d="M59,26H33c-1.654,0-3,1.346-3,3v6c0,1.654,1.346,3,3,3h26c1.654,0,3-1.346,3-3v-6 C62,27.346,60.654,26,59,26z M60,35c0,0.551-0.448,1-1,1H33c-0.552,0-1-0.449-1-1v-6c0-0.551,0.448-1,1-1h26c0.552,0,1,0.449,1,1 V35z"/><path fill="#8d6c9f" d="M49,31H36c-0.553,0-1,0.448-1,1s0.447,1,1,1h13c0.553,0,1-0.448,1-1S49.553,31,49,31z"/><path fill="#c2cde7" d="M59,27H33c-1.105,0-2-0.895-2-2V5c0-1.105,0.895-2,2-2h26c1.105,0,2,0.895,2,2v20 C61,26.105,60.105,27,59,27z"/><path fill="#8d6c9f" d="M59,2H33c-1.654,0-3,1.346-3,3v20c0,1.654,1.346,3,3,3h26c1.654,0,3-1.346,3-3V5 C62,3.346,60.654,2,59,2z M60,25c0,0.551-0.448,1-1,1H33c-0.552,0-1-0.449-1-1V5c0-0.551,0.448-1,1-1h26c0.552,0,1,0.449,1,1V25z"/><rect width="20" height="14" x="36" y="8" fill="#85cbf8"/><polygon fill="#ace3ff" points="56,15 49,22 42,22 56,8"/><path fill="#8d6c9f" d="M56,7H36c-0.553,0-1,0.448-1,1v14c0,0.552,0.447,1,1,1h20c0.553,0,1-0.448,1-1V8 C57,7.448,56.553,7,56,7z M55,21H37V9h18V21z"/><path fill="#c2cde7" d="M31,61H5c-1.105,0-2-0.895-2-2v-6c0-1.105,0.895-2,2-2h26c1.105,0,2,0.895,2,2v6 C33,60.105,32.105,61,31,61z"/><circle cx="27" cy="56" r="1.5" fill="#5dbc9d"/><path fill="#8d6c9f" d="M31,50H5c-1.654,0-3,1.346-3,3v6c0,1.654,1.346,3,3,3h26c1.654,0,3-1.346,3-3v-6 C34,51.346,32.654,50,31,50z M32,59c0,0.551-0.448,1-1,1H5c-0.552,0-1-0.449-1-1v-6c0-0.551,0.448-1,1-1h26c0.552,0,1,0.449,1,1V59 z"/><path fill="#8d6c9f" d="M21,55H8c-0.553,0-1,0.448-1,1s0.447,1,1,1h13c0.553,0,1-0.448,1-1S21.553,55,21,55z"/><path fill="#c2cde7" d="M31,51H5c-1.105,0-2-0.895-2-2V29c0-1.105,0.895-2,2-2h26c1.105,0,2,0.895,2,2v20 C33,50.105,32.105,51,31,51z"/><path fill="#8d6c9f" d="M31,26H5c-1.654,0-3,1.346-3,3v20c0,1.654,1.346,3,3,3h26c1.654,0,3-1.346,3-3V29 C34,27.346,32.654,26,31,26z M32,49c0,0.551-0.448,1-1,1H5c-0.552,0-1-0.449-1-1V29c0-0.551,0.448-1,1-1h26c0.552,0,1,0.449,1,1V49 z"/><rect width="20" height="14" x="8" y="32" fill="#85cbf8"/><polygon fill="#ace3ff" points="8,39 15,32 22,32 8,46"/><path fill="#8d6c9f" d="M28,31H8c-0.553,0-1,0.448-1,1v14c0,0.552,0.447,1,1,1h20c0.553,0,1-0.448,1-1V32 C29,31.448,28.553,31,28,31z M27,45H9V33h18V45z"/><polygon fill="#f9e3ae" points="43,12 20,27 28,27 21,42 44,27 36,27"/><path fill="#8d6c9f" d="M21,43c-0.234,0-0.469-0.083-0.655-0.245c-0.338-0.293-0.439-0.773-0.251-1.178L26.43,28H20 c-0.442,0-0.832-0.291-0.959-0.715c-0.126-0.424,0.042-0.881,0.413-1.123l23-15c0.372-0.243,0.864-0.21,1.201,0.082 c0.338,0.293,0.439,0.773,0.251,1.178L37.57,26H44c0.442,0,0.832,0.291,0.959,0.715c0.126,0.424-0.042,0.881-0.413,1.123l-23,15 C21.38,42.946,21.189,43,21,43z M23.364,26H28c0.342,0,0.66,0.174,0.844,0.463c0.184,0.288,0.207,0.65,0.062,0.96l-5.519,11.826 L40.636,28H36c-0.342,0-0.66-0.174-0.844-0.463c-0.184-0.288-0.207-0.65-0.062-0.96l5.519-11.826L23.364,26z"/><path fill="#8d6c9f" d="M53,45c-0.553,0-1-0.448-1-1v-2c0-0.552,0.447-1,1-1s1,0.448,1,1v2C54,44.552,53.553,45,53,45z"/><path fill="#8d6c9f" d="M48,45c-0.553,0-1-0.448-1-1v-2c0-0.552,0.447-1,1-1s1,0.448,1,1v2C49,44.552,48.553,45,48,45z"/><path fill="#8d6c9f" d="M43,45c-0.553,0-1-0.448-1-1v-2c0-0.552,0.447-1,1-1s1,0.448,1,1v2C44,44.552,43.553,45,43,45z"/><path fill="#8d6c9f" d="M38,45c-0.553,0-1-0.448-1-1v-2c0-0.552,0.447-1,1-1s1,0.448,1,1v2C39,44.552,38.553,45,38,45z"/><path fill="#8d6c9f" d="M15,23c-0.553,0-1-0.448-1-1v-2c0-0.552,0.447-1,1-1s1,0.448,1,1v2C16,22.552,15.553,23,15,23z"/><path fill="#8d6c9f" d="M10,23c-0.553,0-1-0.448-1-1v-2c0-0.552,0.447-1,1-1s1,0.448,1,1v2C11,22.552,10.553,23,10,23z"/><path fill="#8d6c9f" d="M5,23c-0.553,0-1-0.448-1-1v-2c0-0.552,0.447-1,1-1s1,0.448,1,1v2C6,22.552,5.553,23,5,23z"/><path fill="#8d6c9f" d="M58,45c-0.553,0-1-0.448-1-1v-2c0-0.552,0.447-1,1-1s1,0.448,1,1v2C59,44.552,58.553,45,58,45z"/><path fill="#8d6c9f" d="M20,23c-0.553,0-1-0.448-1-1v-2c0-0.552,0.447-1,1-1s1,0.448,1,1v2C21,22.552,20.553,23,20,23z"/></svg>