<svg xmlns="http://www.w3.org/2000/svg"  viewBox="0 0 64 64" width="64px" height="64px"><path fill="#7e8089" d="M49.959,10l3.425,1.877c0.216,0.119,0.406,0.25,0.563,0.391c0.582,0.521,0.865,1.051,0.865,1.623	c0,0.684-0.472,1.788-1.156,3.393c-0.176,0.41-0.363,0.849-0.55,1.3L43.089,41.565l-6.353-13.374l5.625-11.435	c0.836-2.021,2.143-3.47,3.078-4.317c0.235-0.206,0.51-0.394,0.816-0.56L49.724,10H36.148l2.954,1.848	c0.189,0.119,0.37,0.255,0.554,0.42c0.583,0.521,0.866,1.052,0.866,1.623c0,0.684-0.47,1.784-1.145,3.361	c-0.178,0.418-0.37,0.868-0.53,1.268l-3.518,6.714l-3.278-6.901c-0.92-2.076-1.386-3.62-1.385-4.59	c-0.001-0.697,0.28-1.277,0.833-1.721c0.078-0.062,0.159-0.121,0.246-0.176L34.665,10H18.331l3.485,1.88	c0.604,0.327,1.129,0.757,1.572,1.294l0.165,0.193c0.424,0.487,1.306,1.501,1.976,3.015l6.675,14.811l-5.439,10.371L14.477,18.37	c-0.933-2.096-1.405-3.653-1.405-4.626c0-0.699,0.281-1.279,0.834-1.723c0.078-0.062,0.159-0.121,0.246-0.176L17.07,10H0.734	l3.486,1.88c0.606,0.327,1.131,0.757,1.571,1.293l0.164,0.191c0.425,0.488,1.308,1.502,1.992,3.046l17.216,35.292l8.5-17.27	l7.838,17.395l15.13-35.025c0.854-2.06,2.163-3.516,3.099-4.363c0.237-0.208,0.511-0.396,0.812-0.562L63.979,10H49.959z"/><path fill="#8d6c9f" d="M49,58v-2c0-0.553-0.447-1-1-1s-1,0.447-1,1v2c0,0.553,0.447,1,1,1S49,58.553,49,58z"/><path fill="#8d6c9f" d="M44,58v-2c0-0.553-0.447-1-1-1s-1,0.447-1,1v2c0,0.553,0.447,1,1,1S44,58.553,44,58z"/><path fill="#8d6c9f" d="M39,58v-2c0-0.553-0.447-1-1-1s-1,0.447-1,1v2c0,0.553,0.447,1,1,1S39,58.553,39,58z"/><path fill="#8d6c9f" d="M34,58v-2c0-0.553-0.447-1-1-1s-1,0.447-1,1v2c0,0.553,0.447,1,1,1S34,58.553,34,58z"/><path fill="#8d6c9f" d="M29,58v-2c0-0.553-0.447-1-1-1s-1,0.447-1,1v2c0,0.553,0.447,1,1,1S29,58.553,29,58z"/><path fill="#8d6c9f" d="M24,58v-2c0-0.553-0.447-1-1-1s-1,0.447-1,1v2c0,0.553,0.447,1,1,1S24,58.553,24,58z"/><path fill="#8d6c9f" d="M19,58v-2c0-0.553-0.447-1-1-1s-1,0.447-1,1v2c0,0.553,0.447,1,1,1S19,58.553,19,58z"/><g><path fill="#8d6c9f" d="M42.043,52h-1.105c-0.394,0-0.75-0.23-0.912-0.589l-6.401-14.207l-7.008,14.237 C26.447,51.783,26.1,52,25.719,52h-1.105c-0.382,0-0.731-0.218-0.898-0.562L7.034,17.241c-0.623-1.404-1.41-2.309-1.833-2.795 l-0.194-0.228c-0.398-0.484-0.899-0.871-1.488-1.147c-0.615-0.288-1.489-0.479-2.598-0.566C0.401,12.463,0,12.029,0,11.507v-1.082 c0-0.552,0.447-1,1-1h16.23c0.354,0,0.666,0.184,0.843,0.462c0.178-0.278,0.489-0.462,0.844-0.462h15.909 c0.364,0,0.683,0.195,0.857,0.486c0.176-0.291,0.494-0.486,0.858-0.486h12.167c0.396,0,0.738,0.23,0.9,0.564 c0.162-0.334,0.504-0.564,0.9-0.564H63c0.553,0,1,0.448,1,1v1.082c0,0.485-0.348,0.9-0.826,0.985 c-1.245,0.22-2.179,0.595-2.773,1.114c-0.858,0.778-2.063,2.118-2.851,4.018L42.961,51.396C42.803,51.763,42.442,52,42.043,52z M4.695,11.425c0.721,0.389,1.345,0.9,1.857,1.524l0.157,0.184c0.457,0.525,1.408,1.618,2.137,3.264l16.321,33.458l7.599-15.438 c0.169-0.343,0.517-0.559,0.897-0.559c0.006,0,0.012,0,0.017,0c0.388,0.007,0.736,0.236,0.896,0.589l6.906,15.328l14.226-32.931 c0.924-2.229,2.34-3.805,3.364-4.733c0.294-0.257,0.624-0.486,0.991-0.687h-6.199c0.284,0.156,0.533,0.329,0.749,0.522 c0.796,0.711,1.199,1.508,1.199,2.369c0,0.889-0.479,2.012-1.205,3.711c-0.183,0.427-0.38,0.888-0.584,1.381L44.006,42.39 c-0.157,0.359-0.509,0.594-0.9,0.601c-0.006,0-0.012,0-0.017,0c-0.386,0-0.737-0.222-0.903-0.571l-6.353-13.373 c-0.131-0.276-0.129-0.597,0.006-0.871L41.438,16.8c0.903-2.184,2.319-3.76,3.344-4.688c0.292-0.255,0.625-0.484,0.998-0.687 h-6.146c0.241,0.151,0.469,0.324,0.689,0.522c0.796,0.711,1.2,1.508,1.2,2.368c0,0.887-0.478,2.006-1.201,3.699 c-0.184,0.431-0.382,0.895-0.588,1.393l-3.518,6.714c-0.176,0.336-0.562,0.534-0.905,0.536c-0.379-0.008-0.722-0.229-0.884-0.571 l-3.289-6.925c-0.994-2.244-1.472-3.869-1.471-4.994c-0.001-1,0.417-1.867,1.209-2.504c0.106-0.085,0.218-0.165,0.336-0.239h-8.921 c0.719,0.388,1.343,0.899,1.856,1.523l0.161,0.188c0.457,0.525,1.406,1.619,2.133,3.261l6.675,14.811 c0.126,0.28,0.116,0.603-0.026,0.875L27.65,42.455c-0.173,0.328-0.513,0.534-0.884,0.535c-0.001,0-0.001,0-0.002,0 c-0.37,0-0.71-0.205-0.884-0.532L13.562,19.202c-1.014-2.279-1.491-3.905-1.491-5.032c0-1.002,0.419-1.869,1.21-2.505 c0.106-0.085,0.218-0.165,0.336-0.239H4.695z M18.073,12.045c-0.16,0.252-0.432,0.428-0.749,0.458 c-1.922,0.181-2.513,0.498-2.789,0.72c-0.321,0.258-0.464,0.549-0.464,0.946c0,0.571,0.224,1.756,1.289,4.159L26.76,39.846 l4.333-8.26l-6.478-14.373c-0.607-1.373-1.394-2.278-1.816-2.764l-0.197-0.232c-0.404-0.49-0.892-0.866-1.488-1.146 c-0.643-0.302-1.196-0.481-2.275-0.566C18.515,12.479,18.237,12.301,18.073,12.045z M37.847,28.625l5.203,10.953l9.133-20.951 c0.2-0.484,0.4-0.952,0.585-1.385c0.537-1.257,1.045-2.445,1.045-2.925c0-0.267-0.179-0.562-0.532-0.878 c-0.295-0.264-0.954-0.626-2.416-0.855c-0.132-0.025-0.291-0.052-0.516-0.089c-0.33-0.054-0.602-0.266-0.739-0.552 c-0.136,0.282-0.401,0.492-0.726,0.55c-1.246,0.221-2.18,0.595-2.774,1.114c-0.858,0.778-2.063,2.118-2.851,4.018L37.847,28.625z M35.685,12.021c-0.159,0.265-0.438,0.451-0.765,0.481c-1.923,0.181-2.514,0.498-2.79,0.72c-0.321,0.258-0.464,0.549-0.463,0.945 c-0.001,0.572,0.223,1.755,1.288,4.16l2.419,5.093l2.55-4.859c0.171-0.423,0.372-0.895,0.559-1.332 c0.535-1.252,1.04-2.436,1.04-2.914c0-0.266-0.18-0.562-0.533-0.878c-0.377-0.337-0.819-0.655-2.094-0.855 c-0.132-0.025-0.29-0.052-0.515-0.089C36.081,12.445,35.831,12.267,35.685,12.021z"/></g></svg>