<svg xmlns="http://www.w3.org/2000/svg"  viewBox="0 0 64 64" width="64px" height="64px" baseProfile="basic"><path fill="#d18b6b" d="M60,32c0,15.4-12.6,28-28,28S4,47.4,4,32S16.6,4,32,4S60,16.6,60,32z"/><path fill="#fff8ee" d="M30.912,17.402c-0.669-0.836-1.672-1.672-3.177-2.508c-2.676-1.338-5.853-2.007-8.863-1.505h-0.669	c-0.167,0-0.334,0.167-0.669,0.167c0.334,0,1.672,0.669,2.676,1.003c-0.502,0.334-1.338,0.334-1.839,0.669c0,0,0,0-0.167,0	l-0.334,0.334c-0.167,0.334-0.334,0.669-0.334,0.836c2.174-0.167,5.351,0,7.692,0.669c-1.839,0.167-3.512,0.669-4.682,1.338	c-0.836,0.502-1.672,1.003-2.174,1.839c-2.007,2.174-2.843,5.853-2.174,9.866c0.836,4.515,4.013,19.063,5.686,27.257l0.154,0.821	c3.026,1.143,6.299,1.774,9.712,1.774c1.827,0,3.612-0.184,5.343-0.526c-0.192-0.286-0.375-0.602-0.493-0.898	c-0.836-1.672-1.672-3.177-2.341-4.348c-2.007-4.181-4.181-9.866-3.177-13.545c0.167-0.669,0.167-3.512,0.669-3.846	c4.348-2.843,4.013-0.167,5.853-1.338c0.836-0.669,1.672-1.505,2.007-2.508c1.171-3.846-1.505-10.702-4.515-13.712	C34.089,18.238,32.584,17.736,30.912,17.402z"/><path fill="#7bbeeb" d="M23.387,27.435c-1.003,0-2.007,0.836-2.007,2.007c0,1.003,0.836,2.007,2.007,2.007	c1.003,0,2.007-0.836,2.007-2.007C25.226,28.439,24.39,27.435,23.387,27.435z M24.223,29.275c-0.334,0-0.502-0.167-0.502-0.502	c0-0.334,0.167-0.502,0.502-0.502c0.334,0,0.502,0.167,0.502,0.502C24.725,29.107,24.39,29.275,24.223,29.275z M36.43,26.599	c-1.003,0-1.672,0.836-1.672,1.672c0,1.003,0.836,1.672,1.672,1.672c1.003,0,1.672-0.836,1.672-1.672	C38.103,27.435,37.267,26.599,36.43,26.599z M37.099,28.104c-0.167,0-0.502-0.167-0.502-0.502c0-0.167,0.167-0.502,0.502-0.502	c0.167,0,0.502,0.167,0.502,0.502C37.601,27.937,37.434,28.104,37.099,28.104z M23.889,23.756c0,0-1.505-0.669-2.843,0.167	c-1.505,0.836-1.338,1.839-1.338,1.839s-0.836-1.672,1.338-2.508C22.885,22.419,23.889,23.756,23.889,23.756 M37.434,23.589	c0,0-1.003-0.669-1.839-0.669c-1.672,0-2.174,0.836-2.174,0.836s0.334-1.839,2.508-1.505C36.932,22.586,37.434,23.589,37.434,23.589"/><path fill="#97e0bb" d="M30.578,51.85c0,0-7.191-3.846-7.358-2.341c-0.167,1.505,0,7.86,0.836,8.361s6.856-3.177,6.856-3.177	L30.578,51.85z M33.42,51.683c0,0,4.849-3.679,6.02-3.512c1.003,0.167,1.338,7.86,0.334,8.194s-6.522-2.007-6.522-2.007	L33.42,51.683z"/><path fill="#5dbc9d" d="M29.24,51.85c0,2.508-0.334,3.512,0.669,3.846c1.003,0.167,3.177,0,3.846-0.502	c0.669-0.502,0.167-3.679-0.167-4.348C33.42,50.345,29.24,50.847,29.24,51.85"/><path fill="#f9dd8f" d="M28.905,36.967c0.167-1.171,3.344-3.512,5.518-3.679c2.174-0.167,2.843-0.167,4.682-0.502	c1.839-0.502,6.522-1.672,7.86-2.174c1.338-0.669,6.856,0.334,3.01,2.508c-1.672,1.003-6.187,2.676-9.532,3.679	c-3.177,1.003-5.184-1.003-6.354,0.669c-0.836,1.338-0.167,3.01,3.679,3.344c5.184,0.502,10.368-2.341,10.87-0.836	s-4.515,3.344-7.692,3.512c-3.01,0-9.365-2.007-10.201-2.676C29.909,40.144,28.738,38.639,28.905,36.967"/><path fill="#8d6c9f" d="M32,60.986c-7.426,0-14.853-2.827-20.506-8.48c-11.307-11.307-11.307-29.705,0-41.012	s29.705-11.307,41.012,0c11.307,11.307,11.307,29.705,0,41.012C46.853,58.159,39.426,60.986,32,60.986z M32,5.013	c-6.914,0-13.828,2.632-19.092,7.896c-10.527,10.527-10.527,27.656,0,38.184s27.656,10.527,38.184,0s10.527-27.656,0-38.184	C45.828,7.645,38.914,5.013,32,5.013z"/><path fill="#8d6c9f" d="M8.234,36.311c-0.491,0-0.92-0.362-0.989-0.862C7.169,34.9,7.551,34.396,8.098,34.32l1.98-0.274	c0.544-0.079,1.052,0.305,1.128,0.853s-0.306,1.053-0.853,1.128l-1.98,0.274C8.326,36.308,8.28,36.311,8.234,36.311z M9.979,41.601	l1.865-0.722c0.515-0.199,0.771-0.778,0.571-1.293c-0.199-0.516-0.778-0.772-1.294-0.572l-1.865,0.722	c-0.515,0.199-0.771,0.778-0.571,1.294c0.153,0.396,0.532,0.639,0.933,0.639C9.738,41.668,9.86,41.646,9.979,41.601z M12.77,46.385	l1.648-1.132c0.455-0.313,0.57-0.935,0.258-1.391c-0.312-0.455-0.936-0.57-1.391-0.258l-1.648,1.132	c-0.455,0.313-0.57,0.935-0.258,1.391c0.193,0.282,0.507,0.434,0.825,0.434C12.399,46.561,12.597,46.504,12.77,46.385z"/><path fill="#8d6c9f" d="M52.174,24.206c-0.387,0-0.754-0.225-0.918-0.601c-0.221-0.507,0.012-1.096,0.518-1.316l1.833-0.798	c0.508-0.222,1.096,0.013,1.316,0.518c0.221,0.507-0.012,1.096-0.518,1.316l-1.833,0.798C52.442,24.18,52.307,24.206,52.174,24.206z M50.501,20.049l1.628-1.162c0.449-0.32,0.554-0.945,0.232-1.395c-0.319-0.449-0.945-0.554-1.395-0.232l-1.628,1.162	c-0.449,0.32-0.554,0.945-0.232,1.395c0.194,0.273,0.502,0.419,0.814,0.419C50.122,20.235,50.325,20.175,50.501,20.049z M47.627,16.492l1.355-1.471c0.374-0.406,0.349-1.039-0.058-1.413c-0.406-0.373-1.038-0.349-1.413,0.058l-1.355,1.471	c-0.374,0.406-0.349,1.039,0.058,1.413c0.192,0.177,0.436,0.265,0.678,0.265C47.161,16.814,47.43,16.706,47.627,16.492z M44.091,13.597l1.022-1.719c0.282-0.476,0.127-1.089-0.348-1.371c-0.477-0.283-1.09-0.125-1.371,0.348l-1.022,1.719	c-0.282,0.476-0.127,1.089,0.348,1.371c0.161,0.096,0.337,0.141,0.511,0.141C43.571,14.085,43.904,13.91,44.091,13.597z M40.033,11.495l0.643-1.894c0.177-0.522-0.103-1.091-0.626-1.269c-0.522-0.178-1.091,0.103-1.269,0.626l-0.643,1.894	c-0.177,0.522,0.103,1.091,0.626,1.269c0.106,0.036,0.215,0.053,0.321,0.053C39.503,12.174,39.892,11.912,40.033,11.495z M35.626,10.282l0.238-1.985c0.065-0.548-0.325-1.046-0.874-1.112c-0.552-0.07-1.046,0.327-1.112,0.874l-0.238,1.985	c-0.065,0.548,0.325,1.046,0.874,1.112c0.04,0.005,0.081,0.007,0.12,0.007C35.133,11.163,35.564,10.79,35.626,10.282z"/></svg>