<svg xmlns="http://www.w3.org/2000/svg"  viewBox="0 0 64 64" width="64px" height="64px"><path fill="#c5e4fa" d="M43 9H61V41H43z"/><path fill="#e3f2ff" d="M52,51H37V19h15c0.552,0,1,0.448,1,1v30C53,50.552,52.552,51,52,51z"/><path fill="#72caaf" d="M36.832,57.948c0,0.426-0.235,0.688-0.376,0.805c-0.141,0.118-0.435,0.304-0.859,0.231h0.001 l-30.69-5.416c-1.007-0.178-1.738-1.049-1.738-2.072V10.504c0-1.023,0.731-1.894,1.738-2.072l30.69-5.416 c0.424-0.071,0.719,0.113,0.859,0.231c0.141,0.117,0.376,0.379,0.376,0.805V57.948z"/><path fill="#c5e4fa" d="M37 19H43V51H37z"/><path fill="#5dbc9d" d="M7.031,30c-2.221,0-4.017,1.81-4,4.031l0.137,17.465c0,1.023,0.731,1.894,1.738,2.072l30.69,5.416h0 c0.424,0.073,0.719-0.113,0.859-0.231c0.141-0.117,0.376-0.379,0.376-0.805l0.144-23.923c0.013-2.219-1.781-4.024-4-4.024H7.031z"/><path fill="#97e0bb" d="M36.456,3.247c-0.141-0.118-0.435-0.302-0.859-0.231L4.907,8.432 C3.899,8.61,3.168,9.481,3.168,10.504v4c0-1.023,0.731-1.894,1.738-2.072l30.69-5.416c0.424-0.071,0.719,0.113,0.859,0.231 c0.141,0.117,0.376,0.379,0.376,0.805v-4C36.832,3.626,36.596,3.364,36.456,3.247z"/><path fill="#ffeb9b" d="M37,25h7c0.552,0,1,0.448,1,1v4c0,0.552-0.448,1-1,1h-7L37,25z"/><path fill="#8d6c9f" d="M59,8H45c-1.654,0-3,1.346-3,3v7h-4V5.384c0-0.889-0.391-1.727-1.072-2.298 c-0.681-0.571-1.573-0.813-2.45-0.656L5.305,7.578C3.39,7.916,2,9.572,2,11.517v38.967c0,1.944,1.39,3.601,3.305,3.938 l29.174,5.148h0c0.174,0.031,0.349,0.046,0.523,0.046c0.7,0,1.381-0.244,1.926-0.702C37.609,58.343,38,57.505,38,56.616V52h13 c1.654,0,3-1.346,3-3v-7h5c1.654,0,3-1.346,3-3V11C62,9.346,60.654,8,59,8z M44,11.505L49.773,18H44V11.505z M38,26h6v4h-6V26z M36,56.616c0,0.405-0.224,0.654-0.357,0.766c-0.134,0.112-0.414,0.287-0.817,0.22h0L5.652,52.453C4.695,52.284,4,51.456,4,50.483 V11.517c0-0.973,0.695-1.801,1.652-1.97l29.173-5.148c0.403-0.069,0.683,0.107,0.817,0.22C35.776,4.729,36,4.979,36,5.384V56.616z M52,49c0,0.552-0.449,1-1,1H38v-4h7c0.552,0,1-0.447,1-1s-0.448-1-1-1h-7v-2h7c0.552,0,1-0.447,1-1s-0.448-1-1-1h-7v-2h7 c0.552,0,1-0.447,1-1s-0.448-1-1-1h-7v-4h6c1.103,0,2-0.897,2-2v-4c0-1.103-0.897-2-2-2h-6v-4h13c0.551,0,1,0.448,1,1V49z M60,39 c0,0.552-0.449,1-1,1h-5V21c0-0.904-0.41-1.706-1.044-2.256c-0.039-0.146-0.101-0.287-0.208-0.408L45.338,10H59 c0.551,0,1,0.448,1,1V39z"/><path fill="#faefde" d="M21,20h-6c-0.552,0-1,0.447-1,1v20c0,0.553,0.448,1,1,1s1-0.447,1-1v-7h5c2.757,0,5-2.243,5-5v-4 C26,22.243,23.757,20,21,20z M24,29c0,1.654-1.346,3-3,3h-5V22h5c1.654,0,3,1.346,3,3V29z"/></svg>