<svg xmlns="http://www.w3.org/2000/svg"  viewBox="0 0 64 64" width="64px" height="64px"><path fill="#faefde" d="M13,7h38c3.314,0,6,2.686,6,6v38c0,3.314-2.686,6-6,6H13c-3.314,0-6-2.686-6-6V13	C7,9.686,9.686,7,13,7z"/><path fill="#fff8ee" d="M11,7h42c2.209,0,4,1.791,4,4l0,0c0,1.657-1.343,3-3,3H10c-1.657,0-3-1.343-3-3l0,0	C7,8.791,8.791,7,11,7z"/><path fill="#8d6c9f" d="M51,6H13c-3.866,0-7,3.134-7,7v38c0,3.866,3.134,7,7,7h38c3.866,0,7-3.134,7-7V13	C58,9.134,54.866,6,51,6z M56,51c0,2.761-2.239,5-5,5H13c-2.761,0-5-2.239-5-5V13c0-2.761,2.239-5,5-5h38c2.761,0,5,2.239,5,5V51z"/><path fill="#8d6c9f" d="M17,16c0.552,0,1-0.448,1-1v-2c0-0.552-0.448-1-1-1s-1,0.448-1,1v2C16,15.552,16.448,16,17,16z M12,12c-0.552,0-1,0.448-1,1v2c0,0.552,0.448,1,1,1s1-0.448,1-1v-2C13,12.448,12.552,12,12,12z M32,16c0.552,0,1-0.448,1-1v-2	c0-0.552-0.448-1-1-1s-1,0.448-1,1v2C31,15.552,31.448,16,32,16z M37,16c0.552,0,1-0.448,1-1v-2c0-0.552-0.448-1-1-1s-1,0.448-1,1v2	C36,15.552,36.448,16,37,16z M42,16c0.552,0,1-0.448,1-1v-2c0-0.552-0.448-1-1-1s-1,0.448-1,1v2C41,15.552,41.448,16,42,16z M47,16	c0.552,0,1-0.448,1-1v-2c0-0.552-0.448-1-1-1s-1,0.448-1,1v2C46,15.552,46.448,16,47,16z M52,12c-0.552,0-1,0.448-1,1v2	c0,0.552,0.448,1,1,1s1-0.448,1-1v-2C53,12.448,52.552,12,52,12z M22,16c0.552,0,1-0.448,1-1v-2c0-0.552-0.448-1-1-1s-1,0.448-1,1v2	C21,15.552,21.448,16,22,16z M27,16c0.552,0,1-0.448,1-1v-2c0-0.552-0.448-1-1-1s-1,0.448-1,1v2C26,15.552,26.448,16,27,16z"/><circle cx="21" cy="36" r="8" fill="#7bbeeb"/><path fill="#8d6c9f" d="M21,45c-4.962,0-9-4.038-9-9s4.038-9,9-9s9,4.038,9,9S25.962,45,21,45z M21,29c-3.86,0-7,3.14-7,7 s3.14,7,7,7s7-3.14,7-7S24.86,29,21,29z"/><g><circle cx="43" cy="36" r="8" fill="#ed7899"/><path fill="#8d6c9f" d="M43,45c-4.962,0-9-4.038-9-9s4.038-9,9-9s9,4.038,9,9S47.962,45,43,45z M43,29c-3.86,0-7,3.14-7,7 s3.14,7,7,7s7-3.14,7-7S46.86,29,43,29z"/></g></svg>