<svg xmlns="http://www.w3.org/2000/svg"  viewBox="0 0 64 64" width="64px" height="64px"><path fill="#f9e3ae" d="M13,20v5h6V19A12,12,0,0,1,31,7h2A12,12,0,0,1,45,19v6h6V20A19,19,0,0,0,32,1h0A19,19,0,0,0,13,20Z"/><path fill="#f9e3ae" d="M13,20v5h6V19A12,12,0,0,1,31,7h2A12,12,0,0,1,45,19v6h6V20A19,19,0,0,0,32,1h0A19,19,0,0,0,13,20Z"/><path fill="#f5c872" d="M29 1H35V7H29z"/><rect width="50" height="34" x="7" y="25" fill="#c2cde7" rx="3" ry="3"/><path fill="#acb7d0" d="M11,40H53a4,4,0,0,1,4,4V56a3,3,0,0,1-3,3H10a3,3,0,0,1-3-3V44A4,4,0,0,1,11,40Z"/><path fill="#f5c872" d="M32 31A9 9 0 1 0 32 49A9 9 0 1 0 32 31Z"/><path fill="#ffeb9b" d="M32 35A5 5 0 1 0 32 45A5 5 0 1 0 32 35Z"/><path fill="#8d6c9f" d="M55,24H52V19A19,19,0,0,0,33,0H31A19,19,0,0,0,12,19v5H9a3,3,0,0,0-3,3V57a3,3,0,0,0,3,3H55a3,3,0,0,0,3-3V27A3,3,0,0,0,55,24Zm-5-5v5H46V19A13,13,0,0,0,36,6.36V2.28A17,17,0,0,1,50,19ZM31,8h2A11,11,0,0,1,44,19v5H20V19A11,11,0,0,1,31,8Zm2-6c.34,0,.67,0,1,.05v4C33.67,6,33.34,6,33,6H31c-.34,0-.67,0-1,.05v-4c.33,0,.66-.05,1-.05ZM14,19A17,17,0,0,1,28,2.28V6.36A13,13,0,0,0,18,19v5H14ZM56,57a1,1,0,0,1-1,1H9a1,1,0,0,1-1-1V27a1,1,0,0,1,1-1H55a1,1,0,0,1,1,1Z"/><path fill="#8d6c9f" d="M32,50A10,10,0,1,0,22,40,10,10,0,0,0,32,50Zm0-18a8,8,0,1,1-8,8A8,8,0,0,1,32,32Z"/><path fill="#8d6c9f" d="M32 36.83a1 1 0 0 0 1-1V34a1 1 0 0 0-2 0v1.83A1 1 0 0 0 32 36.83zM32 46.83a1 1 0 0 0 1-1V44a1 1 0 0 0-2 0v1.83A1 1 0 0 0 32 46.83zM28.83 40a1 1 0 0 0-1-1H26a1 1 0 0 0 0 2h1.83A1 1 0 0 0 28.83 40zM35.17 40a1 1 0 0 0 1 1H38a1 1 0 0 0 0-2H36.17A1 1 0 0 0 35.17 40zM28.41 37.74a1 1 0 0 0 1.41-1.41L28.52 35a1 1 0 0 0-1.41 1.41zM35.48 44.81a1 1 0 0 0 1.41-1.41l-1.3-1.3a1 1 0 0 0-1.41 1.41zM28.41 42.21l-1.3 1.3a1 1 0 1 0 1.41 1.41l1.3-1.3a1 1 0 0 0-1.41-1.41zM35 38a1 1 0 0 0 .71-.29l1.3-1.3A1 1 0 0 0 35.59 35l-1.3 1.3A1 1 0 0 0 35 38zM53 54H49a1 1 0 0 0 0 2h4a1 1 0 0 0 0-2zM45 54H11a1 1 0 0 0 0 2H45a1 1 0 0 0 0-2z"/></svg>