<svg xmlns="http://www.w3.org/2000/svg"  viewBox="0 0 64 64" width="64px" height="64px"><path fill="#f6d397" d="M11,57V7c0-1.105,0.895-2,2-2h29.343c1.061,0,2.078,0.421,2.828,1.172l8.657,8.657 c0.75,0.75,1.172,1.768,1.172,2.828V57c0,1.105-0.895,2-2,2l-40,0C11.895,59,11,58.104,11,57z"/><path fill="#f9e3ae" d="M55 29L25 59H11l-.04-2.66-.03-1.75-.08-5.05.08-.08 38.75-38.74 4.37 4.37c.24.24.44.52.57.82l.31 10.66L55 29zM47.48 8.52L11 45l-.07-2.73-.08-3.12.08-.08L44.45 5.55c.13.08.25.19.36.3L47.48 8.52zM10.853 33.147L39 5 42 5 10.853 36.147z"/><path fill="#f5c872" d="M23 29H43V41H23z"/><path fill="#fff8f8" d="M20.424 16.027L19.186 18.291 16.922 19.529 19.186 20.767 20.424 23.031 21.663 20.767 23.926 19.529 21.663 18.291zM35.508 10.031L34.653 11.595 33.089 12.45 34.653 13.305 35.508 14.869 36.363 13.305 37.926 12.45 36.363 11.595zM50.279 42.031L49.696 43.097 48.631 43.679 49.696 44.262 50.279 45.327 50.861 44.262 51.926 43.679 50.861 43.097z"/><path fill="#faefde" d="M43 27v2H23v-2c0-1.1.9-2 2-2h16C42.1 25 43 25.9 43 27zM23 41h20v2c0 1.1-.9 2-2 2H25c-1.1 0-2-.9-2-2V41z"/><path fill="#85cbf8" d="M43 6L43 16 45 17 54.946 17 44 6z"/><path fill="#8d6c9f" d="M54.536,14.121l-8.657-8.656C44.936,4.521,43.68,4,42.343,4H13c-1.654,0-3,1.346-3,3v50 c0,1.654,1.346,3,3,3h40c1.654,0,3-1.346,3-3V17.656C56,16.32,55.48,15.065,54.536,14.121z M53.122,15.535 c0.142,0.142,0.268,0.298,0.377,0.465H45c-0.551,0-1-0.448-1-1V6.499c0.165,0.11,0.321,0.237,0.464,0.38L53.122,15.535z M53,58H13 c-0.551,0-1-0.448-1-1V7c0-0.552,0.449-1,1-1h29v9c0,1.654,1.346,3,3,3h9v39C54,57.552,53.551,58,53,58z"/><path fill="#8d6c9f" d="M15 50c-.552 0-1 .447-1 1v2c0 .553.448 1 1 1s1-.447 1-1v-2C16 50.447 15.552 50 15 50zM20 50c-.552 0-1 .447-1 1v2c0 .553.448 1 1 1s1-.447 1-1v-2C21 50.447 20.552 50 20 50zM25 50c-.552 0-1 .447-1 1v2c0 .553.448 1 1 1s1-.447 1-1v-2C26 50.447 25.552 50 25 50zM30 50c-.552 0-1 .447-1 1v2c0 .553.448 1 1 1s1-.447 1-1v-2C31 50.447 30.552 50 30 50zM35 50c-.552 0-1 .447-1 1v2c0 .553.448 1 1 1s1-.447 1-1v-2C36 50.447 35.552 50 35 50zM40 50c-.552 0-1 .447-1 1v2c0 .553.448 1 1 1s1-.447 1-1v-2C41 50.447 40.552 50 40 50zM45 50c-.552 0-1 .447-1 1v2c0 .553.448 1 1 1s1-.447 1-1v-2C46 50.447 45.552 50 45 50zM50 50c-.552 0-1 .447-1 1v2c0 .553.448 1 1 1s1-.447 1-1v-2C51 50.447 50.552 50 50 50zM44 27c0-1.654-1.346-3-3-3H25c-1.654 0-3 1.346-3 3v16c0 1.654 1.346 3 3 3h16c1.654 0 3-1.346 3-3V27zM24 30h18v10H24V30zM25 26h16c.551 0 1 .448 1 1v1H24v-1C24 26.448 24.449 26 25 26zM41 44H25c-.551 0-1-.448-1-1v-1h18v1C42 43.552 41.551 44 41 44z"/></svg>