<svg xmlns="http://www.w3.org/2000/svg"  viewBox="0 0 64 64" width="64px" height="64px"><path fill="#72caaf" d="M24,44.2C11.71,42.67,7,29.25,7,29.25S13.25,20,24,20v-3C9.38,17,1,28.62,1,28.62 S7.28,46.3,24.03,47.87L24,44.2z M17.14,29.99l0.16-0.16C18.16,29.06,20.75,27,24,27v-3c-0.3,0-0.61,0.01-0.9,0.03 c-0.04,0-0.07,0-0.11,0.01c-0.17,0.01-0.34,0.02-0.51,0.04c-0.39,0.04-0.78,0.09-1.15,0.16c-0.21,0.04-0.41,0.08-0.61,0.13h-0.01 c-0.31,0.07-0.61,0.15-0.91,0.24c-0.23,0.06-0.46,0.14-0.68,0.22c-0.45,0.15-0.89,0.33-1.3,0.51c-0.06,0.03-0.13,0.05-0.19,0.08 c-3.6,1.67-5.63,4.2-5.63,4.2s0.01,0.04,0.03,0.11l0.01,0.02l0.1,0.28c0.06,0.17,0.14,0.4,0.25,0.66c0.15,0.38,0.35,0.86,0.62,1.38 c0.11,0.21,0.22,0.42,0.34,0.64s0.25,0.45,0.39,0.68c1.72,2.85,4.89,6.42,10.26,7.37v-3.23c-5.1-1.69-6.9-7.11-7-7.4 c0-0.01,0-0.01,0-0.01S17.05,30.07,17.14,29.99z M17.14,29.99l0.16-0.16C18.16,29.06,20.75,27,24,27v-3c-0.3,0-0.61,0.01-0.9,0.03 c-0.04,0-0.07,0-0.11,0.01c-0.17,0.01-0.34,0.02-0.51,0.04c-0.39,0.04-0.78,0.09-1.15,0.16c-0.21,0.04-0.41,0.08-0.61,0.13h-0.01 c-0.31,0.07-0.61,0.15-0.91,0.24c-0.23,0.06-0.46,0.14-0.68,0.22c-0.45,0.15-0.89,0.33-1.3,0.51c-0.06,0.03-0.13,0.05-0.19,0.08 c-3.6,1.67-5.63,4.2-5.63,4.2s0.01,0.04,0.03,0.11l0.01,0.02l0.1,0.28c0.06,0.17,0.14,0.4,0.25,0.66c0.15,0.38,0.35,0.86,0.62,1.38 c0.11,0.21,0.22,0.42,0.34,0.64s0.25,0.45,0.39,0.68c1.72,2.85,4.89,6.42,10.26,7.37v-3.23c-5.1-1.69-6.9-7.11-7-7.4 c0-0.01,0-0.01,0-0.01S17.05,30.07,17.14,29.99z M39.14,25.52c-0.12-0.11-0.25-0.22-0.38-0.32c-2.43-2.08-6.3-4.4-11.8-5.03 C26.02,20.06,25.04,20,24,20v4c7.02,0,10.57,3.15,11.64,4.32c0.24,0.27,0.36,0.43,0.36,0.43L31,33c0-0.01-0.01-0.02-0.01-0.03 c-1.38-3.6-3.62-5.85-6.99-5.97v10.53c0.62,0.21,1.29,0.36,2.01,0.42c0.03,0.01,0.06,0.01,0.08,0.02c0.19,0.01,0.38,0.02,0.58,0.02 C26.76,38,26.85,38,26.94,38C34.51,38,42,28.75,42,28.75S41.09,27.27,39.14,25.52z M17.14,29.99l0.16-0.16 C18.16,29.06,20.75,27,24,27v-3c-0.3,0-0.61,0.01-0.9,0.03c-0.04,0-0.07,0-0.11,0.01c-0.17,0.01-0.34,0.02-0.51,0.04 c-0.39,0.04-0.78,0.09-1.15,0.16c-0.21,0.04-0.41,0.08-0.61,0.13h-0.01c-0.31,0.07-0.61,0.15-0.91,0.24 c-0.23,0.06-0.46,0.14-0.68,0.22c-0.45,0.15-0.89,0.33-1.3,0.51c-0.06,0.03-0.13,0.05-0.19,0.08c-3.6,1.67-5.63,4.2-5.63,4.2 s0.01,0.04,0.03,0.11l0.01,0.02l0.1,0.28c0.06,0.17,0.14,0.4,0.25,0.66c0.15,0.38,0.35,0.86,0.62,1.38 c0.11,0.21,0.22,0.42,0.34,0.64s0.25,0.45,0.39,0.68c1.72,2.85,4.89,6.42,10.26,7.37v-3.23c-5.1-1.69-6.9-7.11-7-7.4 c0-0.01,0-0.01,0-0.01S17.05,30.07,17.14,29.99z M39.14,25.52c-0.12-0.11-0.25-0.22-0.38-0.32c-2.43-2.08-6.3-4.4-11.8-5.03 C26.02,20.06,25.04,20,24,20v4c7.02,0,10.57,3.15,11.64,4.32c0.24,0.27,0.36,0.43,0.36,0.43L31,33c0-0.01-0.01-0.02-0.01-0.03 c-1.38-3.6-3.62-5.85-6.99-5.97v10.53c0.62,0.21,1.29,0.36,2.01,0.42c0.03,0.01,0.06,0.01,0.08,0.02c0.19,0.01,0.38,0.02,0.58,0.02 C26.76,38,26.85,38,26.94,38C34.51,38,42,28.75,42,28.75S41.09,27.27,39.14,25.52z M24,12v5c0.69,0,1.36,0.02,2.02,0.06 c1.27,0.07,2.48,0.21,3.63,0.42C42.3,19.65,48,28.62,48,28.62S39,41,26.78,41c-0.98,0-1.91-0.09-2.78-0.24v3.44 c0.74,0.1,1.51,0.15,2.32,0.15c10.04,0,17.52-5.32,24.56-11.35C52,34,55,35,58,37.25C51.31,42.81,35.34,48,26.5,48 c-0.83,0-1.65-0.05-2.47-0.13L24,52h39V12H24z M35.64,28.32c0.24,0.27,0.36,0.43,0.36,0.43L31,33c0-0.01-0.01-0.02-0.01-0.03 c-1.38-3.6-3.62-5.85-6.99-5.97v10.53c0.62,0.21,1.29,0.36,2.01,0.42c0.03,0.01,0.06,0.01,0.08,0.02c0.19,0.01,0.38,0.02,0.58,0.02 C26.76,38,26.85,38,26.94,38C34.51,38,42,28.75,42,28.75s-0.91-1.48-2.86-3.23c-0.12-0.11-0.25-0.22-0.38-0.32 c-2.43-2.08-6.3-4.4-11.8-5.03C26.02,20.06,25.04,20,24,20v4C31.02,24,34.57,27.15,35.64,28.32z M17,30.13c0-0.01,0-0.01,0-0.01 s0.05-0.05,0.14-0.13l0.16-0.16C18.16,29.06,20.75,27,24,27v-3c-0.3,0-0.61,0.01-0.9,0.03c-0.04,0-0.07,0-0.11,0.01 c-0.17,0.01-0.34,0.02-0.51,0.04c-0.39,0.04-0.78,0.09-1.15,0.16c-0.21,0.04-0.41,0.08-0.61,0.13h-0.01 c-0.31,0.07-0.61,0.15-0.91,0.24c-0.23,0.06-0.46,0.14-0.68,0.22c-0.45,0.15-0.89,0.33-1.3,0.51c-0.06,0.03-0.13,0.05-0.19,0.08 c-3.6,1.67-5.63,4.2-5.63,4.2s0.01,0.04,0.03,0.11l0.01,0.02l0.1,0.28c0.06,0.17,0.14,0.4,0.25,0.66c0.15,0.38,0.35,0.86,0.62,1.38 c0.11,0.21,0.22,0.42,0.34,0.64s0.25,0.45,0.39,0.68c1.72,2.85,4.89,6.42,10.26,7.37v-3.23C18.9,35.84,17.1,30.42,17,30.13z M39.14,25.52c-0.12-0.11-0.25-0.22-0.38-0.32c-2.43-2.08-6.3-4.4-11.8-5.03C26.02,20.06,25.04,20,24,20v4 c7.02,0,10.57,3.15,11.64,4.32c0.24,0.27,0.36,0.43,0.36,0.43L31,33c0-0.01-0.01-0.02-0.01-0.03c-1.38-3.6-3.62-5.85-6.99-5.97 v10.53c0.62,0.21,1.29,0.36,2.01,0.42c0.03,0.01,0.06,0.01,0.08,0.02c0.19,0.01,0.38,0.02,0.58,0.02C26.76,38,26.85,38,26.94,38 C34.51,38,42,28.75,42,28.75S41.09,27.27,39.14,25.52z M17.14,29.99l0.16-0.16C18.16,29.06,20.75,27,24,27v-3 c-0.3,0-0.61,0.01-0.9,0.03c-0.04,0-0.07,0-0.11,0.01c-0.17,0.01-0.34,0.02-0.51,0.04c-0.39,0.04-0.78,0.09-1.15,0.16 c-0.21,0.04-0.41,0.08-0.61,0.13h-0.01c-0.31,0.07-0.61,0.15-0.91,0.24c-0.23,0.06-0.46,0.14-0.68,0.22 c-0.45,0.15-0.89,0.33-1.3,0.51c-0.06,0.03-0.13,0.05-0.19,0.08c-3.6,1.67-5.63,4.2-5.63,4.2s0.01,0.04,0.03,0.11l0.01,0.02 l0.1,0.28c0.06,0.17,0.14,0.4,0.25,0.66c0.15,0.38,0.35,0.86,0.62,1.38c0.11,0.21,0.22,0.42,0.34,0.64s0.25,0.45,0.39,0.68 c1.72,2.85,4.89,6.42,10.26,7.37v-3.23c-5.1-1.69-6.9-7.11-7-7.4c0-0.01,0-0.01,0-0.01S17.05,30.07,17.14,29.99z M39.14,25.52 c-0.12-0.11-0.25-0.22-0.38-0.32c-2.43-2.08-6.3-4.4-11.8-5.03C26.02,20.06,25.04,20,24,20v4c7.02,0,10.57,3.15,11.64,4.32 c0.24,0.27,0.36,0.43,0.36,0.43L31,33c0-0.01-0.01-0.02-0.01-0.03c-1.38-3.6-3.62-5.85-6.99-5.97v10.53 c0.62,0.21,1.29,0.36,2.01,0.42c0.03,0.01,0.06,0.01,0.08,0.02c0.19,0.01,0.38,0.02,0.58,0.02C26.76,38,26.85,38,26.94,38 C34.51,38,42,28.75,42,28.75S41.09,27.27,39.14,25.52z M17.14,29.99l0.16-0.16C18.16,29.06,20.75,27,24,27v-3 c-0.3,0-0.61,0.01-0.9,0.03c-0.04,0-0.07,0-0.11,0.01c-0.17,0.01-0.34,0.02-0.51,0.04c-0.39,0.04-0.78,0.09-1.15,0.16 c-0.21,0.04-0.41,0.08-0.61,0.13h-0.01c-0.31,0.07-0.61,0.15-0.91,0.24c-0.23,0.06-0.46,0.14-0.68,0.22 c-0.45,0.15-0.89,0.33-1.3,0.51c-0.06,0.03-0.13,0.05-0.19,0.08c-3.6,1.67-5.63,4.2-5.63,4.2s0.01,0.04,0.03,0.11l0.01,0.02 l0.1,0.28c0.06,0.17,0.14,0.4,0.25,0.66c0.15,0.38,0.35,0.86,0.62,1.38c0.11,0.21,0.22,0.42,0.34,0.64s0.25,0.45,0.39,0.68 c1.72,2.85,4.89,6.42,10.26,7.37v-3.23c-5.1-1.69-6.9-7.11-7-7.4c0-0.01,0-0.01,0-0.01S17.05,30.07,17.14,29.99z M39.14,25.52 c-0.12-0.11-0.25-0.22-0.38-0.32c-2.43-2.08-6.3-4.4-11.8-5.03C26.02,20.06,25.04,20,24,20v4c7.02,0,10.57,3.15,11.64,4.32 c0.24,0.27,0.36,0.43,0.36,0.43L31,33c0-0.01-0.01-0.02-0.01-0.03c-1.38-3.6-3.62-5.85-6.99-5.97v10.53 c0.62,0.21,1.29,0.36,2.01,0.42c0.03,0.01,0.06,0.01,0.08,0.02c0.19,0.01,0.38,0.02,0.58,0.02C26.76,38,26.85,38,26.94,38 C34.51,38,42,28.75,42,28.75S41.09,27.27,39.14,25.52z"/><path fill="#97e0bb" d="M17.6 46.36c1.94.76 4.07 1.29 6.4 1.51h.03L24 44.2c-1.23-.15-2.38-.42-3.45-.79L17.6 46.36zM42 28.75c0 0-7.49 9.25-15.06 9.25-.09 0-.18 0-.27-.01-.2 0-.39-.01-.58-.02-.03-.01-.06-.01-.09-.01l.01-.01 4.98-4.98c0 .01.01.02.01.03l5-4.25c0 0-.12-.16-.36-.43l3.12-3.12c.13.1.26.21.38.32C41.09 27.27 42 28.75 42 28.75zM24 52h9.28l6.18-6.18c-3.29.94-6.54 1.63-9.4 1.96C28.78 47.92 27.59 48 26.5 48c-.43 0-.85-.01-1.27-.04-.4-.02-.8-.05-1.2-.09l-.01 1.3L24 52z"/><path fill="#97e0bb" d="M51.96 12L41.6 22.36c.14.09.28.19.41.29.26.18.5.37.74.56.2.14.38.29.56.44 1.37 1.11 2.43 2.19 3.18 3.05 1.02 1.15 1.51 1.92 1.51 1.92s-5.9 8.12-14.64 11.21C31.31 40.55 29.1 41 26.78 41c-.16 0-.32 0-.48-.01l-.36-.01L24 40.9v3.3c.62.08 1.26.13 1.92.14.13.01.27.01.4.01.9 0 1.79-.04 2.65-.13 2.06-.19 4-.62 5.87-1.22h.01c5.45-1.77 10.15-5.09 14.62-8.81.31-.26.62-.52.93-.79.16-.13.32-.26.48-.4.26.22.52.42.8.6L63 22.28V12H51.96zM10.07 35.01c.26.39.55.79.86 1.19l-3.21 3.21c-.33-.36-.65-.72-.95-1.09-.31-.37-.61-.75-.89-1.12l3.4-3.4C9.52 34.19 9.79 34.6 10.07 35.01zM23.1 24.03l-5.8 5.8-.16.16-3.4 3.4c-.14-.23-.27-.46-.39-.68s-.23-.43-.34-.64c-.27-.52-.47-1-.62-1.38l-.25-.66-.1-.28-.01-.02C12.01 29.66 12 29.62 12 29.62s2.03-2.53 5.63-4.2l.04-.01c.45-.21.94-.41 1.45-.58.22-.08.45-.16.68-.22.3-.09.6-.17.91-.24h.01c.2-.05.4-.09.61-.13.37-.06.76-.12 1.15-.16.17-.02.34-.03.51-.04C23.03 24.03 23.06 24.03 23.1 24.03zM24 20c1.04 0 2.02.06 2.96.17L24 23.13V20zM35.13 12l-5.47 5.47-.01.01c-1.15-.21-2.36-.35-3.63-.42l3.52-3.52L31.08 12H35.13zM17.36 41.96l-2.9 2.9c-1.4-.79-2.68-1.71-3.85-2.69-.37-.3-.72-.61-1.07-.93l3.07-3.07c.32.34.65.67 1 1C14.71 40.2 15.95 41.16 17.36 41.96zM22.47 36.85l-2.53 2.53c-1.48-.77-2.72-1.76-3.74-2.8-.34-.35-.65-.7-.94-1.06l2.91-2.91c.23.38.5.79.81 1.19C19.82 34.91 20.96 36.05 22.47 36.85zM24 35.32V27c.55.02 1.06.1 1.55.23 1.03.26 1.93.77 2.71 1.47.41.36.78.78 1.11 1.25L24 35.32zM36.07 23.25l-2.41 2.41-.61.61c-.46-.28-.98-.55-1.56-.8-.69-.31-1.47-.59-2.34-.83h-.01c-.26-.07-.53-.13-.8-.19-.54-.12-1.12-.22-1.72-.29l1.77-1.77c0 0 0 0 .01 0l1.65-1.65c.54.13 1.06.28 1.55.45h.01c.25.08.49.17.73.26.8.29 1.53.61 2.22.96C35.1 22.68 35.6 22.97 36.07 23.25zM47.32 12l-5.66 5.66-2.92 2.92c-.5-.27-1.03-.53-1.57-.78-.72-.33-1.47-.65-2.26-.93-.24-.09-.49-.17-.74-.26-.49-.17-1-.33-1.53-.47L38.78 12H47.32z"/><path fill="#fff8f8" d="M56.494 19L57.729 21.26 60 22.494 57.729 23.729 56.494 26 55.26 23.729 53 22.494 55.26 21.26zM43.505 15L44.035 15.975 45 16.505 44.035 17.025 43.505 18 42.975 17.025 42 16.505 42.975 15.975zM53.5 44L54.378 45.612 56 46.5 54.378 47.378 53.5 49 52.612 47.378 51 46.5 52.612 45.612z"/><path fill="#8d6c9f" d="M63 53H24c-.267 0-.521-.106-.709-.295S22.998 52.26 23 51.993l.021-3.228C6.51 46.616.121 29.139.058 28.96c-.109-.31-.061-.653.131-.92C.535 27.56 8.658 16.515 23 16.018V12c0-.553.447-1 1-1h39c.553 0 1 .447 1 1v40C64 52.553 63.553 53 63 53zM25.007 51H62V13H25v3.014c16.277.442 23.537 11.592 23.845 12.075.22.347.205.792-.036 1.124C48.429 29.735 39.364 42 26.784 42c-.593 0-1.189-.031-1.784-.094v1.393c.444.035.881.052 1.319.052 10.092 0 17.631-5.734 23.905-11.11.38-.325.939-.322 1.314.013.396.352 1.222.776 2.178 1.269 1.392.717 3.123 1.608 4.883 2.929.245.184.393.469.4.775s-.126.598-.361.794C52.093 43.458 35.873 49 26.5 49c-.491-.002-.986-.018-1.48-.046L25.007 51zM25.02 46.95c.496.031.992.048 1.484.05 8.546 0 22.993-4.773 29.812-9.711-1.258-.827-2.484-1.459-3.515-1.989-.732-.377-1.363-.702-1.877-1.027-6.427 5.454-14.158 11.078-24.604 11.078-.437 0-.871-.015-1.312-.046L25.02 46.95zM2.14 28.789c1.14 2.757 7.3 16.028 20.879 17.958l-.013-1.682C10.895 42.986 6.252 30.14 6.057 29.581c-.104-.299-.063-.629.115-.891.259-.384 6.293-9.136 16.828-9.665V18.02C11.189 18.471 3.747 26.806 2.14 28.789zM8.133 29.398C9.068 31.657 13.539 41.181 23 43.03v-1.457C13.869 39.459 11.152 30.3 11.038 29.899c-.089-.312-.021-.646.181-.899.188-.234 4.496-5.515 11.781-5.969v-2.003C14.744 21.503 9.421 27.724 8.133 29.398zM25 39.894C25.595 39.964 26.191 40 26.784 40c10.088 0 18.053-9.031 19.968-11.401C45.071 26.388 38.109 18.405 25 18.015v1.003c12.321.436 17.627 8.842 17.853 9.209.222.361.191.823-.075 1.153C42.459 29.772 34.893 39 26.942 39 26.28 39 25.63 38.94 25 38.822V39.894zM13.134 29.854c.668 1.802 3.369 7.894 9.866 9.656v-1.282c-5.13-2.113-6.88-7.564-6.955-7.806-.108-.348-.019-.727.233-.989.124-.13 2.865-2.94 6.724-3.376 0-.323 0-.688-.001-1.021C17.751 25.417 14.22 28.703 13.134 29.854zM25 36.778C25.624 36.926 26.274 37 26.942 37c5.96 0 12.061-6.359 13.795-8.315-1.38-1.84-6.259-7.303-15.737-7.666v2.002c8.307.347 11.671 4.947 11.815 5.15.3.423.228 1.005-.168 1.341l-5 4.25c-.247.21-.582.285-.896.207-.315-.081-.57-.311-.686-.614-1.157-3.049-2.82-4.771-5.065-5.232C25 28.123 25 36.778 25 36.778zM18.176 30.403c.514 1.221 1.97 4.081 4.824 5.613v-7.942C20.779 28.399 18.98 29.72 18.176 30.403zM24.997 26.089c2.769.413 4.911 2.181 6.39 5.271l3.188-2.71c-1.181-1.152-4.141-3.379-9.573-3.627C25.001 25.448 25 25.799 24.997 26.089zM15.521 52.998c-.119 0-.24-.021-.358-.066-.516-.197-.773-.775-.575-1.292l.716-1.867c.198-.515.775-.771 1.292-.575.516.197.773.775.575 1.292l-.716 1.867C16.302 52.754 15.923 52.998 15.521 52.998zM11.06 50.844c-.173 0-.347-.044-.506-.139-.477-.279-.635-.893-.354-1.368l1.015-1.724c.278-.478.893-.638 1.368-.354.477.279.635.893.354 1.368l-1.015 1.724C11.736 50.668 11.402 50.844 11.06 50.844zM7.015 48.002c-.223 0-.447-.074-.634-.227-.427-.351-.488-.98-.139-1.408l1.269-1.546c.352-.426.979-.489 1.408-.139.427.351.488.98.139 1.408l-1.269 1.546C7.591 47.877 7.304 48.002 7.015 48.002zM3.439 44.614c-.27 0-.538-.108-.734-.322-.375-.405-.35-1.038.057-1.412l1.47-1.356c.403-.375 1.039-.35 1.412.057.375.405.35 1.038-.057 1.413l-1.47 1.355C3.926 44.526 3.683 44.614 3.439 44.614z"/></svg>