<svg xmlns="http://www.w3.org/2000/svg"  viewBox="0 0 64 64" width="64px" height="64px"><path fill="#fff8ee" d="M45.5,16.5C47,15,49,13,53.5,13c3,0,4.5,3.5,4.5,6s-2,6-6,8l-6-3L45.5,16.5z"/><path fill="#8d6c9f" d="M52.001,28c-0.367,0-0.72-0.202-0.896-0.553c-0.247-0.494-0.047-1.095,0.447-1.342	C55.129,24.317,57,21.178,57,19c0-2.097-1.216-5-3.5-5c-4.086,0-5.864,1.778-7.293,3.207c-0.391,0.391-1.023,0.391-1.414,0	s-0.391-1.023,0-1.414C46.304,14.282,48.586,12,53.5,12c3.752,0,5.5,4.177,5.5,7c0,2.706-2.051,6.644-6.553,8.895	C52.304,27.966,52.151,28,52.001,28z"/><path fill="#8d6c9f" d="M54,21c-1,0-1.5-1-1.5-1.5s1-1.5,2-1.5s1,1,1,1.5S55,21,54,21z"/><path fill="#8d6c9f" d="M23.994,58.053c-1.613,0-3.245-0.405-4.524-1.205c-4.243-2.652-7.445-8.99-7.967-15.771	c-0.042-0.551,0.37-1.032,0.92-1.074c0.563-0.043,1.032,0.37,1.074,0.92c0.476,6.179,3.302,11.897,7.033,14.229	c1.797,1.123,4.625,1.218,6.437,0.213C27.984,54.802,28.5,54.006,28.5,53c0-3.589-1.406-6-3.5-6c-0.03,0-3,0.086-3,2	c0,0.943,0.434,1.123,0.761,1.176c0.588,0.101,1.203-0.229,1.291-0.492c0.175-0.523,0.735-0.809,1.265-0.632	c0.523,0.174,0.807,0.74,0.632,1.265c-0.419,1.258-1.986,2.083-3.508,1.834C21.261,51.959,20,51.031,20,49c0-2.935,2.99-4,5-4	c2.737,0,5.5,2.474,5.5,8c0,1.737-0.91,3.198-2.564,4.114C26.803,57.742,25.405,58.053,23.994,58.053z"/><path fill="#97e0bb" d="M54,30.5C54,32,48,35,42.5,34c-2.5,2-7,1-10,1c-3.5,1.5-10,0-12.5-3c-3.5,1-6,6-6,7c-0.5,0-2,0-2,0	c0-2.05,0.33-6.14,1.49-10.23C15.14,22.9,18.49,17,25,17c4.95,0,8.59,2.4,12.8,4.45c2.17,1.07,4.48,2.04,7.2,2.55c2,0,5.21,1.21,6,2	C52,27,54,29.5,54,30.5z"/><path fill="#b0edcc" d="M37.8,21.45c-0.89,1.81-2.47,3.25-3.93,2.5C30.67,22.3,28.14,21,25,21c-1,0-4.05,0-6.52,5.61	c-0.66,1.5-2.12,2.39-3.66,2.39c-0.45,0-0.89-0.07-1.33-0.23C15.14,22.9,18.49,17,25,17C29.95,17,33.59,19.4,37.8,21.45z"/><path fill="#8d6c9f" d="M14,40h-2c-0.553,0-1-0.447-1-1c0-6.397,2.515-23,14-23c4.355,0,7.661,1.703,11.161,3.506	c2.708,1.395,5.507,2.837,8.937,3.495c2.273,0.036,5.623,1.305,6.609,2.292C51.74,25.326,55,28.698,55,30.5	c0,0.629-0.375,1.262-1.115,1.879c-1.812,1.513-6.536,3.348-11.134,2.676c-2.192,1.468-5.253,1.254-7.97,1.059	c-0.747-0.053-1.456-0.103-2.088-0.112c-3.796,1.49-10.001,0.09-12.977-2.835c-2.633,1.173-4.637,5.009-4.718,5.855	C14.95,39.534,14.516,40,14,40z M13.021,38h0.197c0.729-2.111,3.218-6.021,6.507-6.962c0.38-0.106,0.789,0.017,1.043,0.321	c2.174,2.611,8.213,4.061,11.338,2.722C32.23,34.027,32.364,34,32.5,34c0.75,0,1.562,0.058,2.423,0.118	c2.51,0.179,5.354,0.38,6.952-0.899c0.226-0.18,0.518-0.259,0.804-0.202c4.869,0.88,9.803-1.649,10.312-2.57	c-0.135-0.615-1.55-2.591-2.698-3.739C49.76,26.174,46.853,25,45,25c-0.062,0-0.123-0.006-0.185-0.018	c-3.757-0.704-6.712-2.227-9.57-3.698C31.967,19.595,28.87,18,25,18C15.75,18,13.27,31.867,13.021,38z"/><path fill="#8d6c9f" d="M42.5,41.997c-0.002,0-0.004,0-0.006,0C41.944,41.994,41.5,41.55,41.5,41	c0-0.127,0.017-1.271,0.605-2.447c0.248-0.494,0.849-0.692,1.342-0.447c0.494,0.247,0.694,0.848,0.447,1.342	c-0.381,0.762-0.395,1.551-0.395,1.559C43.494,41.554,43.048,41.997,42.5,41.997z"/><polygon fill="#ffeb9b" points="52,43 11,43 11,39 52,39 50.975,41"/><path fill="#8d6c9f" d="M52,44H11c-0.553,0-1-0.447-1-1v-4c0-0.553,0.447-1,1-1h41c0.349,0,0.672,0.182,0.854,0.479 s0.195,0.668,0.036,0.978L52.099,41l0.791,1.544c0.159,0.31,0.146,0.681-0.036,0.978S52.349,44,52,44z M12,42h38.363l-0.278-0.544 c-0.147-0.286-0.147-0.626,0-0.912L50.363,40H12V42z"/><rect width="39" height="1" x="12" y="41" fill="#f9dd8f"/><rect width="5" height="4" x="6" y="39" fill="#ced9ed" transform="rotate(-180 8.5 41)"/><path fill="#8d6c9f" d="M11,44H6c-0.553,0-1-0.447-1-1v-4c0-0.553,0.447-1,1-1h5c0.553,0,1,0.447,1,1v4 C12,43.553,11.553,44,11,44z M7,42h3v-2H7V42z"/><polygon fill="#fff8ee" points="52,43 62,41 52,39 51,41"/><path fill="#8d6c9f" d="M52,44c-0.373,0-0.723-0.209-0.895-0.553l-1-2c-0.141-0.281-0.141-0.613,0-0.895l1-2 c0.202-0.403,0.648-0.622,1.091-0.533l10,2C62.663,40.113,63,40.523,63,41s-0.337,0.887-0.804,0.98l-10,2 C52.131,43.994,52.064,44,52,44z M52.118,41l0.435,0.869L56.901,41l-4.349-0.869L52.118,41z"/><path fill="#f7a1c8" d="M3,43h3v-4H3c-0.552,0-1,0.448-1,1v2C2,42.552,2.448,43,3,43z"/><path fill="#8d6c9f" d="M6,44H3c-1.103,0-2-0.897-2-2v-2c0-1.103,0.897-2,2-2h3c0.553,0,1,0.447,1,1v4 C7,43.553,6.553,44,6,44z M3,40v2h2v-2H3z"/><path fill="#8d6c9f" d="M24,40c-0.256,0-0.512-0.098-0.707-0.293c-0.391-0.391-0.391-1.023,0-1.414	c0.923-0.923,1.5-2.471,1.312-2.846c-0.247-0.494-0.047-1.095,0.447-1.342c0.493-0.246,1.094-0.047,1.342,0.447	c0.788,1.577-0.541,4.008-1.688,5.154C24.512,39.902,24.256,40,24,40z"/><path fill="#8d6c9f" d="M35,51c-0.553,0-1-0.447-1-1v-2c0-0.553,0.447-1,1-1s1,0.447,1,1v2C36,50.553,35.553,51,35,51z"/><path fill="#8d6c9f" d="M40,51c-0.553,0-1-0.447-1-1v-2c0-0.553,0.447-1,1-1s1,0.447,1,1v2C41,50.553,40.553,51,40,51z"/><path fill="#8d6c9f" d="M45,51c-0.553,0-1-0.447-1-1v-2c0-0.553,0.447-1,1-1s1,0.447,1,1v2C46,50.553,45.553,51,45,51z"/><path fill="#8d6c9f" d="M50,51c-0.553,0-1-0.447-1-1v-2c0-0.553,0.447-1,1-1s1,0.447,1,1v2C51,50.553,50.553,51,50,51z"/><path fill="#8d6c9f" d="M55,51c-0.553,0-1-0.447-1-1v-2c0-0.553,0.447-1,1-1s1,0.447,1,1v2C56,50.553,55.553,51,55,51z"/><path fill="#8d6c9f" d="M3,35.011c-0.553,0-1-0.447-1-1v-2c0-0.553,0.447-1,1-1s1,0.447,1,1v2 C4,34.563,3.553,35.011,3,35.011z"/><path fill="#8d6c9f" d="M8,35.011c-0.553,0-1-0.447-1-1v-2c0-0.553,0.447-1,1-1s1,0.447,1,1v2 C9,34.563,8.553,35.011,8,35.011z"/><path fill="#fff8ee" d="M46,20c0,0.3-0.02,0.69-0.07,1.14C45.63,23.67,44.4,28,41,28c-3.85,0-7.71-1.86-7.98-7.36	C33.01,20.43,33,20.22,33,20c0-6,3.5-10,5.5-10C43,10,46,16,46,20z"/><path fill="#faefde" d="M45.93,21.14C45.63,23.67,44.4,28,41,28c-3.85,0-7.71-1.86-7.98-7.36c1.69-0.44,3.48,0.35,4.5,1.89	c0.98,1.47,2.87,2.06,3.74,0.79C42.37,21.69,44.14,20.67,45.93,21.14z"/><path fill="#8d6c9f" d="M41,29c-5.636,0-9-3.364-9-9c0-6.612,3.912-11,6.5-11c5.188,0,8.5,6.515,8.5,11	C47,22.937,45.533,29,41,29z M38.5,11c-1.336,0-4.5,3.493-4.5,9c0,6.091,4.386,7,7,7c3.052,0,4-5.131,4-7	C45,16.376,42.271,11,38.5,11z"/><path fill="#8d6c9f" d="M38,19c-1,0-2,0.5-2,1.5s1,2,2,2s1.5-1.5,1.5-2S39,19,38,19z"/><path fill="#8d6c9f" d="M20,45c-0.124,0-0.25-0.022-0.371-0.071c-1.521-0.608-2.504-2.15-2.504-3.929	c0-1.372,0.585-2.603,1.551-3.373c-0.962-2.127-0.798-4.247,0.492-6.182c0.306-0.46,0.926-0.584,1.387-0.277	c0.46,0.307,0.584,0.927,0.277,1.387c-1.053,1.58-1.045,3.146,0.025,4.931c0.15,0.251,0.184,0.557,0.09,0.834	c-0.093,0.277-0.304,0.5-0.576,0.609c-0.919,0.367-1.246,1.311-1.246,2.071s0.327,1.704,1.246,2.071	c0.513,0.205,0.763,0.787,0.558,1.3C20.772,44.763,20.396,45,20,45z"/><path fill="#8d6c9f" d="M36.001,45c-0.08,0-0.162-0.01-0.243-0.03c-1.2-0.3-2.154-1.038-2.686-2.079	c-0.539-1.053-0.607-2.34-0.206-3.676c-1.568-2.082-1.758-5.737,0.427-7.922c0.391-0.391,1.023-0.391,1.414,0s0.391,1.023,0,1.414	c-1.594,1.594-1.099,4.487,0,5.586c0.283,0.283,0.37,0.707,0.222,1.078c-0.399,0.998-0.427,1.925-0.076,2.609	c0.27,0.526,0.75,0.89,1.39,1.05c0.536,0.134,0.862,0.677,0.728,1.212C36.856,44.697,36.449,45,36.001,45z"/><path fill="#8d6c9f" d="M38.001,40c-0.323,0-0.641-0.156-0.833-0.445c-0.199-0.299-0.464-0.46-0.809-0.494	c-0.538-0.056-1.218,0.213-1.652,0.646c-0.391,0.391-1.023,0.391-1.414,0s-0.391-1.023,0-1.414c0.855-0.854,2.142-1.336,3.264-1.223	c0.938,0.093,1.746,0.581,2.275,1.375c0.307,0.46,0.183,1.08-0.277,1.387C38.384,39.945,38.191,40,38.001,40z"/><path fill="#8d6c9f" d="M48.001,40c-0.367,0-0.72-0.202-0.896-0.553c-0.234-0.469-0.656-0.725-1.256-0.762	c-0.78-0.043-1.654,0.324-2.018,0.869c-0.166,0.249-0.436,0.411-0.733,0.44c-0.302,0.033-0.594-0.076-0.806-0.288	c-0.645-0.644-2.219-3.321-2.688-4.26c-0.247-0.494-0.047-1.095,0.447-1.342c0.495-0.246,1.094-0.047,1.342,0.447	c0.374,0.749,1.161,2.066,1.729,2.932c0.796-0.557,1.828-0.857,2.852-0.795c1.304,0.081,2.368,0.76,2.92,1.863	c0.247,0.494,0.047,1.095-0.447,1.342C48.304,39.966,48.151,40,48.001,40z"/><path fill="#8d6c9f" d="M46.045,44.741c-0.357,0-0.727-0.043-1.098-0.131c-1.405-0.331-2.542-1.231-2.896-2.294	c-0.175-0.524,0.108-1.091,0.632-1.265c0.529-0.177,1.09,0.108,1.265,0.632c0.112,0.335,0.661,0.793,1.458,0.98	c0.767,0.183,1.474,0.043,1.887-0.371c0.391-0.391,1.023-0.391,1.414,0s0.391,1.023,0,1.414	C48.032,44.382,47.083,44.741,46.045,44.741z"/><circle cx="56.5" cy="41" r="1" fill="#8d6c9f"/><rect width="3" height="1" x="7" y="41" fill="#c2cde7"/><rect width="2" height="1" x="3" y="41" fill="#f283a5"/></svg>