<svg xmlns="http://www.w3.org/2000/svg"  viewBox="0 0 64 64" width="64px" height="64px"><path fill="#f9e3ae" d="M7,51V13c0-3.31,2.69-6,6-6h38c3.31,0,6,2.69,6,6v38c0,3.31-2.69,6-6,6H13C9.69,57,7,54.31,7,51z"/><path fill="#efc88e" d="M11,57h42c2.209,0,4-1.791,4-4l0,0c0-1.657-1.343-3-3-3H10c-1.657,0-3,1.343-3,3l0,0	C7,55.209,8.791,57,11,57z"/><path fill="#8d6c9f" d="M51,58H13c-3.86,0-7-3.141-7-7V13c0-3.859,3.14-7,7-7h38c3.86,0,7,3.141,7,7v38	C58,54.859,54.86,58,51,58z M13,8c-2.757,0-5,2.243-5,5v38c0,2.757,2.243,5,5,5h38c2.757,0,5-2.243,5-5V13c0-2.757-2.243-5-5-5H13z"/><path fill="#8d6c9f" d="M47,48c-0.552,0-1,0.448-1,1v2c0,0.552,0.448,1,1,1s1-0.448,1-1v-2C48,48.448,47.552,48,47,48z M52,52c0.552,0,1-0.448,1-1v-2c0-0.552-0.448-1-1-1s-1,0.448-1,1v2C51,51.552,51.448,52,52,52z M32,48c-0.552,0-1,0.448-1,1v2	c0,0.552,0.448,1,1,1s1-0.448,1-1v-2C33,48.448,32.552,48,32,48z M27,48c-0.552,0-1,0.448-1,1v2c0,0.552,0.448,1,1,1s1-0.448,1-1v-2	C28,48.448,27.552,48,27,48z M22,48c-0.552,0-1,0.448-1,1v2c0,0.552,0.448,1,1,1s1-0.448,1-1v-2C23,48.448,22.552,48,22,48z M17,48	c-0.552,0-1,0.448-1,1v2c0,0.552,0.448,1,1,1s1-0.448,1-1v-2C18,48.448,17.552,48,17,48z M12,52c0.552,0,1-0.448,1-1v-2	c0-0.552-0.448-1-1-1s-1,0.448-1,1v2C11,51.552,11.448,52,12,52z M42,48c-0.552,0-1,0.448-1,1v2c0,0.552,0.448,1,1,1s1-0.448,1-1v-2	C43,48.448,42.552,48,42,48z M37,48c-0.552,0-1,0.448-1,1v2c0,0.552,0.448,1,1,1s1-0.448,1-1v-2C38,48.448,37.552,48,37,48z"/><path fill="#faefde" d="M32,19v25c0,0-3-6-9-6c-3.55,0-6.05,1.05-7.5,1.91c-0.67,0.39-1.5-0.09-1.5-0.87V18.42	c0-1.16,0.49-2.27,1.37-3.02c1.3-1.11,3.66-2.4,7.63-2.4c2.94,0,4.99,1.06,6.39,2.29C31.33,16.98,32,19,32,19z"/><path fill="#faefde" d="M50,18.42v20.62c0,0.78-0.83,1.26-1.5,0.87C47.05,39.05,44.55,38,41,38c-6,0-9,6-9,6V19	c0,0,0.67-2.02,2.61-3.71C36.01,14.06,38.06,13,41,13c3.97,0,6.33,1.29,7.63,2.4C49.51,16.15,50,17.26,50,18.42z"/><path fill="#fff8ee" d="M35.82,20.2c-0.02,0.05-0.04,0.1-0.05,0.13c-0.02,0.07-0.05,0.13-0.07,0.19 c-0.04,0.09-0.08,0.18-0.12,0.27c-0.06,0.12-0.12,0.23-0.19,0.34c-0.48,0.76-1.21,1.36-2.12,1.66C32.85,22.93,32.42,23,32,23 c-1.05,0-2.05-0.41-2.79-1.14c-0.13-0.12-0.24-0.25-0.35-0.39c-0.04-0.05-0.08-0.11-0.12-0.17c-0.09-0.13-0.18-0.25-0.25-0.39 c-0.01-0.01-0.01-0.02-0.02-0.03c-0.1-0.2-0.19-0.4-0.26-0.62c-0.01-0.03-0.02-0.06-0.04-0.1c-0.01,0-0.01-0.01-0.01-0.02 C27.86,19.43,26.55,17,23,17c-2.77,0-4.26,0.78-5.03,1.44c0,2.2-1.77,3.98-3.97,3.99v-4.01c0-1.16,0.49-2.27,1.37-3.02 c1.3-1.11,3.66-2.4,7.63-2.4c2.94,0,4.99,1.06,6.39,2.29C31.33,16.98,32,19,32,19s0.67-2.02,2.61-3.71 c0.55,0.88,0.94,1.72,1.18,2.45C36.07,18.57,36.06,19.42,35.82,20.2z"/><path fill="#fff8ee" d="M50,18.42v4c-2.21,0-4-1.8-4-4c0-0.02,0-0.02,0-0.02c-0.74-0.62-2.23-1.4-5-1.4 c-3.55,0-4.86,2.43-5.18,3.2c-0.02,0.05-0.04,0.1-0.05,0.13c-0.02,0.07-0.05,0.13-0.07,0.19c-0.04,0.09-0.08,0.18-0.12,0.27 c-0.06,0.12-0.12,0.23-0.19,0.34c-0.06,0.1-0.12,0.19-0.19,0.28c-0.137,0.18-0.291,0.344-0.455,0.499 c-0.726,0.712-1.703,1.131-2.735,1.131H32c-0.43,0-0.85-0.07-1.28-0.21c-0.6-0.2-1.1-0.54-1.51-0.97 c-0.13-0.12-0.24-0.25-0.35-0.39c-0.04-0.05-0.08-0.11-0.12-0.17c-0.09-0.13-0.18-0.25-0.25-0.39c-0.01-0.01-0.01-0.02-0.02-0.03 c-0.1-0.2-0.19-0.4-0.26-0.62c-0.01-0.03-0.02-0.06-0.04-0.1c-0.01,0-0.01-0.01-0.01-0.02c-0.22-0.76-0.22-1.6,0.05-2.4 c0.24-0.73,0.63-1.57,1.18-2.45C31.33,16.98,32,19,32,19s0.67-2.02,2.61-3.71C36.01,14.06,38.06,13,41,13 c3.97,0,6.33,1.29,7.63,2.4C49.51,16.15,50,17.26,50,18.42z"/><path fill="#8d6c9f" d="M32,45c-0.373,0-0.722-0.208-0.895-0.553C31.079,44.395,28.292,39,23,39	c-3.31,0-5.63,0.963-6.993,1.771c-0.623,0.367-1.369,0.374-1.996,0.016C13.387,40.431,13,39.764,13,39.045V18.416	c0-1.464,0.625-2.84,1.716-3.774C16.125,13.436,18.704,12,23,12c7.632,0,9.926,6.617,9.949,6.684C32.983,18.786,33,18.893,33,19v25	c0,0.464-0.319,0.866-0.77,0.974C32.153,44.991,32.076,45,32,45z M23,37c3.735,0,6.387,2.049,8,3.856V19.179	C30.664,18.327,28.676,14,23,14c-3.685,0-5.831,1.175-6.982,2.16C15.371,16.714,15,17.536,15,18.416v20.629c0,0.005,0,0.007,0,0.007	C16.566,38.114,19.238,37,23,37z"/><path fill="#8d6c9f" d="M32,44.999c-0.077,0-0.154-0.009-0.231-0.027C31.318,44.864,31,44.463,31,44V19	c0-0.107,0.017-0.214,0.051-0.316C31.074,18.617,33.368,12,41,12c4.296,0,6.875,1.436,8.283,2.641	C50.375,15.576,51,16.952,51,18.416v20.629c0,0.719-0.387,1.386-1.011,1.741c-0.627,0.359-1.374,0.352-1.996-0.016	C46.63,39.963,44.31,39,41,39c-5.292,0-8.079,5.395-8.106,5.449C32.721,44.791,32.371,44.999,32,44.999z M33,19.179v21.678	C34.613,39.049,37.265,37,41,37c3.752,0,6.42,1.108,8,2.042V18.416c0-0.88-0.371-1.702-1.018-2.257C46.831,15.175,44.685,14,41,14	C35.33,14,33.34,18.319,33,19.179z M49.013,39.05h0.01H49.013z"/></svg>