<svg xmlns="http://www.w3.org/2000/svg"  viewBox="0 0 64 64" width="64px" height="64px" baseProfile="basic"><path fill="#7bbeeb" d="M11,57L11,57C5.477,57,1,51.18,1,44v0c0-7.18,4.477-13,10-13h0"/><path fill="#8d6c9f" d="M11,58C4.935,58,0,51.72,0,44s4.935-14,11-14v2c-4.962,0-9,5.383-9,12s4.038,12,9,12V58z"/><path fill="#7bbeeb" d="M14,57h-4V31h4c1.105,0,2,0.895,2,2v22C16,56.105,15.105,57,14,57z"/><path fill="#8d6c9f" d="M14,58h-4c-0.552,0-1-0.447-1-1V31c0-0.552,0.448-1,1-1h4c1.654,0,3,1.346,3,3v22 C17,56.654,15.654,58,14,58z M11,56h3c0.551,0,1-0.448,1-1V33c0-0.552-0.449-1-1-1h-3V56z"/><path fill="#7bbeeb" d="M53,31L53,31c5.523,0,10,5.82,10,13v0c0,7.18-4.477,13-10,13h0"/><path fill="#8d6c9f" d="M53,58v-2c4.962,0,9-5.383,9-12s-4.038-12-9-12v-2c6.065,0,11,6.28,11,14S59.065,58,53,58z"/><path fill="#7bbeeb" d="M50,31h4v26h-4c-1.105,0-2-0.895-2-2V33C48,31.895,48.895,31,50,31z"/><path fill="#8d6c9f" d="M54,58h-4c-1.654,0-3-1.346-3-3V33c0-1.654,1.346-3,3-3h4c0.552,0,1,0.448,1,1v26 C55,57.553,54.552,58,54,58z M50,32c-0.551,0-1,0.448-1,1v22c0,0.552,0.449,1,1,1h3V32H50z"/><g><path fill="#8d6c9f" d="M55,34h-2v-5.4C53,17.241,43.58,8,32,8s-21,9.241-21,20.6V34H9v-5.4C9,16.138,19.318,6,32,6 s23,10.138,23,22.6V34z"/></g><g><path fill="#8d6c9f" d="M44.255,21.922c-0.311,0-0.617-0.144-0.812-0.416c-0.323-0.448-0.221-1.073,0.227-1.396 l1.623-1.168c0.448-0.324,1.073-0.221,1.396,0.227c0.323,0.448,0.221,1.073-0.227,1.396l-1.623,1.168 C44.662,21.861,44.457,21.922,44.255,21.922z"/><path fill="#8d6c9f" d="M41.011,18.645c-0.206,0-0.415-0.063-0.593-0.196c-0.444-0.328-0.538-0.954-0.21-1.398 l1.188-1.608c0.328-0.444,0.954-0.54,1.398-0.21c0.444,0.328,0.538,0.954,0.21,1.398l-1.188,1.608 C41.62,18.504,41.317,18.645,41.011,18.645z"/><path fill="#8d6c9f" d="M36.926,16.504c-0.107,0-0.216-0.018-0.323-0.054c-0.523-0.178-0.802-0.746-0.624-1.269 l0.646-1.893c0.178-0.523,0.745-0.802,1.269-0.624c0.523,0.178,0.802,0.746,0.624,1.269l-0.646,1.893 C37.73,16.242,37.342,16.504,36.926,16.504z"/><path fill="#8d6c9f" d="M32.379,15.697c-0.008,0-0.017,0-0.025,0c-0.552-0.014-0.988-0.472-0.975-1.024l0.049-1.999 c0.014-0.551,0.457-0.981,1.024-0.975c0.552,0.014,0.988,0.472,0.975,1.024l-0.049,1.999 C33.365,15.265,32.92,15.697,32.379,15.697z"/><path fill="#8d6c9f" d="M27.795,16.274c-0.435,0-0.835-0.287-0.961-0.726l-0.549-1.923 c-0.152-0.531,0.156-1.085,0.687-1.236c0.531-0.152,1.084,0.156,1.236,0.687l0.549,1.923c0.152,0.531-0.156,1.085-0.687,1.236 C27.979,16.262,27.886,16.274,27.795,16.274z"/><path fill="#8d6c9f" d="M23.605,18.205c-0.324,0-0.642-0.157-0.834-0.447l-1.106-1.667c-0.306-0.46-0.18-1.081,0.28-1.386 c0.459-0.305,1.081-0.18,1.386,0.28l1.106,1.667c0.306,0.46,0.18,1.081-0.28,1.386C23.987,18.151,23.795,18.205,23.605,18.205z"/><path fill="#8d6c9f" d="M20.203,21.32c-0.219,0-0.44-0.072-0.625-0.22l-1.561-1.25c-0.431-0.345-0.501-0.975-0.155-1.405 c0.345-0.432,0.976-0.501,1.405-0.155l1.561,1.25c0.431,0.345,0.501,0.975,0.155,1.405C20.787,21.192,20.496,21.32,20.203,21.32z"/></g><g><path fill="#8d6c9f" d="M30,56c-0.48,0-0.896-0.344-0.983-0.821l-2.777-15.274L24.994,51.11 c-0.055,0.492-0.461,0.87-0.957,0.889c-0.487,0.039-0.929-0.327-1.02-0.814l-2.049-10.927l-0.988,4.938 C19.887,45.663,19.477,46,19,46h-3c-0.552,0-1-0.447-1-1s0.448-1,1-1h2.18l1.839-9.196C20.113,34.336,20.523,34,21,34 c0.002,0,0.004,0,0.006,0c0.479,0.003,0.889,0.345,0.977,0.815l1.764,9.408l1.26-11.334c0.055-0.493,0.463-0.872,0.959-0.889 c0.501-0.032,0.93,0.333,1.019,0.82l2.63,14.465l1.39-17.366c0.04-0.502,0.447-0.896,0.95-0.919 c0.493-0.011,0.945,0.331,1.032,0.828l2.464,14.167l0.552-11.045c0.025-0.502,0.419-0.907,0.92-0.947 c0.496-0.042,0.954,0.299,1.057,0.791l2.462,11.693l0.562-9.546c0.028-0.484,0.4-0.878,0.882-0.935 c0.478-0.064,0.934,0.241,1.074,0.706L45.744,44H48c0.552,0,1,0.447,1,1s-0.448,1-1,1h-3c-0.441,0-0.831-0.29-0.958-0.713 l-1.375-4.586l-0.668,11.357c-0.029,0.5-0.424,0.901-0.924,0.938c-0.501,0.046-0.949-0.301-1.053-0.791l-2.409-11.44L36.999,53.05 c-0.025,0.509-0.429,0.917-0.938,0.948c-0.513,0.021-0.959-0.326-1.046-0.827l-2.647-15.223L30.997,55.08 c-0.04,0.5-0.445,0.894-0.947,0.919C30.033,56,30.016,56,30,56z"/></g></svg>