<svg xmlns="http://www.w3.org/2000/svg"  viewBox="0 0 64 64" width="64px" height="64px"><rect width="50" height="50" x="7" y="7" fill="#f9e3ae" rx="6" ry="6"/><path fill="#faefde" d="M11,7H53a4,4,0,0,1,4,4v0a3,3,0,0,1-3,3H10a3,3,0,0,1-3-3v0a4,4,0,0,1,4-4Z"/><path fill="#fff" d="M31.74,19.79A9.08,9.08,0,0,0,23,25.45h0a10.84,10.84,0,0,0-.46,4.61h0a21.15,21.15,0,0,1,.07,3v.07a4.07,4.07,0,0,1-1.48,0h0c-.34-.06-.71-.2-1.13-.32h0a1.35,1.35,0,0,0-1.1.25h0a1.16,1.16,0,0,0-.6.92.43.43,0,0,0,0,.09,1.11,1.11,0,0,0,.38.62c.15.13.3.22.39.29l0,0a10.89,10.89,0,0,0,2.31,1h0a1.68,1.68,0,0,1,1,1A2.87,2.87,0,0,1,22,38.82h0a11,11,0,0,1-3.52,4.07,8.45,8.45,0,0,1-2.58,1.19h0a1.47,1.47,0,0,0-.92.55.43.43,0,0,0,0,.1.8.8,0,0,0,.15.73,1.25,1.25,0,0,0,.39.31h0a9.19,9.19,0,0,0,2.39.84h0A9.14,9.14,0,0,1,19.3,47s.06.18.16.41c.14.43.2.93.36,1.46a.44.44,0,0,0,.32.3.92.92,0,0,0,.57,0h0A9.16,9.16,0,0,1,24.52,49h0a14.42,14.42,0,0,1,3.54,1.93h0A5.68,5.68,0,0,0,30.88,52h0a19.09,19.09,0,0,0,2.39-.06h0a4.26,4.26,0,0,0,1.88-.65h0c1.28-.73,2.41-1.62,3.66-2.17h0a5.78,5.78,0,0,1,1.47-.18h0a18.89,18.89,0,0,1,3.09.16h.11a.58.58,0,0,0,.35-.2.57.57,0,0,0,.11-.22c0-.11.06-.16,0-.07l0-.09A4.4,4.4,0,0,1,44.65,47a.89.89,0,0,1,.64-.2h.06a11.08,11.08,0,0,0,2.46-.7h0a2.1,2.1,0,0,0,1-.67h0a.71.71,0,0,0-.21-1h0l0,0h0a4.15,4.15,0,0,0-1.09-.4h0A9.34,9.34,0,0,1,43,40.65,10.41,10.41,0,0,1,41.51,38h0a1.32,1.32,0,0,1,.06-1.15h0a3.16,3.16,0,0,1,1.53-1h0a5.92,5.92,0,0,0,2.07-1.07h0a1.32,1.32,0,0,0,.3-.39.83.83,0,0,0,0-.7h0a1.69,1.69,0,0,0-.73-.7h0a1.52,1.52,0,0,0-1.24-.11h0a7.8,7.8,0,0,1-1.1.33h0a2.48,2.48,0,0,1-1.25,0c0-.05,0-.15,0-.28h0c0-.76,0-1.55.05-2.36h0a22.33,22.33,0,0,0-.1-3.79v0a8.48,8.48,0,0,0-3.51-5.27,8.83,8.83,0,0,0-4.3-1.54h0a13.68,13.68,0,0,0-1.53-.06Z"/><path fill="#8d6c9f" d="M51,6H13a7,7,0,0,0-7,7V51a7,7,0,0,0,7,7H51a7,7,0,0,0,7-7V13A7,7,0,0,0,51,6Zm5,45a5,5,0,0,1-5,5H13a5,5,0,0,1-5-5V13a5,5,0,0,1,5-5H51a5,5,0,0,1,5,5Z"/><path fill="#8d6c9f" d="M17 16a1 1 0 0 0 1-1V13a1 1 0 0 0-2 0v2A1 1 0 0 0 17 16zM12 12a1 1 0 0 0-1 1v2a1 1 0 0 0 2 0V13A1 1 0 0 0 12 12zM32 16a1 1 0 0 0 1-1V13a1 1 0 0 0-2 0v2A1 1 0 0 0 32 16zM37 16a1 1 0 0 0 1-1V13a1 1 0 0 0-2 0v2A1 1 0 0 0 37 16zM42 16a1 1 0 0 0 1-1V13a1 1 0 0 0-2 0v2A1 1 0 0 0 42 16zM47 16a1 1 0 0 0 1-1V13a1 1 0 0 0-2 0v2A1 1 0 0 0 47 16zM52 12a1 1 0 0 0-1 1v2a1 1 0 0 0 2 0V13A1 1 0 0 0 52 12zM22 16a1 1 0 0 0 1-1V13a1 1 0 0 0-2 0v2A1 1 0 0 0 22 16zM27 16a1 1 0 0 0 1-1V13a1 1 0 0 0-2 0v2A1 1 0 0 0 27 16zM49.26 43.59l-.14-.1h0l-.07 0a3.64 3.64 0 0 0-1-.4L47.78 43a8.38 8.38 0 0 1-4-2.93 9.43 9.43 0 0 1-1.37-2.4h0c0-.15-.06-.26-.08-.24l0 0a2.34 2.34 0 0 1 1.06-.62h0a6.88 6.88 0 0 0 2.4-1.27l0 0a2.28 2.28 0 0 0 .51-.68 1.82 1.82 0 0 0 0-1.5l0-.08a2.64 2.64 0 0 0-1.12-1.13 2.53 2.53 0 0 0-2-.22l-.06 0h0l-.41.14a3.37 3.37 0 0 1-.5.15l-.09 0h-.08c0-.25 0-.5 0-.75s0-.62 0-.93V30.3a21.81 21.81 0 0 0-.12-3.81 9.5 9.5 0 0 0-3.92-5.9 9.83 9.83 0 0 0-4.78-1.72 14 14 0 0 0-1.65-.07 10.08 10.08 0 0 0-9.65 6.27l0 .07a11.71 11.71 0 0 0-.51 5c0 .26 0 .53 0 .79 0 .45.05.88.06 1.28l-.34-.05h-.06a5 5 0 0 1-.55-.16l-.51-.15a2.34 2.34 0 0 0-1.9.41h0a2.11 2.11 0 0 0-1 1.72 2 2 0 0 0 0 .31 2.11 2.11 0 0 0 .71 1.19 3.7 3.7 0 0 0 .39.3l.11.09a8.59 8.59 0 0 0 2 .93l.46.17a1.26 1.26 0 0 1 .47.31 2 2 0 0 1-.33 1.13 10 10 0 0 1-3.19 3.7 7.45 7.45 0 0 1-2.31 1.06l-.14 0a2.25 2.25 0 0 0-1.36.93 1.39 1.39 0 0 0-.15.31 1.8 1.8 0 0 0 .32 1.69 2.21 2.21 0 0 0 .68.55 9.31 9.31 0 0 0 2.46.9l.22.06.47.1.47.1c0 .16.08.33.12.51s.12.56.21.85a1.44 1.44 0 0 0 1.07 1 1.88 1.88 0 0 0 1-.05A8.35 8.35 0 0 1 24.27 50a8.8 8.8 0 0 1 2.37 1.24l.85.54.11.07A6.59 6.59 0 0 0 30.78 53h.06l.72 0c.63 0 1.22 0 1.73-.08h.11a5.28 5.28 0 0 0 2.3-.79c.5-.29 1-.59 1.45-.9A17.09 17.09 0 0 1 39.24 50a4 4 0 0 1 .8-.09l.35 0a18.3 18.3 0 0 1 2.95.16 1.52 1.52 0 0 0 1.36-.58 1.65 1.65 0 0 0 .29-.6l0-.09h0l.11-.4c.06-.22.13-.48.18-.62h.15a10.63 10.63 0 0 0 2.42-.66l.23-.09.19-.08A2.88 2.88 0 0 0 49.6 46a1 1 0 0 0 .12-.18 1.71 1.71 0 0 0 .21-1.21A1.73 1.73 0 0 0 49.26 43.59zm-1.72 1.5l-.34.13a9.3 9.3 0 0 1-1.94.55h0a1.88 1.88 0 0 0-1.37.54 3.81 3.81 0 0 0-.69 1.54l-.05.18a19 19 0 0 0-2.74-.12h-.14l-.34 0a4.77 4.77 0 0 0-1.41.21l-.1 0a18.25 18.25 0 0 0-2.36 1.36c-.44.28-.89.57-1.42.88a3.24 3.24 0 0 1-1.42.5A20.47 20.47 0 0 1 31 51h-.1a4.76 4.76 0 0 1-2.32-.9l0 0-.83-.53a10.3 10.3 0 0 0-3-1.51 9.73 9.73 0 0 0-4.11.1l0-.22a7.55 7.55 0 0 0-.23-.87l-.1-.26a1.69 1.69 0 0 0-.13-.28 1 1 0 0 0-.46-.4 6.19 6.19 0 0 0-1.24-.34l-.41-.08-.18 0A8.85 8.85 0 0 1 16.14 45 9.41 9.41 0 0 0 19 43.71a12 12 0 0 0 3.84-4.45 3.8 3.8 0 0 0 .49-2.46 2.62 2.62 0 0 0-1.65-1.71l-.56-.21a6.8 6.8 0 0 1-1.53-.69l-.13-.09L19.29 34l.09-.07.07 0a.42.42 0 0 1 .3-.08l.34.1a6.67 6.67 0 0 0 .85.22h0a5 5 0 0 0 1.8 0 1.1 1.1 0 0 0 .81-.85 1 1 0 0 0 0-.11 14.86 14.86 0 0 0 0-2.41c0-.25 0-.5 0-.77a9.88 9.88 0 0 1 .39-4.19v0a8.08 8.08 0 0 1 7.81-5h0a11.77 11.77 0 0 1 1.43.06A7.82 7.82 0 0 1 37 22.21a7.48 7.48 0 0 1 3.1 4.61 20.41 20.41 0 0 1 .09 3.42v.23c0 .3 0 .59 0 .88 0 .49 0 1 0 1.45a1 1 0 0 0 0 .16c0 .06 0 .11 0 .24a1 1 0 0 0 .65.86 3.38 3.38 0 0 0 1.77.07h0a4.8 4.8 0 0 0 .85-.23l.35-.12h0a.55.55 0 0 1 .42 0 1.63 1.63 0 0 1 .26.18h0a5 5 0 0 1-1.72.87h0a4.14 4.14 0 0 0-2 1.3l0 0a2.22 2.22 0 0 0-.21 2l0 .07a11.4 11.4 0 0 0 1.67 3 10.23 10.23 0 0 0 4.91 3.61l.37.11.18 0z"/></svg>