<svg xmlns="http://www.w3.org/2000/svg"  viewBox="0 0 64 64" width="64px" height="64px" baseProfile="basic"><path fill="#efc88e" d="M33.69,23.792c0,0-2.97-0.73-7.16-1.16c-7.12-0.73-9.83-4.11-9.69-6.86l2.66-4.71	c1.55-2.75,5.45-2.75,7,0L33.69,23.792z"/><path fill="#f7a1c8" d="M35.96,27.813c0,0-5.23,0.36-15.31,3.47c-10.08,3.11-11.08,0.09-11.09-2.61l7.28-12.9	c-0.14,2.75,2.57,6.13,9.69,6.86c4.19,0.43,7.16,1.16,7.16,1.16L35.96,27.813z"/><path fill="#ed7899" d="M40.58,36.003c-13.14,0.25-25.09,12.63-35.54,13c-3.1,0-5.04-3.41-3.5-6.14l8.02-14.19	c0.01,2.7,1.01,5.72,11.09,2.61c10.08-3.11,15.31-3.47,15.31-3.47l3.66,6.48L40.58,36.003z"/><path fill="#85cbf8" d="M58.97,49.003H40.96c3.1,0,5.04-3.41,3.5-6.14l-3.87-6.86c6.12-0.12,17.11,2.41,21.25,5.97l0.62,1.07	C64,45.693,62.06,49.003,58.97,49.003z"/><path fill="#7bbeeb" d="M61.84,41.972c-4.14-3.56-15.13-6.09-21.25-5.97h-0.01l-0.96-1.71l2.78-4.79	c7.19,1.64,13.64,4.67,17.18,8.58l0.01,0.01L61.84,41.972z"/><path fill="#8d6c9f" d="M4.063,56.003c-0.553,0-1-0.447-1-1v-2c0-0.553,0.447-1,1-1s1,0.447,1,1v2	C5.063,55.556,4.616,56.003,4.063,56.003z M10.143,55.003v-2c0-0.553-0.447-1-1-1s-1,0.447-1,1v2c0,0.553,0.447,1,1,1	S10.143,55.556,10.143,55.003z M15.223,55.003v-2c0-0.553-0.447-1-1-1s-1,0.447-1,1v2c0,0.553,0.447,1,1,1	S15.223,55.556,15.223,55.003z M20.302,55.003v-2c0-0.553-0.447-1-1-1s-1,0.447-1,1v2c0,0.553,0.447,1,1,1	S20.302,55.556,20.302,55.003z M25.381,55.003v-2c0-0.553-0.447-1-1-1s-1,0.447-1,1v2c0,0.553,0.447,1,1,1	S25.381,55.556,25.381,55.003z M30.46,55.003v-2c0-0.553-0.447-1-1-1s-1,0.447-1,1v2c0,0.553,0.447,1,1,1S30.46,55.556,30.46,55.003	z M35.54,55.003v-2c0-0.553-0.447-1-1-1s-1,0.447-1,1v2c0,0.553,0.447,1,1,1S35.54,55.556,35.54,55.003z M40.619,55.003v-2	c0-0.553-0.447-1-1-1s-1,0.447-1,1v2c0,0.553,0.447,1,1,1S40.619,55.556,40.619,55.003z M45.698,55.003v-2c0-0.553-0.447-1-1-1	s-1,0.447-1,1v2c0,0.553,0.447,1,1,1S45.698,55.556,45.698,55.003z M50.777,55.003v-2c0-0.553-0.447-1-1-1s-1,0.447-1,1v2	c0,0.553,0.447,1,1,1S50.777,55.556,50.777,55.003z M55.857,55.003v-2c0-0.553-0.447-1-1-1s-1,0.447-1,1v2c0,0.553,0.447,1,1,1	S55.857,55.556,55.857,55.003z M60.937,55.003v-2c0-0.553-0.447-1-1-1s-1,0.447-1,1v2c0,0.553,0.447,1,1,1	S60.937,55.556,60.937,55.003z"/><path fill="#8d6c9f" d="M63.325,42.536L52.855,24.5c-0.908-1.563-2.536-2.497-4.355-2.497s-3.447,0.934-4.355,2.497	l-4.515,7.778L27.367,10.567C26.459,8.961,24.827,8.002,23,8.002s-3.459,0.959-4.367,2.565L0.67,42.371	c-0.91,1.613-0.896,3.53,0.037,5.13c0.915,1.566,2.532,2.501,4.329,2.502c0,0,0,0,0,0h53.933c1.827,0,3.458-0.939,4.364-2.513	C64.228,45.938,64.225,44.086,63.325,42.536z M42.887,30.652c6.971,1.687,12.731,4.597,15.898,8.048l0.193,0.332	c-5.25-2.508-13.018-3.963-17.805-4.021l-0.402-0.712L42.887,30.652z M20.375,11.552c0.548-0.971,1.529-1.55,2.625-1.55	s2.077,0.579,2.625,1.55l6.109,10.817c-1.277-0.237-3.038-0.519-5.104-0.73c-6.068-0.62-8.751-3.229-8.783-5.613L20.375,11.552z M2.435,46.492c-0.571-0.979-0.58-2.151-0.022-3.137L9.148,31.43c0.102,0.187,0.215,0.371,0.354,0.545	c0.862,1.077,2.306,1.623,4.293,1.623h0.049c0.552-0.002,0.997-0.452,0.995-1.004s-0.449-0.996-1-0.996	c-0.019-0.004-0.031,0-0.046,0c-1.348,0-2.266-0.293-2.729-0.872c-0.316-0.396-0.467-0.969-0.497-1.808l5.903-10.452	c1.255,2.44,4.442,4.599,9.958,5.163c3.188,0.325,5.668,0.836,6.608,1.045l1.31,2.32c-2.246,0.314-6.926,1.154-13.991,3.332	c-0.767,0.236-1.479,0.437-2.142,0.604c-0.535,0.135-0.86,0.679-0.726,1.214c0.114,0.454,0.521,0.756,0.969,0.756	c0.081,0,0.163-0.01,0.245-0.03c0.694-0.175,1.441-0.385,2.243-0.632c7.905-2.438,12.82-3.168,14.464-3.362l3.515,6.223	c-6.614,0.593-12.775,3.892-18.747,7.097c-5.399,2.897-10.499,5.632-15.148,5.806C3.956,47.999,2.985,47.436,2.435,46.492z M61.6,46.492c-0.544,0.946-1.528,1.511-2.631,1.511H44.955c0.12-0.16,0.235-0.326,0.338-0.502c0.934-1.6,0.947-3.517,0.037-5.13	l-3.011-5.331c6.172,0.311,15.245,2.697,18.753,5.599l0.523,0.901C62.131,44.464,62.133,45.567,61.6,46.492z"/></svg>