<svg xmlns="http://www.w3.org/2000/svg"  viewBox="0 0 64 64" width="64px" height="64px" fill-rule="evenodd" clip-rule="evenodd" baseProfile="basic"><polygon fill="#dd7e98" fill-rule="evenodd" points="18,7 28,7 46.001,56.5 36.955,55" clip-rule="evenodd"/><polygon fill="#dd7e98" fill-rule="evenodd" points="37,7 37,31 46.001,55 46,7" clip-rule="evenodd"/><polygon fill="#dd7e98" fill-rule="evenodd" points="27,55 27,32 17.999,8 18,57" clip-rule="evenodd"/><polygon fill="#d06e8e" fill-rule="evenodd" points="17.999,18.5 27,40 27,31 17.999,9" clip-rule="evenodd"/><polygon fill="#d06e8e" fill-rule="evenodd" points="36.955,32 46,55 46.001,44 36.955,21" clip-rule="evenodd"/><path fill="#876e9b" d="M46.001,57.5c-0.035,0-0.069-0.002-0.104-0.005l-9.501-1c-0.375-0.04-0.695-0.286-0.83-0.638 l-18.5-48.5c-0.117-0.308-0.075-0.653,0.111-0.924S17.671,6,18,6h10c0.421,0,0.796,0.263,0.939,0.658l18.001,49.5 c0.118,0.324,0.061,0.686-0.151,0.958C46.599,57.36,46.307,57.5,46.001,57.5z M37.216,54.57l7.299,0.768L27.3,8h-7.848 L37.216,54.57z"/><path fill="#876e9b" d="M46,57.5c-0.553,0-1-0.448-1-1V8h-7.004c-0.037,9.254-0.067,22.373-0.006,23.356 c0.068,0.471-0.207,0.938-0.675,1.093c-0.524,0.176-1.09-0.109-1.265-0.633C35.982,31.61,35.897,31.355,36,6.996 C36.002,6.445,36.449,6,37,6h9c0.553,0,1,0.448,1,1v49.5C47,57.052,46.553,57.5,46,57.5z"/><path fill="#876e9b" d="M18,57.5c-0.245,0-0.482-0.09-0.667-0.255C17.121,57.056,17,56.785,17,56.5V7c0-0.552,0.447-1,1-1 s1,0.448,1,1v48.383l7-0.778V31c0-0.552,0.447-1,1-1s1,0.448,1,1v24.5c0,0.51-0.383,0.938-0.89,0.994l-9,1 C18.073,57.498,18.037,57.5,18,57.5z"/><path fill="#876e9b" d="M52,10h-2c-0.553,0-1-0.448-1-1s0.447-1,1-1h2c0.553,0,1,0.448,1,1S52.553,10,52,10z"/><path fill="#876e9b" d="M52,20h-2c-0.553,0-1-0.448-1-1s0.447-1,1-1h2c0.553,0,1,0.448,1,1S52.553,20,52,20z"/><path fill="#876e9b" d="M52,30h-2c-0.553,0-1-0.448-1-1s0.447-1,1-1h2c0.553,0,1,0.448,1,1S52.553,30,52,30z"/><path fill="#876e9b" d="M52,40h-2c-0.553,0-1-0.448-1-1s0.447-1,1-1h2c0.553,0,1,0.448,1,1S52.553,40,52,40z"/><path fill="#876e9b" d="M52,50h-2c-0.553,0-1-0.448-1-1s0.447-1,1-1h2c0.553,0,1,0.448,1,1S52.553,50,52,50z"/><path fill="#876e9b" d="M52,15h-2c-0.553,0-1-0.448-1-1s0.447-1,1-1h2c0.553,0,1,0.448,1,1S52.553,15,52,15z"/><path fill="#876e9b" d="M52,25h-2c-0.553,0-1-0.448-1-1s0.447-1,1-1h2c0.553,0,1,0.448,1,1S52.553,25,52,25z"/><path fill="#876e9b" d="M52,35h-2c-0.553,0-1-0.448-1-1s0.447-1,1-1h2c0.553,0,1,0.448,1,1S52.553,35,52,35z"/><path fill="#876e9b" d="M52,45h-2c-0.553,0-1-0.448-1-1s0.447-1,1-1h2c0.553,0,1,0.448,1,1S52.553,45,52,45z"/><path fill="#876e9b" d="M52,55h-2c-0.553,0-1-0.448-1-1s0.447-1,1-1h2c0.553,0,1,0.448,1,1S52.553,55,52,55z"/></svg>