<svg xmlns="http://www.w3.org/2000/svg"  viewBox="0 0 64 64" width="64px" height="64px"><path fill="#b6b6ef" d="M7,51V13c0-3.31,2.69-6,6-6h38c3.31,0,6,2.69,6,6v38c0,3.31-2.69,6-6,6H13C9.69,57,7,54.31,7,51z"/><path fill="#a2a2ea" d="M11,57h42c2.209,0,4-1.791,4-4l0,0c0-1.657-1.343-3-3-3H10c-1.657,0-3,1.343-3,3l0,0	C7,55.209,8.791,57,11,57z"/><path fill="#8d6c9f" d="M51,58H13c-3.86,0-7-3.141-7-7V13c0-3.859,3.14-7,7-7h38c3.86,0,7,3.141,7,7v38	C58,54.859,54.86,58,51,58z M13,8c-2.757,0-5,2.243-5,5v38c0,2.757,2.243,5,5,5h38c2.757,0,5-2.243,5-5V13c0-2.757-2.243-5-5-5H13z"/><path fill="#8d6c9f" d="M47,48c-0.552,0-1,0.448-1,1v2c0,0.552,0.448,1,1,1s1-0.448,1-1v-2C48,48.448,47.552,48,47,48z M52,52c0.552,0,1-0.448,1-1v-2c0-0.552-0.448-1-1-1s-1,0.448-1,1v2C51,51.552,51.448,52,52,52z M32,48c-0.552,0-1,0.448-1,1v2	c0,0.552,0.448,1,1,1s1-0.448,1-1v-2C33,48.448,32.552,48,32,48z M27,48c-0.552,0-1,0.448-1,1v2c0,0.552,0.448,1,1,1s1-0.448,1-1v-2	C28,48.448,27.552,48,27,48z M22,48c-0.552,0-1,0.448-1,1v2c0,0.552,0.448,1,1,1s1-0.448,1-1v-2C23,48.448,22.552,48,22,48z M17,48	c-0.552,0-1,0.448-1,1v2c0,0.552,0.448,1,1,1s1-0.448,1-1v-2C18,48.448,17.552,48,17,48z M12,52c0.552,0,1-0.448,1-1v-2	c0-0.552-0.448-1-1-1s-1,0.448-1,1v2C11,51.552,11.448,52,12,52z M42,48c-0.552,0-1,0.448-1,1v2c0,0.552,0.448,1,1,1s1-0.448,1-1v-2	C43,48.448,42.552,48,42,48z M37,48c-0.552,0-1,0.448-1,1v2c0,0.552,0.448,1,1,1s1-0.448,1-1v-2C38,48.448,37.552,48,37,48z"/><circle cx="32" cy="25" r="3" fill="#fff8ee"/><path fill="#fff8ee" d="M32.459,32h-0.917c-1.854,0-3.264,1.665-2.959,3.493l1.089,6.534C29.861,43.166,30.846,44,32,44h0	c1.154,0,2.139-0.834,2.329-1.973l1.089-6.534C35.723,33.665,34.312,32,32.459,32z"/><path fill="#8d6c9f" d="M32,29c-2.206,0-4-1.794-4-4s1.794-4,4-4s4,1.794,4,4S34.206,29,32,29z M32,23c-1.103,0-2,0.897-2,2	s0.897,2,2,2s2-0.897,2-2S33.103,23,32,23z"/><path fill="#8d6c9f" d="M30.757,16.072c-4.651,0.537-8.466,4.226-9.142,8.859c-0.489,3.348,0.617,6.449,2.664,8.668	c0.478,0.519,1.315,0.331,1.525-0.343c0.016-0.05,0.032-0.1,0.049-0.149c0.111-0.327,0.047-0.678-0.183-0.936	c-1.629-1.822-2.486-4.337-2.061-7.047c0.578-3.684,3.629-6.61,7.331-7.059c5.162-0.627,9.56,3.396,9.56,8.435	c0,2.177-0.82,4.162-2.169,5.671c-0.23,0.257-0.295,0.609-0.183,0.936c0.017,0.049,0.033,0.099,0.049,0.149	c0.209,0.671,1.044,0.864,1.521,0.348c1.725-1.868,2.783-4.363,2.783-7.104C42.5,20.301,37.1,15.339,30.757,16.072z"/><path fill="#8d6c9f" d="M31.234,11.019c-8.035,0.388-14.566,7.114-14.731,15.157c-0.124,6.05,3.232,11.334,8.191,13.991	c0.725,0.388,1.581-0.254,1.446-1.065l0,0c-0.051-0.31-0.248-0.571-0.525-0.719c-4.844-2.601-7.927-8.097-6.929-14.155	c0.966-5.866,5.849-10.474,11.757-11.139C38.576,12.172,45.5,18.547,45.5,26.5c0,5.133-2.887,9.612-7.118,11.883	c-0.276,0.148-0.472,0.408-0.523,0.717l0,0c-0.138,0.835,0.747,1.444,1.492,1.042C44.197,37.524,47.5,32.395,47.5,26.5	C47.5,17.696,40.131,10.589,31.234,11.019z"/><path fill="#8d6c9f" d="M32,45c-1.65,0-3.044-1.182-3.315-2.809l-1.089-6.534c-0.194-1.161,0.132-2.344,0.894-3.242	C29.251,31.516,30.363,31,31.542,31h0.917c1.178,0,2.291,0.516,3.052,1.415c0.762,0.898,1.087,2.081,0.894,3.242l-1.089,6.534	C35.044,43.818,33.65,45,32,45z M31.542,33c-0.589,0-1.146,0.258-1.526,0.707c-0.381,0.45-0.543,1.041-0.447,1.622l1.089,6.534	C30.768,42.521,31.332,43,32,43s1.232-0.479,1.342-1.137l1.089-6.534c0.097-0.581-0.066-1.172-0.447-1.622	C33.604,33.258,33.047,33,32.458,33H31.542z"/></svg>