<svg xmlns="http://www.w3.org/2000/svg"  viewBox="0 0 64 64" width="64px" height="64px"><polygon fill="#84caf7" points="39.5,44.139 61.639,22 50.5,10.861 17,44.361 28.139,55.5"/><path fill="#7bbdea" d="M25.784,49.725l29.941-29.941c1.172-1.172,3.071-1.172,4.243,0l1.376,1.376L27.161,55.344 l-1.376-1.376C24.612,52.796,24.612,50.897,25.784,49.725z"/><polygon fill="#6e90cd" points="27.278,33 14.139,19.861 3,31 16.5,44.5 27.639,33.361"/><path fill="#8c6c9e" d="M28.833,49.081c-0.256,0-0.512-0.098-0.707-0.293l-1.414-1.414c-0.391-0.391-0.391-1.023,0-1.414 s1.023-0.391,1.414,0l1.414,1.414c0.391,0.391,0.391,1.023,0,1.414C29.345,48.983,29.089,49.081,28.833,49.081z"/><path fill="#8c6c9e" d="M32.368,45.546c-0.256,0-0.512-0.098-0.707-0.293l-1.414-1.414c-0.391-0.391-0.391-1.023,0-1.414 s1.023-0.391,1.414,0l1.414,1.414c0.391,0.391,0.391,1.023,0,1.414C32.88,45.448,32.624,45.546,32.368,45.546z"/><path fill="#8c6c9e" d="M35.903,42.011c-0.256,0-0.512-0.098-0.707-0.293l-1.414-1.414c-0.391-0.391-0.391-1.023,0-1.414 s1.023-0.391,1.414,0l1.414,1.414c0.391,0.391,0.391,1.023,0,1.414C36.415,41.913,36.159,42.011,35.903,42.011z"/><path fill="#8c6c9e" d="M39.439,38.475c-0.256,0-0.512-0.098-0.707-0.293l-1.414-1.414c-0.391-0.391-0.391-1.023,0-1.414 s1.023-0.391,1.414,0l1.414,1.414c0.391,0.391,0.391,1.023,0,1.414C39.951,38.377,39.695,38.475,39.439,38.475z"/><path fill="#8c6c9e" d="M42.975,34.939c-0.256,0-0.512-0.098-0.707-0.293l-1.414-1.414c-0.391-0.391-0.391-1.023,0-1.414 s1.023-0.391,1.414,0l1.414,1.414c0.391,0.391,0.391,1.023,0,1.414C43.486,34.842,43.23,34.939,42.975,34.939z"/><path fill="#8c6c9e" d="M46.511,31.403c-0.256,0-0.512-0.098-0.707-0.293l-1.414-1.414c-0.391-0.391-0.391-1.023,0-1.414 s1.023-0.391,1.414,0l1.414,1.414c0.391,0.391,0.391,1.023,0,1.414C47.022,31.306,46.767,31.403,46.511,31.403z"/><path fill="#8c6c9e" d="M50.046,27.868c-0.256,0-0.512-0.098-0.707-0.293l-1.414-1.414c-0.391-0.391-0.391-1.023,0-1.414 s1.023-0.391,1.414,0l1.414,1.414c0.391,0.391,0.391,1.023,0,1.414C50.558,27.771,50.302,27.868,50.046,27.868z"/><path fill="#8c6c9e" d="M53.581,24.333c-0.256,0-0.512-0.098-0.707-0.293l-1.414-1.414c-0.391-0.391-0.391-1.023,0-1.414 s1.023-0.391,1.414,0l1.414,1.414c0.391,0.391,0.391,1.023,0,1.414C54.093,24.235,53.837,24.333,53.581,24.333z"/><path fill="#8c6c9e" d="M62.207,20.793l-11-11c-0.391-0.391-1.023-0.391-1.414,0L27.639,31.947L14.846,19.154 c-0.391-0.391-1.023-0.391-1.414,0L2.293,30.293c-0.391,0.391-0.391,1.023,0,1.414l13.5,13.5l11,11 c0.195,0.195,0.451,0.293,0.707,0.293s0.512-0.098,0.707-0.293l34-34C62.598,21.816,62.598,21.184,62.207,20.793z M14.139,21.275 L26.225,33.36L16.5,43.086L4.414,31L14.139,21.275z M27.5,54.086L17.914,44.5L50.5,11.914l9.586,9.586L27.5,54.086z"/></svg>