<svg xmlns="http://www.w3.org/2000/svg"  viewBox="0 0 64 64" width="64px" height="64px"><path fill="#5dbc9d" d="M57.982,28.28C57.985,28.109,58,27.942,58,27.77c0-0.362-0.042-0.712-0.106-1.055 C56.736,13.426,45.589,3,32,3C17.641,3,6,14.641,6,29c0,14.359,11.641,26,26,26v7.77c0,0,13.597-6.478,21.125-18.621 C56.19,39.882,58,34.654,58,29C58,28.758,57.988,28.52,57.982,28.28z"/><path fill="#e2e9f7" d="M42,26.375V22c0-2.209-1.791-4-4-4H21c-2.209,0-4,1.791-4,4v13c0,2.209,1.791,4,4,4h17 c2.209,0,4-1.791,4-4v-4.375L48,37v-8.5V20L42,26.375z"/><path fill="#ced9ed" d="M21,18h17c2.209,0,4,1.791,4,4v7H17v-7C17,19.791,18.791,18,21,18z"/><polygon fill="#ced9ed" points="48,21 48,29 41,29"/><path fill="#8d6c9f" d="M38,40H21c-2.757,0-5-2.243-5-5V22c0-2.757,2.243-5,5-5h17c2.757,0,5,2.243,5,5v1.854l4.271-4.539 c0.282-0.299,0.719-0.393,1.097-0.244C48.75,19.222,49,19.59,49,20v17c0,0.41-0.25,0.778-0.632,0.93 c-0.379,0.149-0.814,0.055-1.097-0.244L43,33.146V35C43,37.757,40.757,40,38,40z M21,19c-1.654,0-3,1.346-3,3v13 c0,1.654,1.346,3,3,3h17c1.654,0,3-1.346,3-3v-4.375c0-0.41,0.25-0.778,0.632-0.93c0.379-0.148,0.814-0.055,1.097,0.244L47,34.479 V22.521l-4.271,4.539c-0.282,0.3-0.717,0.395-1.097,0.244C41.25,27.153,41,26.785,41,26.375V22c0-1.654-1.346-3-3-3H21z"/><path fill="#8d6c9f" d="M21.348,31c-0.553,0-1-0.447-1-1v-2c0-0.553,0.447-1,1-1s1,0.447,1,1v2 C22.348,30.553,21.9,31,21.348,31z"/><path fill="#8d6c9f" d="M26.782,31c-0.553,0-1-0.447-1-1v-2c0-0.553,0.447-1,1-1s1,0.447,1,1v2 C27.782,30.553,27.335,31,26.782,31z"/><path fill="#8d6c9f" d="M32.218,31c-0.553,0-1-0.447-1-1v-2c0-0.553,0.447-1,1-1s1,0.447,1,1v2 C33.218,30.553,32.771,31,32.218,31z"/><path fill="#8d6c9f" d="M37.652,31c-0.553,0-1-0.447-1-1v-2c0-0.553,0.447-1,1-1s1,0.447,1,1v2 C38.652,30.553,38.205,31,37.652,31z"/><path fill="#72caaf" d="M19.527,11.226c7.395-5.101,17.194-4.907,24.383,0.484c1.898,1.423,4.53,1.13,6.09-0.607 c-0.134-0.143-0.262-0.289-0.399-0.43C39.773,0.61,23.648,0.421,13.586,10.249c-0.042,0.041-0.08,0.084-0.122,0.125 C14.952,12.165,17.573,12.573,19.527,11.226z"/><g><path fill="#8d6c9f" d="M32,63.77c-0.187,0-0.371-0.052-0.534-0.154C31.176,63.432,31,63.112,31,62.77v-6.788 C16.573,55.454,5,43.554,5,29C5,14.112,17.112,2,32,2c13.875,0,25.688,10.818,26.891,24.628C58.96,26.977,59,27.381,59,27.77 c0,0.112-0.005,0.223-0.011,0.333l-0.008,0.194l0.006,0.159C58.994,28.637,59,28.818,59,29c0,5.681-1.751,11.12-5.063,15.731 c-7.559,12.196-20.941,18.671-21.508,18.94C32.294,63.737,32.146,63.77,32,63.77z M32,4C18.215,4,7,15.215,7,29s11.215,25,25,25 c0.553,0,1,0.447,1,1v6.114c3.646-2.018,13.412-8.035,19.275-17.493C55.379,39.296,57,34.259,57,29 c0-0.159-0.006-0.317-0.011-0.475l-0.008-0.217l0.011-0.308C56.996,27.924,57,27.848,57,27.77c0-0.265-0.029-0.55-0.089-0.873 C55.784,14.016,44.848,4,32,4z"/></g><g><path fill="#8d6c9f" d="M44.328,48.213c-0.32,0-0.635-0.153-0.828-0.438l-1.123-1.655 c-0.311-0.457-0.191-1.079,0.266-1.389c0.457-0.312,1.079-0.191,1.389,0.266l1.123,1.655c0.311,0.457,0.191,1.079-0.266,1.389 C44.717,48.157,44.521,48.213,44.328,48.213z"/><path fill="#8d6c9f" d="M39.683,50.599c-0.405,0-0.787-0.248-0.938-0.651l-0.698-1.875 c-0.192-0.518,0.071-1.093,0.589-1.286c0.513-0.188,1.093,0.069,1.286,0.589l0.698,1.875c0.192,0.518-0.071,1.093-0.589,1.286 C39.917,50.578,39.799,50.599,39.683,50.599z"/><path fill="#8d6c9f" d="M34.608,51.828c-0.5,0-0.932-0.374-0.992-0.882L33.38,48.96c-0.065-0.549,0.326-1.046,0.875-1.111 c0.554-0.069,1.046,0.327,1.111,0.875l0.236,1.986c0.065,0.549-0.326,1.046-0.875,1.111 C34.688,51.826,34.647,51.828,34.608,51.828z"/><path fill="#8d6c9f" d="M29.392,51.828c-0.039,0-0.079-0.002-0.119-0.007c-0.549-0.065-0.94-0.563-0.875-1.111 l0.236-1.986c0.065-0.548,0.557-0.942,1.111-0.875c0.549,0.065,0.94,0.563,0.875,1.111l-0.236,1.986 C30.323,51.454,29.892,51.828,29.392,51.828z"/><path fill="#8d6c9f" d="M24.317,50.599c-0.116,0-0.234-0.021-0.349-0.063c-0.518-0.193-0.781-0.769-0.589-1.286 l0.698-1.875c0.193-0.519,0.773-0.776,1.286-0.589c0.518,0.193,0.781,0.769,0.589,1.286l-0.698,1.875 C25.104,50.351,24.723,50.599,24.317,50.599z"/><path fill="#8d6c9f" d="M19.672,48.213c-0.193,0-0.389-0.056-0.561-0.173c-0.457-0.31-0.576-0.932-0.266-1.389 l1.123-1.655c0.311-0.457,0.934-0.576,1.389-0.266c0.457,0.31,0.576,0.932,0.266,1.389L20.5,47.774 C20.307,48.06,19.992,48.213,19.672,48.213z"/></g><g><path fill="#8d6c9f" d="M20.001,12.762c-0.315,0-0.627-0.149-0.821-0.428c-0.315-0.453-0.205-1.076,0.248-1.393 C23.123,8.363,27.471,7,32.002,7c1.826,0,3.648,0.227,5.417,0.674c0.535,0.136,0.859,0.68,0.725,1.215 c-0.137,0.535-0.684,0.857-1.215,0.725C35.32,9.206,33.662,9,32.002,9c-4.119,0-8.072,1.238-11.43,3.582 C20.398,12.703,20.198,12.762,20.001,12.762z M43.933,12.716c-0.196,0-0.395-0.058-0.568-0.178 c-0.904-0.626-1.865-1.179-2.855-1.645c-0.5-0.235-0.715-0.831-0.48-1.33c0.235-0.501,0.833-0.715,1.33-0.48 c1.092,0.513,2.149,1.122,3.145,1.811c0.454,0.314,0.567,0.938,0.253,1.392C44.562,12.565,44.25,12.716,43.933,12.716z"/></g></svg>