<svg xmlns="http://www.w3.org/2000/svg"  viewBox="0 0 64 64" width="64px" height="64px"><path fill="#f9dd8f" d="M42.343,59H9c-2.209,0-4-1.791-4-4V9c0-2.209,1.791-4,4-4h46c2.209,0,4,1.791,4,4v33.343 c0,1.061-0.421,2.078-1.172,2.828L45.172,57.828C44.421,58.579,43.404,59,42.343,59z"/><path fill="#f6d397" d="M44 43L27.5 59.5 43 59.5 43 46z"/><path fill="#ffeb9b" d="M43 59L43 47 46 43 59 43 44 58.636z"/><path fill="#8d6c9f" d="M55,4H9C6.243,4,4,6.243,4,9v46c0,2.757,2.243,5,5,5h33.343c1.336,0,2.592-0.52,3.536-1.464 l12.656-12.657c0.944-0.944,1.465-2.2,1.465-3.535V9C60,6.243,57.757,4,55,4z M9,58c-1.654,0-3-1.346-3-3V34c0.553,0,1-0.448,1-1 v-2c0-0.552-0.447-1-1-1V9c0-1.654,1.346-3,3-3h46c1.654,0,3,1.346,3,3v21c-0.553,0-1,0.448-1,1v2c0,0.552,0.447,1,1,1v8H47 c-2.757,0-5,2.243-5,5v11H9z M44.465,57.122c-0.144,0.144-0.3,0.27-0.465,0.38V47c0-1.654,1.346-3,3-3h10.499 c-0.11,0.166-0.236,0.322-0.377,0.464L44.465,57.122z"/><path fill="#8d6c9f" d="M11 30c-.553 0-1 .448-1 1v2c0 .552.447 1 1 1s1-.448 1-1v-2C12 30.448 11.553 30 11 30zM48 34c.553 0 1-.448 1-1v-2c0-.552-.447-1-1-1s-1 .448-1 1v2C47 33.552 47.447 34 48 34zM43 34c.553 0 1-.448 1-1v-2c0-.552-.447-1-1-1s-1 .448-1 1v2C42 33.552 42.447 34 43 34zM53 34c.553 0 1-.448 1-1v-2c0-.552-.447-1-1-1s-1 .448-1 1v2C52 33.552 52.447 34 53 34zM16 30c-.553 0-1 .448-1 1v2c0 .552.447 1 1 1s1-.448 1-1v-2C17 30.448 16.553 30 16 30zM21 30c-.553 0-1 .448-1 1v2c0 .552.447 1 1 1s1-.448 1-1v-2C22 30.448 21.553 30 21 30z"/><path fill="#fff" d="M39.998,17.054c-2.542-2.273-5.961-3.361-9.376-2.977c-5.265,0.588-9.67,4.802-10.475,10.021 c-0.731,4.738,1.392,9.455,5.41,12.017C25.835,36.291,26,36.598,26,36.937V45c0,1.654,1.346,3,3,3h1v1c0,0.552,0.447,1,1,1h2 c0.553,0,1-0.448,1-1v-1h1c1.654,0,3-1.346,3-3v-8.062c0-0.334,0.164-0.647,0.428-0.815C41.917,33.906,44,30.122,44,26 C44,22.59,42.541,19.329,39.998,17.054z M35,46h-2h-2h-2c-0.552,0-1-0.449-1-1v-3h8v3C36,45.551,35.552,46,35,46z M37.354,34.436 C36.507,34.975,36,35.911,36,36.938V40h-8v-3.063c0-1.026-0.512-1.964-1.367-2.509c-3.401-2.168-5.129-6.01-4.509-10.025 c0.67-4.341,4.337-7.848,8.721-8.338c0.392-0.043,0.781-0.065,1.168-0.065c2.466,0,4.794,0.884,6.651,2.545 C40.784,20.441,42,23.158,42,26C42,29.434,40.264,32.587,37.354,34.436z"/></svg>