<svg xmlns="http://www.w3.org/2000/svg"  viewBox="0 0 64 64" width="64px" height="64px" baseProfile="basic"><path fill="#8d6c9f" d="M11.786,53.478c-0.327,0-0.644-0.127-0.881-0.358c-0.264-0.257-0.402-0.616-0.38-0.983 l0.155-2.522c0.043-0.696,0.651-1.209,1.339-1.183c0.696,0.043,1.226,0.643,1.183,1.339l-0.065,1.055l1.054-0.095 c0.698-0.067,1.308,0.45,1.371,1.146c0.062,0.695-0.45,1.308-1.146,1.371l-2.517,0.226 C11.861,53.476,11.823,53.478,11.786,53.478z"/><path fill="#8d6c9f" d="M32.001,56.005c-1.189,0-2.381-0.088-3.544-0.26c-0.69-0.102-1.166-0.745-1.064-1.436 c0.104-0.69,0.748-1.15,1.436-1.064c1.531,0.227,3.128,0.29,4.669,0.181c0.724-0.028,1.3,0.48,1.347,1.175 c0.047,0.696-0.479,1.299-1.175,1.347C33.12,55.985,32.563,56.005,32.001,56.005z M38.45,55.077 c-0.547,0-1.049-0.355-1.212-0.906c-0.197-0.669,0.185-1.372,0.854-1.569c1.493-0.44,2.941-1.048,4.305-1.804 c0.613-0.342,1.379-0.118,1.717,0.491c0.339,0.611,0.118,1.379-0.491,1.717c-1.525,0.846-3.145,1.525-4.816,2.019 C38.688,55.061,38.568,55.077,38.45,55.077z M23.86,54.501c-0.151,0-0.305-0.027-0.454-0.084 c-1.196-0.46-2.359-1.019-3.463-1.664l-0.502,0.044c-0.701,0.063-1.308-0.452-1.371-1.146c-0.062-0.695,0.45-1.309,1.146-1.371 l0.911-0.081c0.266-0.027,0.539,0.039,0.77,0.179c1.081,0.659,2.231,1.224,3.418,1.68c0.65,0.25,0.976,0.982,0.725,1.634 C24.846,54.193,24.367,54.501,23.86,54.501z M47.047,50.314c-0.349,0-0.697-0.144-0.946-0.427 c-0.463-0.523-0.413-1.321,0.11-1.783c1.17-1.034,2.23-2.196,3.147-3.453c0.412-0.561,1.202-0.688,1.766-0.275 c0.564,0.412,0.686,1.202,0.275,1.766c-1.027,1.405-2.209,2.702-3.515,3.856C47.643,50.209,47.344,50.314,47.047,50.314z M12.247,46.011c-0.026,0-0.052-0.001-0.078-0.002c-0.697-0.042-1.228-0.642-1.184-1.337l0.059-0.975 c-0.558-0.992-1.046-2.028-1.455-3.086c-0.252-0.651,0.073-1.383,0.723-1.634c0.648-0.252,1.382,0.072,1.634,0.723 c0.406,1.052,0.902,2.081,1.473,3.057c0.126,0.216,0.185,0.465,0.17,0.714l-0.083,1.352 C13.466,45.495,12.91,46.011,12.247,46.011z M52.842,42.372c-0.169,0-0.341-0.033-0.506-0.106c-0.639-0.28-0.93-1.025-0.65-1.664 c0.624-1.425,1.093-2.924,1.393-4.455c0.134-0.685,0.787-1.134,1.483-0.997c0.685,0.134,1.131,0.798,0.997,1.483 c-0.336,1.713-0.86,3.389-1.558,4.983C53.794,42.09,53.33,42.372,52.842,42.372z M9.507,36.637c-0.616,0-1.155-0.45-1.249-1.077 c-0.174-1.171-0.263-2.369-0.263-3.561c0-0.556,0.019-1.107,0.056-1.655c0.049-0.696,0.659-1.199,1.349-1.173 c0.696,0.048,1.221,0.651,1.173,1.349c-0.035,0.489-0.051,0.982-0.051,1.479c0,1.067,0.079,2.141,0.236,3.188 c0.102,0.69-0.374,1.333-1.064,1.436C9.631,36.632,9.569,36.637,9.507,36.637z M54.736,32.726c-0.685,0-1.247-0.547-1.263-1.234 c-0.036-1.564-0.242-3.122-0.612-4.628c-0.165-0.679,0.249-1.362,0.927-1.529c0.676-0.162,1.362,0.249,1.529,0.927 c0.412,1.684,0.643,3.424,0.684,5.171c0.016,0.697-0.537,1.276-1.234,1.293C54.756,32.726,54.746,32.726,54.736,32.726z M10.182,26.831c-0.117,0-0.238-0.016-0.357-0.052c-0.67-0.196-1.052-0.899-0.855-1.568c0.491-1.669,1.168-3.291,2.014-4.818 c0.338-0.61,1.107-0.832,1.717-0.494c0.611,0.338,0.832,1.107,0.494,1.717c-0.756,1.366-1.362,2.814-1.801,4.307 C11.232,26.474,10.728,26.831,10.182,26.831z M52.392,23.184c-0.465,0-0.913-0.258-1.134-0.702 c-0.69-1.395-1.536-2.718-2.515-3.933c-0.437-0.544-0.352-1.339,0.192-1.777c0.543-0.438,1.34-0.349,1.777,0.192 c1.092,1.358,2.038,2.837,2.811,4.395c0.31,0.626,0.053,1.383-0.571,1.694C52.772,23.142,52.58,23.184,52.392,23.184z M14.938,18.227c-0.297,0-0.595-0.104-0.835-0.316c-0.523-0.461-0.574-1.26-0.112-1.783c1.149-1.304,2.445-2.487,3.853-3.518 c0.563-0.415,1.355-0.29,1.766,0.273c0.412,0.564,0.29,1.354-0.273,1.766c-1.261,0.923-2.422,1.983-3.451,3.15 C15.636,18.083,15.287,18.227,14.938,18.227z M46.23,15.523c-0.278,0-0.556-0.091-0.79-0.279 c-1.218-0.978-2.543-1.824-3.936-2.512c-0.626-0.308-0.883-1.066-0.574-1.692c0.308-0.626,1.07-0.882,1.692-0.574 c1.56,0.77,3.039,1.714,4.4,2.808c0.544,0.437,0.63,1.233,0.194,1.775C46.967,15.361,46.6,15.523,46.23,15.523z M22.874,12.427 c-0.487,0-0.95-0.281-1.159-0.755c-0.28-0.639,0.011-1.384,0.649-1.666c1.597-0.701,3.273-1.225,4.982-1.561 c0.682-0.134,1.349,0.313,1.483,0.997c0.134,0.685-0.312,1.349-0.997,1.483c-1.527,0.3-3.025,0.769-4.452,1.395 C23.216,12.393,23.043,12.427,22.874,12.427z M37.418,11.17c-0.1,0-0.2-0.011-0.301-0.036c-1.508-0.369-3.065-0.572-4.628-0.607 c-0.698-0.016-1.251-0.593-1.236-1.291C31.268,8.539,31.864,8.018,32.543,8c1.747,0.038,3.488,0.267,5.173,0.679 c0.677,0.165,1.093,0.85,0.928,1.527C38.503,10.784,37.987,11.17,37.418,11.17z"/><path fill="#7bbeeb" d="M51.584,31.999c0,10.802-8.781,19.583-19.583,19.583c-3.891,0-7.606-1.124-10.815-3.26 l-5.306,1.327c-0.417,0.114-0.884-0.013-1.2-0.329c-0.316-0.316-0.442-0.771-0.328-1.2l1.327-5.306 c-2.135-3.209-3.26-6.924-3.26-10.815c0-10.802,8.781-19.583,19.583-19.583S51.584,21.197,51.584,31.999z"/><g><path fill="#8d6c9f" d="M32.001,51.583c-3.887,0-7.61-1.125-10.81-3.26l-5.309,1.326c-0.426,0.11-0.886-0.017-1.199-0.332 c-0.313-0.313-0.44-0.769-0.332-1.199l1.326-5.309c-2.135-3.199-3.26-6.923-3.26-10.81c0-10.798,8.785-19.583,19.583-19.583 s19.583,8.785,19.583,19.583S42.799,51.583,32.001,51.583z M21.438,45.695c0.26,0,0.517,0.08,0.733,0.234 c2.875,2.046,6.274,3.127,9.83,3.127c9.405,0,17.056-7.651,17.056-17.056s-7.651-17.056-17.056-17.056 s-17.056,7.651-17.056,17.056c0,3.556,1.081,6.955,3.127,9.83c0.215,0.301,0.286,0.681,0.196,1.039l-0.955,3.82l3.82-0.955 C21.233,45.707,21.335,45.695,21.438,45.695z"/></g></svg>