<svg xmlns="http://www.w3.org/2000/svg"  viewBox="0 0 64 64" width="64px" height="64px"><rect width="8" height="35" x="14" y="14" fill="#8b8e98"/><circle cx="42" cy="28" r="14.438" fill="#ed7899"/><path fill="#8b6d9d" d="M20,24c0-0.553-0.447-1-1-1h-2c-0.553,0-1,0.447-1,1s0.447,1,1,1h2C19.553,25,20,24.553,20,24z M20,19c0-0.553-0.447-1-1-1h-2c-0.553,0-1,0.447-1,1s0.447,1,1,1h2C19.553,20,20,19.553,20,19z M20,34c0-0.553-0.447-1-1-1h-2 c-0.553,0-1,0.447-1,1s0.447,1,1,1h2C19.553,35,20,34.553,20,34z M20,29c0-0.553-0.447-1-1-1h-2c-0.553,0-1,0.447-1,1s0.447,1,1,1 h2C19.553,30,20,29.553,20,29z M20,39c0-0.553-0.447-1-1-1h-2c-0.553,0-1,0.447-1,1s0.447,1,1,1h2C19.553,40,20,39.553,20,39z M20,44c0-0.553-0.447-1-1-1h-2c-0.553,0-1,0.447-1,1s0.447,1,1,1h2C19.553,45,20,44.553,20,44z"/><path fill="#8b6d9d" d="M42,43.438c-8.513,0-15.438-6.925-15.438-15.438S33.487,12.562,42,12.562S57.437,19.487,57.437,28 S50.513,43.438,42,43.438z M42,14.562c-7.409,0-13.438,6.028-13.438,13.438S34.591,41.438,42,41.438S55.437,35.409,55.437,28 S49.409,14.562,42,14.562z"/><path fill="#8b6d9d" d="M22,50h-8c-0.553,0-1-0.447-1-1V14c0-0.553,0.447-1,1-1h8c0.553,0,1,0.447,1,1v35 C23,49.553,22.553,50,22,50z M15,48h6V15h-6V48z"/></svg>