<svg xmlns="http://www.w3.org/2000/svg"  viewBox="0 0 64 64" width="64px" height="64px"><path fill="#c2cde7" d="M33 47A6 6 0 1 0 33 59A6 6 0 1 0 33 47Z"/><path fill="#f9e3ae" d="M57.87,52.09a1,1,0,0,1-.91.54H9A1,1,0,0,1,8.18,51l4.43-6.64,1.18-2.06a11.37,11.37,0,0,0,1-3.32L17,21.1A13.41,13.41,0,0,1,30.28,9.37h5.44A13.41,13.41,0,0,1,49,21.1L51.25,39a11.39,11.39,0,0,0,1.82,4.88L57.82,51A1,1,0,0,1,57.87,52.09Z"/><path fill="#faefde" d="M45.83,14A13.38,13.38,0,0,0,35.72,9.37H30.28A13.38,13.38,0,0,0,20.17,14Z"/><path fill="#f6d397" d="M56.16,53H9.84A2,2,0,0,1,8.2,49.85L13,43H53l4.8,6.85A2,2,0,0,1,56.16,53Z"/><path fill="#8d6c9f" d="M58.76,49.34l-4.62-6.93a9,9,0,0,1-1.44-3.88L50.52,21.14A15,15,0,0,0,38.79,8.35L37.45,5.66A3,3,0,0,0,34.76,4H31.24a3,3,0,0,0-2.68,1.66L27.21,8.35A15,15,0,0,0,15.48,21.14L13.3,38.53a9,9,0,0,1-1.44,3.88L7.24,49.34A3,3,0,0,0,9.74,54H26.08a7,7,0,0,0,13.84,0H56.26a3,3,0,0,0,2.5-4.66ZM30.34,6.55A1,1,0,0,1,31.24,6h3.53a1,1,0,0,1,.89.55L36.4,8c-.25,0-.5,0-.76,0H30.36c-.26,0-.51,0-.76,0ZM33,58a5,5,0,0,1-4.9-4h9.8A5,5,0,0,1,33,58Zm24.14-6.53a1,1,0,0,1-.88.53H9.74a1,1,0,0,1-.83-1.55L13.2,44h28a1,1,0,0,0,0-2H14.35a11,11,0,0,0,.94-3.22l2.17-17.39A13,13,0,0,1,30.36,10h5.28a13,13,0,0,1,12.9,11.39l2.17,17.39a11.06,11.06,0,0,0,1.76,4.74l4.62,6.93A1,1,0,0,1,57.14,51.47Z"/><path fill="#8d6c9f" d="M43.6 23h.09a1 1 0 0 0 .91-1.08 9.73 9.73 0 0 0-.82-3.17 1 1 0 1 0-1.82.82 7.74 7.74 0 0 1 .65 2.52A1 1 0 0 0 43.6 23zM34.88 13a1 1 0 0 0 0 2 7.77 7.77 0 0 1 4.94 1.78 1 1 0 1 0 1.28-1.54A9.77 9.77 0 0 0 34.88 13zM49.17 42H44.92a1 1 0 0 0 0 2h4.25a1 1 0 0 0 0-2zM18 46a1 1 0 0 0-1 1v2a1 1 0 0 0 2 0V47A1 1 0 0 0 18 46zM13 46a1 1 0 0 0-1 1v2a1 1 0 0 0 2 0V47A1 1 0 0 0 13 46zM23 46a1 1 0 0 0-1 1v2a1 1 0 0 0 2 0V47A1 1 0 0 0 23 46zM28 46a1 1 0 0 0-1 1v2a1 1 0 0 0 2 0V47A1 1 0 0 0 28 46zM33 46a1 1 0 0 0-1 1v2a1 1 0 0 0 2 0V47A1 1 0 0 0 33 46zM38 46a1 1 0 0 0-1 1v2a1 1 0 0 0 2 0V47A1 1 0 0 0 38 46zM43 46a1 1 0 0 0-1 1v2a1 1 0 0 0 2 0V47A1 1 0 0 0 43 46zM48 46a1 1 0 0 0-1 1v2a1 1 0 0 0 2 0V47A1 1 0 0 0 48 46zM53 46a1 1 0 0 0-1 1v2a1 1 0 0 0 2 0V47A1 1 0 0 0 53 46z"/></svg>